<?xml version="1.0" encoding="UTF-8"?>
<svg id="Layer_2" data-name="Layer 2" xmlns="http://www.w3.org/2000/svg" viewBox="0 0 96.89 96.84">
  <defs>
    <style>
      .cls-1, .cls-2 {
        stroke-width: 0px;
      }

      .cls-2 {
        fill: #EE0125;
      }
    </style>
  </defs>
  <g id="Layer_1-2" data-name="Layer 1">
    <g>
      <path class="cls-1" d="m76.21,22.07c5.6.22,7.64,4.27,9.92,8.17,3.11,5.32,6.39,10.54,9.58,15.82,2.07,3.41,1.42,6.06-2.12,8.02-4.73,2.63-9.92,3.96-15.19,4.87-1.99.34-2.57,1.02-2.54,3.07.14,8.38-.04,16.77.11,25.15.06,3.18-1.3,5.1-4.02,6.36-3.47,1.62-7.18,2.28-10.95,2.66-10.46,1.05-20.88.97-31.22-1.26-1.97-.43-3.87-1.08-5.66-2.05-2.12-1.14-3.19-2.79-3.16-5.33.09-8.63-.03-17.27.09-25.91.02-1.73-.64-2.07-2.08-2.28-4.81-.72-9.48-1.95-13.86-4.12-1.3-.65-2.55-1.38-3.58-2.43-1.67-1.7-2.06-3.81-.83-5.86,4.33-7.23,8.72-14.42,13.1-21.63.65-1.07,1.62-1.74,2.78-2.15,4.8-1.7,9.59-3.41,14.39-5.08,2.44-.85,3.89-.22,4.78,2.15.93,2.49,2.79,4.05,5.11,5,5.74,2.34,11.42,2.25,16.86-.95,1.36-.8,3.14-1.96,2.86-3.41-.23-1.21-2.43-1.15-3.83-1.42-.68-.13-1.38-.08-2.07-.18-.87-.12-1.35-.64-1.37-1.53-.02-.88.45-1.41,1.31-1.58.25-.05.5-.04.75-.07,6.86-.69,10.67-4.17,11.97-10.99.19-.99.31-1.99.38-2.99.07-1.1.31-2.1,1.62-2.13,1.43-.04,1.71,1.03,1.74,2.2.05,1.97.48,3.87,1.17,5.71,1.76,4.71,5,7.6,10.14,8.1.38.04.75.1,1.13.11,1.15.03,2.04.4,1.97,1.72-.07,1.21-.95,1.44-2,1.5-3.25.18-5.1.85-7.32,2.73Zm-3.54,46.48c0-6.43,0-12.86,0-19.28,0-1.21.05-2.43,1.64-2.42,1.61.01,1.61,1.3,1.61,2.46,0,1.89.03,3.78,0,5.67-.01.79.16,1.17,1.06,1,5.2-.99,10.34-2.2,15.05-4.7,1.86-.98,1.98-1.78.84-3.65-3.42-5.65-7.03-11.19-10.22-16.96-1.71-3.09-3.87-5.02-7.29-5.86-1.3-.32-1.78-.1-2.29.99-1.09,2.37-1.87,4.8-1.94,7.43-.03,1.17-.32,2.27-1.71,2.24-1.39-.02-1.65-1.13-1.64-2.3,0-.19,0-.38-.03-.57-.32-3.11-1.19-6.03-3.02-8.62-.63-.88-1.06-1.46-1.91-.07-1.14,1.86-2.93,3.1-4.89,4.05-4.48,2.15-9.18,2.58-14,1.6-4.81-.97-8.95-3-11.02-7.86-.39-.91-.95-.55-1.53-.34-4.26,1.53-8.5,3.09-12.78,4.55-1.21.41-2.02,1.08-2.67,2.17-3.81,6.37-7.69,12.69-11.54,19.04-1.56,2.56-1.42,3.2,1.27,4.71,4.4,2.47,9.24,3.56,14.14,4.46,1.06.2,1.29-.22,1.26-1.19-.06-1.89-.03-3.78-.01-5.67,0-1.22-.07-2.61,1.68-2.57,1.6.03,1.59,1.31,1.57,2.49,0,.31,0,.63,0,.95,0,11.22,0,22.43,0,33.65,0,6.21.22,6.48,6.37,7.92.06.01.12.02.19.03,10.29,2.11,20.65,2.05,31.03.92,3.01-.33,5.96-.96,8.75-2.2,1.46-.65,2.14-1.59,2.11-3.34-.12-6.24-.05-12.48-.05-18.72Zm-3.23-58.81c-1.48,3.46-3.77,6.04-7.08,8,3.31,1.93,5.6,4.52,7.09,8.01,1.46-3.55,3.85-6.1,7.08-8.06-3.4-1.95-5.58-4.55-7.09-7.96Z"/>
      <path class="cls-2" d="m66.23,46.86c-.18.91-.68,1.54-1.64,1.52-5.54-.16-8.92,4.03-9.63,10.3-.04.37-.02.76-.06,1.13-.11.85-.59,1.39-1.46,1.46-.97.07-1.56-.45-1.69-1.39-.23-1.74-.38-3.49-1-5.17-1.44-3.85-4.08-6.1-8.28-6.29-1.05-.05-1.91-.31-2-1.51-.09-1.35.84-1.64,1.94-1.78,5.42-.69,8.32-3.62,9.07-9.13.1-.75.15-1.5.25-2.25.13-.96.73-1.5,1.66-1.45.92.05,1.48.64,1.52,1.61.08,1.84.43,3.62,1.11,5.32,1.41,3.52,3.88,5.64,7.77,5.88,1.19.07,2.3.23,2.44,1.77Zm-12.93,5.52c1.16-2.5,2.79-4.19,4.85-5.64-2.24-1.38-3.66-3.23-4.9-5.49-1.12,2.46-2.74,4.07-4.71,5.52,2.01,1.46,3.6,3.11,4.76,5.61Z"/>
      <path class="cls-1" d="m56.69,67.72c.44,0,.88-.02,1.32,0,1.01.06,1.72.58,1.74,1.6.03,1.04-.68,1.6-1.67,1.67-.94.07-1.88.05-2.82.02-1.05-.03-1.9-.42-1.9-1.61,0-1.3.88-1.68,2.02-1.69.44,0,.88,0,1.32,0h0Z"/>
      <path class="cls-1" d="m66.21,71.03c-1.22-.09-3.17.44-3.14-1.71.03-1.99,1.88-1.54,3.2-1.6.19,0,.38,0,.56,0,1.26-.04,2.57.04,2.54,1.71-.02,1.53-1.27,1.64-2.46,1.61-.19,0-.38,0-.7,0Z"/>
      <path class="cls-2" d="m59.78,74.13c0-.44,0-.87,0-1.31,0-1.11.51-1.81,1.68-1.78,1.09.03,1.49.76,1.5,1.76.01.87,0,1.75,0,2.62.02,1.16-.44,2.04-1.69,1.98-1.11-.05-1.57-.87-1.51-1.97.02-.44,0-.87,0-1.31Z"/>
      <path class="cls-2" d="m59.77,64.51c.06-1.37-.38-3.11,1.53-3.15,2.07-.04,1.68,1.79,1.64,3.09-.03,1.26.57,3.15-1.51,3.2-2.28.05-1.47-1.96-1.66-3.13Z"/>
    </g>
  </g>
</svg>