<?xml version="1.0" encoding="UTF-8"?>
<svg id="Layer_2" data-name="Layer 2" xmlns="http://www.w3.org/2000/svg" viewBox="0 0 84.15 106.96">
  <defs>
    <style>
      .cls-1, .cls-2 {
        stroke-width: 0px;
      }

      .cls-2 {
        fill: #EE0125;
      }
    </style>
  </defs>
  <g id="Layer_1-2" data-name="Layer 1">
    <g>
      <path class="cls-1" d="m10.49,53.8c2.65-7.87,6.59-10.67,14.92-10.67,4.59,0,9.18-.05,13.78.01,3.7.05,6.57-1.38,8.79-4.32,1.91-2.53,2.95-2.46,4.86.15,1.78,2.43,4.14,3.85,7.18,4.11,7.8.65,11.05,3.18,13.62,10.62,3.37.44,3.54.63,3.55,4,0,.63.05,1.26,0,1.88-.22,2.55-.16,4.61,3.01,5.72,2.45.86,3.61,3.43,3.63,6.12.06,7.37.16,14.75-.03,22.12-.19,7.16-6.37,13.28-13.54,13.33-18.78.11-37.57.12-56.36,0-7.26-.05-13.41-6.3-13.54-13.55-.14-7.23-.07-14.47-.02-21.71.02-3.41,1.97-6.08,5.32-7.21,1.11-.37,1.39-.87,1.34-1.92-.07-1.67-.02-3.34-.02-5.01,0-3.11.33-3.47,3.52-3.68Zm62.4,4.41H11.33v5.73c6.92,0,13.67,0,20.41,0,1.52,0,2.93.27,2.93,2.14,0,1.91-1.44,2.07-2.96,2.07-7.51-.02-15.03-.01-22.54,0-3.49,0-4.68,1.18-4.68,4.6,0,6.4-.01,12.8,0,19.2.02,6.61,4.2,10.78,10.86,10.79,17.81.01,35.63.01,53.44,0,6.66,0,10.84-4.16,10.86-10.78.02-6.33,0-12.66,0-19,0-3.7-1.13-4.81-4.89-4.81-7.58,0-15.17-.01-22.75,0-1.45,0-2.54-.46-2.55-2.06,0-1.59,1.1-2.13,2.52-2.13,6.19,0,12.39,0,18.58,0,.74,0,1.49,0,2.33,0v-5.73Zm-22.59-15.59c-3.38,3.57-7.37,4.93-12,4.72-2.15-.1-4.31-.02-6.46-.02-2.78,0-5.56-.06-8.34.02-4.4.13-7.5,2.55-8.37,6.43h53.9c-.94-3.73-3.59-6.13-7.61-6.34-4.3-.22-8-1.54-11.13-4.81Z"/>
      <path class="cls-2" d="m40.68,13.25c.55-1.19.93-2.16,1.42-3.06C45.27,4.33,50.2.95,56.78.08c5.31-.7,8.93,3.14,8.19,8.54-1.29,9.48-9.24,16.43-18.82,16.46-.55,0-1.11,0-1.98,0,0,2.51,0,4.98,0,7.45,0,.62.19,1.44-.13,1.83-.54.67-1.46,1.51-2.14,1.45-.68-.06-1.58-1.05-1.82-1.81-.31-1.01-.08-2.18-.08-3.37-1.79-.14-3.45-.15-5.06-.43-8.36-1.46-14.41-7.63-15.73-15.94-.92-5.76,2.95-9.66,8.72-8.75,5.18.82,9.37,3.35,12.74,7.72Zm-1.48,10.11l.62-.63c-.71-6.8-5.85-12.16-12.54-13.07-2.81-.38-4.2.86-3.95,3.54.62,6.75,6.29,12.33,13.41,12.59-.85-1.08-1.97-1.89-2.99-2.81-1-.9-1.29-2.05-.28-3.11,1.09-1.14,2.3-.87,3.26.22.9,1.02,1.66,2.18,2.48,3.27Zm5.58-5.75c1.12-1.21,2.24-2.44,3.37-3.64,1.03-1.09,2.23-1.59,3.41-.33,1.08,1.15.62,2.34-.43,3.26-1.29,1.13-2.65,2.18-3.98,3.27.19.18.37.37.56.55,6.8-.55,12.5-6.16,13.12-12.9.24-2.59-1.13-3.9-3.74-3.58-6.81.85-12.04,6.2-12.32,13.36Z"/>
      <path class="cls-1" d="m4.62,20.77c.6-1.76-.76-4.66,2.34-4.58,2.85.07,1.74,2.76,2.18,4.5,1.51.76,4.61-.8,4.58,2.38-.02,3.08-2.97,1.54-4.55,2.25-.54,1.71.7,4.71-2.43,4.6-2.81-.09-1.57-2.86-2.09-4.59C3.11,24.55-.17,26.21,0,22.86c.15-2.75,2.86-1.64,4.61-2.09Z"/>
      <path class="cls-2" d="m79.51,31c1.67.69,4.63-.76,4.64,2.26.01,2.98-2.84,1.83-4.56,2.3-.83,1.54.85,4.69-2.45,4.56-2.84-.11-1.63-2.84-2.17-4.52-1.61-.62-4.65.74-4.54-2.45.1-2.9,2.91-1.47,4.54-2.14.57-1.64-.72-4.66,2.38-4.6,2.88.06,1.6,2.83,2.14,4.59Z"/>
      <path class="cls-2" d="m72.94,15.95c.54.81,1.59,1.7,1.48,2.4-.12.78-1.24,1.77-2.07,1.93-.5.1-1.74-1.17-1.79-1.89-.06-.77.89-1.62,1.39-2.43.33,0,.66,0,.98,0Z"/>
      <path class="cls-1" d="m17.26,33.12c.49.83,1.41,1.71,1.33,2.49-.06.7-1.35,1.92-1.86,1.81-.82-.18-1.91-1.21-2-1.98-.08-.72,1-1.57,1.57-2.36.32.01.64.03.95.04Z"/>
      <path class="cls-2" d="m42.18,74.64c6.03.05,10.82,4.94,10.75,10.97-.07,5.88-4.96,10.71-10.85,10.71-5.98,0-10.88-4.93-10.86-10.92.02-6.01,4.91-10.81,10.96-10.76Zm-.14,4.19c-3.67.02-6.62,2.96-6.63,6.6,0,3.63,2.96,6.63,6.6,6.68,3.7.04,6.78-3.04,6.73-6.75-.05-3.64-3.03-6.54-6.71-6.53Z"/>
      <path class="cls-1" d="m44.48,66.48c-.8.54-1.6,1.52-2.38,1.5-.71-.02-2.02-1.2-1.95-1.71.12-.83,1.06-2,1.82-2.15.71-.13,1.64.88,2.47,1.4l.04.96Z"/>
    </g>
  </g>
</svg>