<?xml version="1.0" encoding="UTF-8"?>
<svg id="Layer_2" data-name="Layer 2" xmlns="http://www.w3.org/2000/svg" viewBox="0 0 100.87 100.36">
  <defs>
    <style>
      .cls-1, .cls-2 {
        stroke-width: 0px;
      }

      .cls-2 {
        fill: #EE0125;
      }
    </style>
  </defs>
  <g id="Layer_1-2" data-name="Layer 1">
    <g>
      <path class="cls-1" d="m3.38,50.55c.28,14.66,5.92,26.8,17.17,36.28.3.25.6.5.91.75.9.71,1.25,1.59.49,2.55-.77.96-1.7.79-2.6.09-3.41-2.7-6.47-5.76-9.1-9.23C-12.08,51.47,3.94,8.68,40.17,1.08c28.38-5.95,55.98,13.41,60.19,42.26.3,2.07.34,4.18.49,6.28.09,1.29-.13,2.53-1.72,2.51-1.46-.02-1.66-1.22-1.68-2.42-.11-7.89-2.11-15.27-5.97-22.15C81.69,10.09,62.44.99,43.75,3.95,22.97,7.23,7.58,22.39,4.04,42.5c-.47,2.65-.64,5.34-.66,8.05Z"/>
      <path class="cls-2" d="m53.23,37.92c-6.56,0-13.13.05-19.69-.04-1.51-.02-1.83.41-1.81,1.86.09,5.71-.06,11.43.07,17.13.22,9.97,7.44,17.46,17.5,18.36,9.04.8,17.64-5.79,19.47-15.11.75-3.82.26-7.73.34-11.6.03-1.64-.02-3.28.04-4.92.04-.95.53-1.64,1.57-1.68,1.01-.04,1.75.52,1.72,1.49-.19,6.28.85,12.63-.73,18.83-2.7,10.58-13.04,17.59-23.82,16.29-11.02-1.32-19.41-10.6-19.52-21.68-.06-5.78-.03-11.55,0-17.33,0-1.01.03-1.75-1.38-1.65-1.01.07-1.79-.58-1.75-1.7.04-1.21.88-1.67,2.01-1.68,2.3,0,4.6-.07,6.89.02,1.26.05,1.66-.29,1.63-1.61-.08-5.05-.03-10.11-.04-15.17,0-.8-.01-1.61.79-2.08,1.25-.74,2.5.14,2.51,1.86.03,5.05.07,10.11-.03,15.16-.03,1.47.34,1.86,1.83,1.84,6.37-.09,12.74-.11,19.1,0,1.66.03,1.89-.55,1.87-1.99-.08-4.79-.03-9.58-.03-14.38,0-1.27-.13-2.71,1.72-2.68,1.71.03,1.6,1.4,1.6,2.6,0,4.86.05,9.72-.03,14.57-.02,1.39.22,1.98,1.78,1.87,2.16-.15,4.33-.03,6.5-.04,1.17,0,2.2.3,2.24,1.64.05,1.47-1.04,1.8-2.28,1.8-6.7,0-13.39,0-20.09,0Z"/>
      <path class="cls-1" d="m50.52,82.6c1.12,0,2.23-.05,3.35.01,1.03.06,1.77.56,1.76,1.7,0,1.13-.76,1.79-1.77,1.66-1.83-.23-1.85.77-1.78,2.08.06,1.31-.04,2.63.03,3.94.21,3.39,2.87,5.51,6.2,4.87,16.83-3.24,28.67-12.77,35.62-28.41.19-.42.34-.85.54-1.26.43-.86,1.1-1.32,2.07-.95,1.03.39,1.38,1.19,1.01,2.22-.35.98-.76,1.95-1.21,2.9-7.57,15.72-19.92,25.32-37,28.79-5.96,1.21-10.5-2.62-10.56-8.71,0-.92-.06-1.84.01-2.76.11-1.59.23-3.01-2.15-2.74-.8.09-1.4-.65-1.41-1.59-.01-1.04.6-1.63,1.55-1.7,1.24-.1,2.49-.02,3.74-.02v-.02Z"/>
      <path class="cls-2" d="m48.47,57.38c-.98,0-1.97.06-2.95-.01-1.49-.11-2.21-1.1-1.6-2.4,1.6-3.37,3.28-6.7,5-10.01.47-.9,1.29-1.32,2.31-.72,1,.58,1.03,1.48.59,2.39-.99,2.07-1.99,4.13-3.07,6.15-.55,1.02-.44,1.38.78,1.34,1.77-.06,3.54-.04,5.32,0,2.11.04,2.77,1.02,1.87,2.87-1.48,3.06-3.03,6.09-4.56,9.14-.51,1.02-1.19,1.84-2.46,1.18-1.21-.63-1.08-1.62-.54-2.69,1.01-1.98,1.94-4,2.98-5.98.48-.92.4-1.3-.73-1.24-.98.05-1.97.01-2.95.01h0Z"/>
      <path class="cls-2" d="m99.72,61.08c-.15,1.09-.38,2.21-1.86,2.21-1.11,0-1.72-.72-1.64-1.75.1-1.16.34-2.44,1.97-2.36,1.11.05,1.56.78,1.53,1.9Z"/>
    </g>
  </g>
</svg>