<?xml version="1.0" encoding="UTF-8"?>
<svg id="Layer_2" data-name="Layer 2" xmlns="http://www.w3.org/2000/svg" viewBox="0 0 88.61 88.61">
  <defs>
    <style>
      .cls-1, .cls-2 {
        stroke-width: 0px;
      }

      .cls-2 {
        fill: #EE0125;
      }
    </style>
  </defs>
  <g id="Layer_1-2" data-name="Layer 1">
    <g>
      <path class="cls-2" d="m40.91,20.5c0,3.4.05,6.81,0,10.21-.1,5.72-4.43,10.13-10.12,10.19-6.88.08-13.76.08-20.64,0-5.59-.06-10.01-4.44-10.08-10.01-.09-6.95-.09-13.9,0-20.85C.14,4.57,4.5.16,9.96.08c7.02-.1,14.04-.1,21.06,0,5.45.08,9.75,4.5,9.87,9.99.08,3.47.01,6.95.02,10.42Zm-20.62,13.6c3.26,0,6.53.02,9.79,0,2.77-.02,4-1.26,4.01-4.06.02-6.38.02-12.77,0-19.15-.01-2.76-1.27-4-4.06-4.01-6.38-.02-12.77-.02-19.15,0-2.77.01-4,1.25-4.01,4.05-.02,6.38-.02,12.77,0,19.15,0,2.76,1.27,3.99,4.05,4.01,3.12.03,6.24,0,9.36,0Z"/>
      <path class="cls-1" d="m47.71,20.48c0-3.33-.03-6.67,0-10C47.79,4.51,52.11.11,58.04.06c6.74-.05,13.48-.05,20.21,0,5.94.05,10.28,4.44,10.32,10.42.05,6.67.05,13.33,0,20-.04,6.07-4.42,10.4-10.53,10.43-6.6.04-13.19.04-19.79,0-6.19-.04-10.5-4.4-10.54-10.64-.02-3.26,0-6.52,0-9.79Zm34.05.02c0-3.19.02-6.38,0-9.57-.02-2.79-1.25-4.04-4.01-4.05-6.38-.02-12.77-.02-19.15,0-2.8,0-4.04,1.24-4.05,4.01-.02,6.38-.02,12.77,0,19.15,0,2.79,1.25,4.04,4.01,4.06,6.38.02,12.77.02,19.15,0,2.79,0,4.03-1.25,4.05-4.01.03-3.19,0-6.38,0-9.57Z"/>
      <path class="cls-1" d="m20.52,88.59c-3.4,0-6.81.04-10.21,0-5.82-.09-10.2-4.45-10.25-10.28-.06-6.74-.05-13.48,0-20.21.04-5.96,4.42-10.32,10.38-10.36,6.74-.05,13.48-.06,20.21,0,5.83.05,10.2,4.43,10.25,10.27.06,6.74.05,13.48,0,20.21-.05,5.96-4.42,10.29-10.38,10.37-3.33.04-6.67,0-10,0Zm.04-34.05c-3.26,0-6.53-.03-9.79,0-2.64.03-3.89,1.28-3.9,3.95-.03,6.45-.03,12.91,0,19.36.01,2.63,1.29,3.89,3.95,3.9,6.45.03,12.91.03,19.36,0,2.63-.01,3.89-1.29,3.9-3.95.03-6.45.03-12.91,0-19.36-.01-2.63-1.3-3.87-3.95-3.9-3.19-.03-6.38,0-9.57,0Z"/>
      <path class="cls-2" d="m71.56,64.74c4.49,0,8.67-.01,12.85,0,2.64.01,4.21,1.34,4.17,3.47-.04,2.05-1.57,3.33-4.08,3.34-4.24.02-8.48,0-12.93,0,0,4.5-.02,8.81,0,13.11.01,1.85-.72,3.18-2.5,3.76-2.2.72-4.26-1-4.33-3.58-.05-2.2-.01-4.4-.01-6.6,0-2.12,0-4.25,0-6.7-2.81,0-5.54,0-8.28,0-1.56,0-3.12.02-4.68,0-2.51-.03-4.03-1.31-4.06-3.37-.02-2.08,1.49-3.42,3.98-3.44,4.25-.03,8.49,0,13.03,0,0-3.63,0-7.15,0-10.67,0-.99-.05-1.99.02-2.98.13-2.01,1.54-3.37,3.4-3.37,1.85,0,3.34,1.39,3.37,3.39.08,3.97.03,7.94.03,11.92,0,.48,0,.97,0,1.71Z"/>
    </g>
  </g>
</svg>