<?xml version="1.0" encoding="UTF-8"?>
<svg id="Layer_2" data-name="Layer 2" xmlns="http://www.w3.org/2000/svg" viewBox="0 0 119.56 99.71">
  <defs>
    <style>
      .cls-1, .cls-2 {
        stroke-width: 0px;
      }

      .cls-2 {
        fill: #EE0125;
      }
    </style>
  </defs>
  <g id="Layer_1-2" data-name="Layer 1">
    <g>
      <path class="cls-1" d="m109.07,37.29c6.49,12.72,6.84,25.9,3.57,39.4-.2.83-.37,1.74-.84,2.41-2.37,3.35-2.14,7.14-2.11,10.95.06,6.96-2.62,9.61-9.57,9.61-1.24,0-2.5.06-3.73-.11-3.95-.53-6.56-3.47-6.67-7.46-.04-1.46,0-2.92,0-4.14-10.19.56-20.12,1.54-30.05,1.53-9.84,0-19.68-.99-29.76-1.56,0,1.22.03,2.6,0,3.99-.09,4.32-2.89,7.36-7.19,7.69-1.78.14-3.58.12-5.37.01-4.31-.26-7.15-3.19-7.41-7.53-.01-.23-.02-.47-.01-.7.16-4.5-.77-8.65-2.21-13.04-4.3-13.11-3.94-26.34,1.92-39.12.29-.63.59-1.25.96-2.04-1.81-.6-3.58-1.1-5.28-1.79C1.17,33.74-.23,31.85.03,28.45c.34-4.53,2.69-7.62,6.59-8.62.75-.19,1.52-.33,2.3-.38,3.21-.2,5.87.54,6.95,4.05.22.72.7,1.37,1.19,2.3.8-1.67,1.39-3.17,2.2-4.54,2.17-3.68,4.34-7.36,6.68-10.94,3.7-5.65,8.71-8.82,15.72-9.44,13.4-1.17,26.71-1.36,40.04.62,3.98.59,7.15,2.5,9.33,5.62,3.67,5.27,6.96,10.82,10.38,16.27.41.65.67,1.39,1.29,2.69,1.62-6.39,5.61-7.79,11.03-6.06,3.61,1.15,5.95,4.52,5.85,8.94-.16,6.66-6.26,6.24-10.49,8.33Zm.33,27.43c-1.04,0-1.88,0-2.71,0-6.23,0-12.45.02-18.68,0-2.58-.01-3.5-1.11-3.22-3.66.72-6.5,5.86-11.19,12.44-11.29,3.65-.05,7.3,0,11.15,0-1.16-4.84-2.93-9.17-5.7-13.1-.97-1.37-2.01-1.71-3.7-1.62-14.91.79-29.83,1.91-44.75,1.98-11.33.06-22.67-1.31-34.01-1.92-.95-.05-2.28.49-2.87,1.22-3.15,3.86-4.9,8.41-6.09,13.46,3.8,0,7.44-.04,11.08,0,6.54.08,11.58,4.56,12.45,11,.39,2.85-.51,3.94-3.34,3.95-6.23.02-12.45,0-18.68,0-.82,0-1.64,0-3.14,0,1.06,4.62,1.98,8.77,2.98,12.89.38,1.58,1.36,2.43,3.13,2.58,2.32.2,4.6.76,6.9,1.12,13.7,2.18,27.47,3.59,41.35,3.23,13.55-.36,26.98-1.99,40.3-4.48.85-.16,1.92-.84,2.28-1.58,2.08-4.25,2.61-8.85,2.83-13.77ZM20.91,29.83c26.05,3.02,51.8,3.03,77.8,0-3.35-8.2-7.34-15.95-14.07-21.92-1.01-.9-2.66-1.29-4.07-1.51-13-1.95-26.04-1.95-39.08-.38-2.58.31-5.3.41-7.36,2.47-6.04,6.05-10.02,13.35-13.23,21.33Zm-5.95,55.3c0,2.16.04,4.08-.01,6-.05,1.62.31,3.31,2.08,3.33,2.5.02,5.29,1.24,7.46-1.08.23-.25.33-.72.33-1.08.03-1.83.01-3.67.01-5.54-3.39-.56-6.5-1.07-9.87-1.63Zm79.81,1.66c0,1.8-.03,3.49,0,5.18.04,1.83,1.14,2.85,2.84,2.58,2.41-.38,5.91,1.72,6.91-2.19.57-2.22.1-4.7.1-7.25-3.44.58-6.54,1.11-9.86,1.67ZM29.32,59.56c-1.07-2.6-2.76-4.33-5.06-4.49-4.61-.31-9.26-.09-13.98-.09-.1,1.58-.19,3.02-.29,4.58h19.34Zm80-4.69c-4.57,0-8.92-.16-13.24.06-2.74.14-4.59,1.88-5.78,4.56h19.38c-.12-1.58-.23-2.96-.35-4.62ZM14.01,31.09c-.94-1.88-1.77-3.63-2.67-5.34-.75-1.42-3.03-1.69-4.62-.59-1.31.91-2.17,3.86-1.41,4.81,1.11,1.39,6.77,2.22,8.7,1.12Zm91.61-.01c2.43,1.96,4.56.41,6.64-.29,2.64-.88,3.06-3.38,1.03-5.3-1.4-1.32-4.13-1.38-4.87-.01-.99,1.82-1.86,3.71-2.8,5.6Z"/>
      <path class="cls-2" d="m59.81,49.76c5.53,0,11.05-.02,16.58,0,2.76.01,3.58,1.02,3.15,3.79-.67,4.3-1.43,8.59-2.06,12.89-.34,2.32-1.47,3.35-3.89,3.33-9.18-.07-18.37-.07-27.55,0-2.41.02-3.55-1-3.89-3.33-.62-4.23-1.37-8.44-2.03-12.66-.49-3.16.29-4.03,3.58-4.03,5.37,0,10.74,0,16.11,0Zm14.46,5.25h-28.91c.57,3.34,1.1,6.45,1.63,9.57h25.65c.53-3.15,1.05-6.19,1.63-9.57Z"/>
    </g>
  </g>
</svg>