<svg width="54" height="54" viewBox="0 0 54 54" fill="none" xmlns="http://www.w3.org/2000/svg">
<path d="M42.0001 39C43.1001 40.1 44.3001 41.3 45.5001 42.5C45.6001 42.6 45.9001 42.6 46.1001 42.5C50.0001 41.1 54.0001 43.9 53.8001 48C53.7001 51.1 51.1001 53.5 47.9001 53.4C44.9001 53.3 42.4001 50.7999 42.5001 47.7999C42.5001 47.0999 42.8001 46.4 43.0001 45.7C43.0001 45.5 43.1001 45.3 43.0001 45.2C41.8001 44 40.6001 42.8 39.5001 41.7C31.5001 47.3 23.5001 47.3 15.5001 41.7C14.6001 42.6 13.7001 43.6 12.7001 44.5C12.1001 45.1 11.9001 45.5 12.2001 46.4C13.1001 49.4 11.2001 52.5999 8.10012 53.2999C4.90012 53.9999 1.70012 52 1.10012 48.9C0.40012 45.4 3.10012 42.0999 6.60012 42.0999C7.30012 42.0999 8.00012 42.3999 8.80012 42.5999C9.00012 42.5999 9.20012 42.6999 9.30012 42.5999C10.5001 41.3999 11.7001 40.2999 12.8001 39.0999C7.20012 31.0999 7.20012 23.2 12.8001 15.1C12.6001 14.9 12.3001 14.6 12.0001 14.3C11.2001 13.5 10.3001 12.6 9.50012 11.8C9.20012 11.5 9.00012 11.4 8.60012 11.6C5.50012 12.7 2.20012 11 1.30012 7.89995C0.40012 4.79995 2.10012 1.59995 5.30012 0.799951C7.50012 0.199951 9.50012 0.799951 11.0001 2.59995C12.5001 4.29995 12.8001 6.19995 11.9001 8.29995C11.8001 8.49995 11.8001 8.79995 11.9001 8.89995C13.1001 10.1 14.3001 11.3 15.4001 12.4C23.4001 6.79995 31.4001 6.79995 39.4001 12.4C40.3001 11.5 41.2001 10.5 42.2001 9.59995C42.8001 8.99995 43.0001 8.59995 42.7001 7.69995C41.8001 4.69995 43.7001 1.49995 46.8001 0.799951C50.0001 -4.88311e-05 53.1001 1.99995 53.7001 5.09995C54.4001 8.59995 51.8001 11.9 48.3001 11.9C47.6001 11.9 46.8001 11.6 46.1001 11.4C45.9001 11.4 45.7001 11.3 45.6001 11.4C44.4001 12.6 43.2001 13.8 42.1001 14.9C47.6001 23 47.6001 30.9 42.0001 39ZM12.3001 27C12.3001 35.3 19.0001 42.0999 27.3001 42.0999C35.7001 42.0999 42.4001 35.4 42.5001 27C42.5001 18.7 35.7001 12 27.5001 11.9C19.1001 11.9 12.3001 18.7 12.3001 27ZM6.70012 4.39995C5.70012 4.39995 4.80012 5.19995 4.80012 6.29995C4.80012 7.29995 5.70012 8.19995 6.70012 8.19995C7.70012 8.19995 8.60012 7.29995 8.50012 6.29995C8.50012 5.19995 7.70012 4.39995 6.70012 4.39995ZM50.1001 6.29995C50.1001 5.29995 49.3001 4.39995 48.2001 4.39995C47.2001 4.39995 46.3001 5.19995 46.3001 6.19995C46.3001 7.29995 47.1001 8.09995 48.2001 8.09995C49.2001 8.09995 50.1001 7.29995 50.1001 6.29995ZM8.50012 47.7999C8.50012 46.7999 7.60012 45.9 6.60012 45.9C5.60012 45.9 4.70012 46.7999 4.70012 47.7999C4.70012 48.7999 5.60012 49.5999 6.60012 49.5999C7.70012 49.5999 8.60012 48.7999 8.50012 47.7999ZM50.1001 47.7999C50.1001 46.7999 49.3001 45.9 48.3001 45.9C47.3001 45.9 46.4001 46.6999 46.4001 47.7999C46.4001 48.7999 47.2001 49.7 48.3001 49.7C49.2001 49.7 50.0001 48.7999 50.1001 47.7999Z" fill="#191919"/>
<path d="M27.4002 38.2999C25.6002 38.2999 23.9002 38.2999 22.1002 38.2999C20.6002 38.2999 19.8002 37.5999 19.9002 35.9999C19.9002 34.8999 19.9002 33.6999 20.2002 32.5999C21.0002 28.9999 24.6002 26.4999 28.2002 26.9999C32.0002 27.4999 34.9002 30.5999 35.0002 34.2999C35.0002 34.9999 35.0002 35.5999 35.0002 36.2999C35.0002 37.4999 34.2002 38.2999 33.0002 38.2999C31.1002 38.3999 29.3002 38.2999 27.4002 38.2999ZM31.1002 34.4999C31.2002 32.4999 29.4002 30.6999 27.3002 30.7999C25.3002 30.7999 23.5002 32.5999 23.7002 34.4999C26.2002 34.4999 28.7002 34.4999 31.1002 34.4999Z" fill="#F44336"/>
<path d="M27.4002 25.0999C24.3002 25.0999 21.7002 22.4999 21.7002 19.3999C21.7002 16.2999 24.3002 13.7999 27.4002 13.7999C30.5002 13.7999 33.1002 16.2999 33.1002 19.4999C33.1002 22.5999 30.5002 25.0999 27.4002 25.0999ZM27.4002 21.3999C28.4002 21.3999 29.3002 20.5999 29.3002 19.5999C29.3002 18.5999 28.5002 17.6999 27.4002 17.6999C26.4002 17.6999 25.5002 18.4999 25.5002 19.4999C25.5002 20.4999 26.3002 21.2999 27.4002 21.3999Z" fill="#F44336"/>
</svg>
