<svg width="45" height="45" viewBox="0 0 45 45" fill="none" xmlns="http://www.w3.org/2000/svg">
<path d="M22.4001 0.5C23.0001 0.5 23.6 0.5 24.3 0.5C24.6 0.5 24.7 0.6 24.8 0.9C25.2 5 25.7001 9.1 26.2001 13.3C26.3001 14 26.4 14.8 26.3 15.5C26.1 17.1 24.7001 18.3 23.1001 18.3C22.5001 18.3 21.8001 18.3 21.2001 18.2C19.5001 17.9 18.4001 16.3 18.6001 14.5C19.1001 10 19.6001 5.5 20.1001 1C20.1001 0.7 20.2001 0.5 20.6001 0.6C21.1001 0.6 21.7001 0.5 22.4001 0.5Z" fill="#F44336"/>
<path d="M17.8 0.599986C17.7 1.69999 17.6 2.79999 17.4 3.89999C17 7.49999 16.6 11.1 16.2 14.8C16.2 15.2 16.1 15.7 16 16.1C15.7 17.4 14.7 18.3 13.3 18.3C12.6 18.3 11.9 18.3 11.2 18.2C9.79996 17.9 8.79996 16.4 9.19996 15C9.99996 11.9 10.9 8.79999 11.7 5.69999C12.1 4.09999 12.6 2.59999 13 0.999986C13.1 0.699986 13.2 0.599986 13.6 0.599986C14.8 0.599986 16.1 0.599986 17.3 0.599986C17.5 0.499986 17.6 0.599986 17.8 0.599986Z" fill="#F44336"/>
<path d="M26.9001 0.5C28.1001 0.5 29.3001 0.5 30.4001 0.5C31.4001 0.5 31.4002 0.5 31.7002 1.5C32.9002 5.8 34.1001 10.2 35.3001 14.5C35.9001 16.6 34.6002 18.2 32.5002 18.2C32.1002 18.2 31.8001 18.2 31.4001 18.2C29.9001 18.2 28.7002 17.2 28.6002 15.7C28.2002 12.2 27.8001 8.7 27.4001 5.2C27.2001 3.8 27.1001 2.4 26.9001 1C26.9001 0.9 26.9001 0.8 26.9001 0.5Z" fill="#F44336"/>
<path d="M10.9001 0.500025C10.8001 0.700025 10.8001 0.900025 10.7001 1.10003C9.30008 6.00003 8.00009 10.9 6.60009 15.8C6.10009 17.5 5.20008 18.2 3.50008 18.2C3.20008 18.2 2.80008 18.2 2.50008 18.2C0.500081 17.9 -0.399925 16.1 0.400075 14.2C1.50007 11.6 2.70008 9.00002 3.80008 6.40002C4.40008 4.90002 5.10008 3.50002 5.70008 2.00002C6.20008 0.900025 7.00008 0.400024 8.20008 0.400024C9.10008 0.600024 10.0001 0.500025 10.9001 0.500025Z" fill="#F44336"/>
<path d="M33.8 0.599986C35 0.599986 36.1 0.499986 37.3 0.599986C38.1 0.699986 38.6001 1.29999 39.0001 2.09999C40.2001 4.89999 41.5001 7.69999 42.7001 10.5C43.2001 11.7 43.8 12.9 44.3 14.1C45.2 16.2 43.9001 18.2 41.6001 18.2C41.3001 18.2 41.0001 18.2 40.7001 18.2C39.5001 18.2 38.4001 17.4 38.1001 16.3C36.6001 11.1 35.2 5.99999 33.8 0.799986C33.8 0.699986 33.8 0.699986 33.8 0.599986Z" fill="#F44336"/>
<path d="M6.40009 44.1001C5.90009 44.1001 5.30009 44.1001 4.80009 44.1001C3.10009 44.1001 2.1001 43.0001 2.1001 41.3001C2.1001 34.5001 2.1001 27.6001 2.1001 20.8001C2.1001 20.7001 2.1001 20.5001 2.1001 20.4001L2.30009 18.9001H3.70009C5.00009 18.9001 6.00009 18.5001 6.80009 17.4001L8.1001 15.8001L9.20009 17.5001C9.80009 18.3001 11.2001 18.9001 12.7001 18.9001H12.8001C14.3001 18.9001 15.7001 18.3001 16.2001 17.5001L17.4001 15.7001L18.7001 17.5001C19.4001 18.4001 20.8001 19.0001 22.4001 19.0001C24.0001 19.0001 25.4001 18.4001 26.1001 17.5001L27.4001 15.7001L28.6001 17.5001C29.1001 18.4001 30.5001 18.9001 32.1001 18.9001C33.6001 18.9001 35.0001 18.4001 35.5001 17.6001L36.4001 16.3001L37.7001 17.2001C37.9001 17.4001 38.1001 17.5001 38.4001 17.7001C38.8001 18.0001 39.2001 18.3001 39.5001 18.5001C39.8001 18.7001 40.3001 18.8001 40.8001 18.9001C41.1001 19.0001 41.4001 19.0001 41.7001 19.1001L42.8001 19.4001V41.1001C42.8001 43.0001 41.8001 44.1001 39.8001 44.1001H20.8001C20.7001 44.1001 20.5001 44.1001 20.4001 44.1001L18.8001 44.0001V26.4001H10.8001V43.8001L9.6001 44.0001C9.4001 44.0001 9.3001 44.1001 9.1001 44.1001H8.20009C7.40009 44.1001 6.90009 44.1001 6.40009 44.1001ZM5.00009 41.1001C5.90009 41.1001 6.70009 41.1001 7.50009 41.1001V26.4001C7.50009 24.4001 8.50009 23.4001 10.5001 23.4001H18.5001C20.5001 23.4001 21.5001 24.4001 21.5001 26.4001V41.1001H39.5001V21.8001C39.0001 21.7001 38.4001 21.5001 37.9001 21.3001C37.4001 21.1001 37.0001 20.8001 36.7001 20.5001C35.5001 21.4001 33.8001 22.0001 31.9001 22.0001H31.8001C29.9001 22.0001 28.3001 21.4001 27.1001 20.5001C25.8001 21.4001 24.1001 22.0001 22.2001 22.0001C20.3001 22.0001 18.6001 21.5001 17.3001 20.5001C16.1001 21.4001 14.5001 22.0001 12.6001 22.0001C10.7001 22.0001 9.00009 21.5001 7.70009 20.6001C6.90009 21.3001 5.90009 21.7001 4.80009 21.9001C5.00009 28.3001 5.00009 34.7001 5.00009 41.1001ZM30.7001 37.5001C29.5001 37.5001 28.3001 37.5001 27.0001 37.5001C25.3001 37.5001 24.2001 36.4001 24.2001 34.7001C24.2001 31.9001 24.2001 29.1001 24.2001 26.3001C24.2001 24.6001 25.3001 23.5001 27.0001 23.5001C29.4001 23.5001 31.9001 23.5001 34.3001 23.5001C36.0001 23.5001 37.1001 24.6001 37.1001 26.3001V31.8001C37.1001 32.8001 37.1001 33.8001 37.1001 34.7001C37.1001 36.4001 36.0001 37.5001 34.3001 37.5001C33.1001 37.5001 31.9001 37.5001 30.7001 37.5001ZM27.2001 34.5001C29.5001 34.5001 31.8001 34.5001 34.2001 34.5001C34.2001 33.6001 34.2001 32.6001 34.2001 31.7001V26.4001C31.9001 26.4001 29.6001 26.4001 27.2001 26.4001C27.2001 29.1001 27.2001 31.8001 27.2001 34.5001Z" fill="black"/>
</svg>
