<svg width="46" height="47" viewBox="0 0 46 47" fill="none" xmlns="http://www.w3.org/2000/svg">
<path d="M45.4 23.3C45.6 27.7 45.8 32.1 45.9 36.4C46 40.7 43.2 44.7 39.1 46.1C38.2 46.4 37.2 46.6 36.3 46.6C27.5 46.6 18.6 46.6 9.8 46.6C4.4 46.6 0 42.2 0 36.8C0 34.6 0.1 32.3 0.2 30.1C0.4 25.9 0.5 21.7 0.7 17.5C0.8 14.7 0.9 11.9 1 9.1C1.2 4.6 5 0.6 9.5 0.1C10.1 0 10.7 0 11.3 0C19.2 0 27.1 0 35 0C39.6 0 43.6 3.1 44.6 7.6C44.9 8.6 44.9 9.8 44.9 10.8C45 12.9 45.1 15 45.1 17C45.3 19.1 45.3 21.2 45.4 23.3ZM42.3 23.3C42.2 19.6 42 16 41.9 12.3C41.8 10.9 41.9 9.5 41.6 8.2C40.9 5.2 38.4 3.3 35.2 3.3C31.8 3.3 28.3 3.3 24.9 3.3C20.3 3.3 15.7 3.3 11 3.3C7.5 3.3 4.6 6.1 4.5 9.7C4.2 12.1 4.1 14.6 4 17C3.8 23.4 3.5 29.8 3.3 36.2C3.1 40.1 6.1 43.3 10 43.3C18.7 43.3 27.4 43.3 36.1 43.3C36.6 43.3 37.1 43.2 37.6 43.1C40.6 42.4 42.8 39.4 42.7 36.1C42.6 31.8 42.4 27.5 42.3 23.3Z" fill="black"/>
<path d="M22.9 20C16.5 20 11.3 14.9 11.3 8.49998C11.3 7.29998 11.9 6.69998 12.9 6.69998C14 6.69998 14.6 7.29998 14.6 8.49998C14.7 12.8 17.7 16.2 22.1 16.6C26.2 17 29.9 14.5 31 10.4C31.2 9.69998 31.2 8.99998 31.3 8.29998C31.4 7.19998 32 6.59998 33 6.59998C34 6.59998 34.6 7.29998 34.6 8.29998C34.6 14.2 30.2 19.2 24.3 19.8C23.9 19.9 23.4 20 22.9 20Z" fill="#F44336"/>
</svg>
