<svg width="54" height="55" viewBox="0 0 54 55" fill="none" xmlns="http://www.w3.org/2000/svg">
<path d="M31.6001 54.3C30.5001 54.3 29.5 54.3 28.4 54.3C27.2 54.3 26.4 53.5 26.3 52.3C26.3 50.2 26.3 48.1 26.3 45.9C26.3 45.3 26.5 44.8 27 44.3C32.3 39 37.6 33.6 43 28.3C44.9 26.4 47.6001 26.4 49.6001 28.3C50.5001 29.2 51.4 30.1 52.3 31C54.3 33.1 54.3 35.8 52.3 37.8C47.1 43 41.8001 48.3 36.6001 53.5C36.1001 54 35.5 54.3 34.8 54.3C33.6 54.3 32.6001 54.3 31.6001 54.3ZM40.9 35.9C40.9 35.9 40.8 35.9 40.8 36C37.4 39.4 33.9 42.9 30.5 46.3C30.4 46.4 30.3 46.6 30.3 46.7C30.3 47.9 30.3 49 30.3 50.3C31.4 50.3 32.5 50.3 33.5 50.3C33.8 50.3 34.2 50.1 34.4 49.9C37.2 47.2 39.9 44.4 42.7 41.6C43.4 40.9 44.1 40.3 44.7 39.6C43.4 38.4 42.2 37.2 40.9 35.9ZM47.7 36.8C48.3 36.2 49.0001 35.5 49.6001 34.8C49.9001 34.5 49.9001 34.2 49.6001 33.9C48.6001 32.9 47.7 32 46.7 31C46.4 30.7 46.1 30.7 45.8 31C45.1 31.6 44.5 32.3 43.8 32.9C45.1 34.3 46.4 35.5 47.7 36.8Z" fill="#F44336"/>
<path d="M20.5001 27C22.8001 27 25.2001 26.9 27.5001 27C28.8001 27.1 30.1001 27.5 31.4001 27.8C32.4001 28.1 32.9001 29.2 32.6001 30.2C32.3001 31.2 31.3001 31.8 30.2001 31.5C28.1001 30.8 26.0001 30.8 23.9001 30.8C20.8001 30.8 17.7001 30.8 14.6001 30.8C8.70008 30.8 4.10007 35.5 4.20007 41.3C4.20007 42.1 4.20008 42.8 4.30008 43.6C4.60008 45.9 6.00008 47.4 8.30008 47.7C9.00008 47.8 9.60008 47.8 10.3001 47.8C13.7001 47.8 17.0001 47.8 20.4001 47.8C21.3001 47.8 22.1001 48.4 22.3001 49.2C22.5001 50 22.2001 50.9 21.5001 51.3C21.2001 51.5 20.7001 51.6 20.4001 51.6C16.7001 51.6 13.1001 51.7 9.40007 51.6C8.30007 51.6 7.20008 51.4 6.10008 51.1C3.00008 50.2 1.10008 48 0.500075 44.8C-0.299925 40.5 0.400069 36.4 2.90007 32.7C5.10007 29.3 8.40007 27.5 12.4001 27.1C15.1001 26.8 17.8001 26.9 20.5001 26.8C20.5001 26.9 20.5001 26.9 20.5001 27Z" fill="black"/>
<path d="M20.4001 23C14.3001 23 9.40015 18 9.40015 12C9.40015 5.90002 14.3001 0.900024 20.4001 0.900024C26.6001 0.900024 31.6002 5.80002 31.6002 12C31.6002 18.1 26.6001 23 20.4001 23ZM20.4001 19.1C24.4001 19.1 27.6002 15.9 27.6002 12C27.6002 8.00002 24.4001 4.80003 20.4001 4.80003C16.5001 4.80003 13.3002 8.00002 13.3002 11.9C13.3002 15.9 16.5001 19.1 20.4001 19.1Z" fill="black"/>
</svg>
