<svg width="42" height="41" viewBox="0 0 42 41" fill="none" xmlns="http://www.w3.org/2000/svg">
<path d="M36.7 33.4C36.7 32.3 36.7 31.3 36.7 30.2C36.7 28.9 37.3 28.3 38.6 28.3C38.9 28.3 39.1 28.3 39.4 28.3C40.4 28.3 41.1 29 41.1 30C41.1 32.2 41.1 34.4 41.1 36.6C41.1 37.5 41.1 38.3 41.1 39.2C41.1 40.3 40.4 40.9 39.4 40.9C36.3 40.9 33.1 40.9 30 40.9C29 40.9 28.4 40.3 28.3 39.3C28.3 38.9 28.3 38.5 28.3 38.1C28.4 37.1 29 36.5 30 36.5C31 36.5 31.9 36.5 32.9 36.5C33 36.5 33.2 36.5 33.4 36.5C33.2 36.3 33.1001 36.2 33.0001 36.1C31.0001 34.1 29.1 32.2 27.1 30.2C26.2 29.3 26.2 28.4 27.1 27.5C27.3 27.3 27.4 27.2 27.6 27C28.4 26.2 29.3 26.2 30.1 27C32.1 29 34.1 31 36.1 33C36.2 33.1 36.3 33.2 36.4 33.3C36.7 33.4 36.7 33.4 36.7 33.4Z" fill="black"/>
<path d="M33.6 4.4C32.4 4.4 31.3 4.4 30.1 4.4C29.3 4.4 28.6 4 28.5 3.3C28.4 2.6 28.4 1.9 28.5 1.2C28.7 0.5 29.3 0 29.9 0C30.6 0 31.3 0 32.1 0C34.4 0 36.8 0 39.1 0C40.4 0 41 0.6 41 1.9C41 4.9 41 7.9 41 10.8C41 12.1 40.4 12.7 39.1 12.7C38.8 12.7 38.5 12.7 38.3 12.7C37.3 12.7 36.6 12 36.6 11C36.6 9.9 36.6 8.8 36.6 7.5C36.4 7.6 36.3 7.7 36.3 7.8C34.3 9.8 32.4 11.7 30.4 13.7C29.4 14.7 28.6 14.7 27.6 13.7C27.4 13.5 27.3 13.4 27.1 13.2C26.3 12.4 26.3 11.5 27.1 10.7C29.1 8.7 31.1 6.7 33.1 4.7C33.3 4.7 33.4 4.6 33.6 4.4Z" fill="black"/>
<path d="M4.59995 7.7C4.59995 8.8 4.59995 9.9 4.59995 11C4.59995 12.2 3.99995 12.8 2.79995 12.8C2.39995 12.8 2.09995 12.8 1.69995 12.8C0.899951 12.8 0.299951 12.2 0.199951 11.5C0.199951 11.3 0.199951 11.1 0.199951 10.9C0.199951 7.9 0.199951 4.9 0.199951 1.9C0.199951 0.6 0.799951 0 2.09995 0C5.09995 0 7.99995 0 10.9 0C12.2 0 12.8 0.6 12.8 1.9C12.8 2.2 12.8 2.5 12.8 2.7C12.8 3.7 12.1 4.3 11.1 4.3C9.99995 4.3 8.89995 4.3 7.59995 4.3C7.69995 4.5 7.79995 4.6 7.89995 4.6C9.89995 6.6 11.9 8.6 13.9 10.6C14.8 11.5 14.8 12.4 13.9 13.3C13.7 13.5 13.5 13.7 13.3 13.9C12.5 14.6 11.7 14.6 10.9 13.9C10.1 13.1 9.29995 12.3 8.49995 11.5C7.39995 10.4 6.19995 9.2 4.99995 8C4.89995 7.9 4.79995 7.7 4.79995 7.6C4.69995 7.7 4.69995 7.7 4.59995 7.7Z" fill="black"/>
<path d="M7.7 36.5C8.7 36.5 9.6 36.5 10.4 36.5C10.6 36.5 10.9 36.5 11.1 36.5C12.1 36.5 12.8 37.1 12.8 38.2C12.8 38.6 12.8 39.1 12.8 39.5C12.7 40.3 12.1 40.9001 11.3 40.9001C10.8 40.9001 10.3 40.9001 9.8 40.9001C7.2 40.9001 4.6 40.9001 2 40.9001C0.6 40.9001 0 40.0001 0 38.9001C0 36.0001 0 33.1 0 30.1C0 28.9 0.6 28.2 1.9 28.2C2.2 28.2 2.4 28.2 2.7 28.2C3.8 28.2 4.4 28.9 4.4 29.9C4.4 31 4.4 32.1 4.4 33.3C4.6 33.2 4.7 33.1 4.8 33C6.8 31 8.8 29 10.7 27.1C11.6 26.2 12.5 26.2 13.4 27.1C13.6 27.3 13.8 27.5 14 27.7C14.7 28.4 14.7 29.3 14 30C13.8 30.2 13.6 30.4 13.4 30.6C11.6 32.4 9.8 34.2 8 36C8 36.2 7.9 36.3 7.7 36.5Z" fill="black"/>
<path d="M20.6 24.9C18.2 24.9 16.2 22.9 16.2 20.5C16.2 18 18.2 16.1 20.6 16.1C23 16.1 25 18.1 25 20.5C25 22.9 23.1 24.9 20.6 24.9Z" fill="#F44336"/>
</svg>
