<svg width="55" height="50" viewBox="0 0 55 50" fill="none" xmlns="http://www.w3.org/2000/svg">
<path d="M33.7001 0C44.1001 0.1 52.9001 7.5 54.6001 17.7C55.4001 22.5 54.6001 27 52.4001 31.2C52.2001 31.6 52.2001 31.8 52.3001 32.2C53.1001 34.5 53.9001 36.8 54.7001 39.2C55.2001 40.7 54.3001 41.8 52.8001 41.5C50.0001 41 47.2001 40.4 44.4001 39.8C44.2001 39.8 43.9001 39.8 43.7001 39.9C41.9001 40.8 40.0001 41.5 38.0001 42C37.8001 42.1 37.5001 42.2 37.3001 42.4C33.7001 46.5 29.2001 48.9 23.8001 49.6C19.5001 50.1 15.4001 49.3 11.5001 47.4C11.2001 47.3 10.8001 47.2 10.5001 47.3C7.7001 47.8 5.0001 48.4 2.2001 48.9C0.7001 49.2 -0.199894 48.1 0.300106 46.6C1.10011 44.2 2.00011 41.9 2.80011 39.5C2.90011 39.3 2.9001 38.9 2.7001 38.7C-3.1999 27.7 1.4001 14.2 12.9001 9.2C14.2001 8.6 15.6001 8.3 17.0001 7.9C17.3001 7.8 17.6001 7.7 17.7001 7.5C21.2001 3.5 25.6001 1.1 30.9001 0.400002C31.9001 0.100002 32.8001 0.1 33.7001 0ZM4.2001 45.1C4.4001 45.1 4.5001 45.1 4.6001 45.1C6.6001 44.7 8.6001 44.3 10.6001 43.9C11.2001 43.8 11.8001 43.9 12.4001 44.2C16.2001 46.3 20.2001 47 24.5001 46.2C34.0001 44.5 40.5001 35.5 39.0001 26C37.5001 16 28.2001 9.2 18.2001 10.9C6.2001 12.9 -0.399894 26.2 5.30011 37C6.30011 38.8 6.4001 38.4 5.6001 40.8C5.2001 42.2 4.7001 43.6 4.2001 45.1ZM50.9001 37.8C50.8001 37.6 50.8001 37.4 50.7001 37.2C50.1001 35.6 49.6001 34 49.0001 32.4C48.7001 31.7 48.8001 31 49.2001 30.4C51.5001 26.4 52.3001 22.2 51.4001 17.7C48.8001 4.8 33.4001 -1.1 22.9001 6.9C22.7001 7 22.5001 7.2 22.3001 7.4C29.8001 8.1 35.7001 11.4 39.5001 17.9C43.3001 24.3 43.4001 31.1 40.4001 37.9C41.2001 37.6 42.0001 37.1 42.8001 36.8C43.2001 36.6 43.7001 36.5 44.1001 36.5C44.7001 36.5 45.3001 36.7 45.9001 36.8C47.5001 37.2 49.2001 37.5 50.9001 37.8Z" fill="black"/>
<path d="M16.8001 28.5C16.8001 30.4 16.8001 32.2 16.8001 34.1C16.8001 34.9 16.4001 35.5 15.8001 35.7C14.9001 36 13.9001 35.5 13.7001 34.6C13.6001 34.4 13.6001 34.1 13.6001 33.9C13.6001 30.4 13.6001 26.8 13.6001 23.3C13.6001 23.2 13.6001 23.1 13.6001 23C13.6001 22 14.3001 21.3 15.2001 21.3C16.1001 21.3 16.8001 22 16.8001 23C16.8001 24.8 16.8001 26.7 16.8001 28.5Z" fill="#F44336"/>
<path d="M29 28.6C29 29.9 29 31.2 29 32.5C29 33.5 28.4 34.3 27.4 34.3C26.4 34.3 25.8 33.6 25.8 32.5C25.8 29.9 25.8 27.3 25.8 24.7C25.8 23.7 26.5 22.9 27.4 22.9C28.3 22.9 29 23.6 29 24.7C29 26 29 27.3 29 28.6Z" fill="#F44336"/>
<path d="M19.7002 28.5C19.7002 27.8 19.7002 27 19.7002 26.3C19.7002 25.4 20.4002 24.7 21.2002 24.7C22.1002 24.7 22.8002 25.3 22.9002 26.2C22.9002 27.8 22.9002 29.4 22.9002 31C22.9002 31.9 22.1002 32.6 21.2002 32.5C20.3002 32.5 19.7002 31.8 19.7002 30.8C19.7002 30.1 19.7002 29.3 19.7002 28.5Z" fill="#F44336"/>
<path d="M10.6001 28.6C10.6001 29.3 10.6001 30.1 10.6001 30.8C10.6001 31.8 9.90014 32.5 9.00014 32.5C8.10014 32.5 7.40015 31.8 7.40015 30.9C7.40015 29.4 7.40015 27.9 7.40015 26.4C7.40015 25.4 8.10014 24.8 9.00014 24.8C9.90014 24.8 10.6001 25.5 10.6001 26.5C10.6001 27.1 10.6001 27.9 10.6001 28.6Z" fill="#F44336"/>
<path d="M35.2 28.6C35.2 29 35.2 29.3 35.2 29.7C35.2 30.5 34.6 31.2 33.7 31.3C32.9 31.4 32.1 30.8 32 30C31.9 29.1 31.9 28.2 32 27.3C32.1 26.5 32.9 26 33.7 26C34.5 26.1 35.1 26.7 35.1 27.5C35.2 27.8 35.2 28.2 35.2 28.6Z" fill="#F44336"/>
</svg>
