<svg width="50" height="48" viewBox="0 0 50 48" fill="none" xmlns="http://www.w3.org/2000/svg">
<path d="M17 3.60004C18.7 4.40004 20.3 5.30004 22 6.10004C23.5 6.90004 24.9999 7.50004 26.2999 8.70004C28.7999 11 30.1 13.8 30.2 17.1C30.3 23.4 30.2 29.7 30.2 36C30.2 37 29.8999 38.1 29.7999 39C30.9999 39 32.1999 39.1 33.3999 39C35.5999 38.7 37.2999 36.7 37.3999 34.5C37.3999 33.4 37.3999 32.3 37.3999 31.2C37.3999 30.1 38.1 29.4 39 29.4C40 29.4 40.6 30.1 40.6 31.2C40.6 32.8 40.6999 34.4 40.3999 35.9C39.6999 39.6 36.4 42.3 32.7 42.3C31.4 42.3 30 42.3 28.7 42.3C28.3 42.3 28.0999 42.4 27.8999 42.7C25.5999 45.7 22.5999 47.2 18.7999 47.2C17.1999 47.2 15.7 46.7 14.2 46C11.6 44.7 9.09995 43.4 6.49995 42.1C5.59995 41.6 4.59995 41.2 3.69995 40.6C1.69995 39.1 0.699951 36.9 0.699951 34.4C0.699951 25.6 0.699951 16.9 0.699951 8.10004C0.699951 3.80004 4.39996 0.300049 8.59996 0.300049C16.6 0.300049 24.6 0.300049 32.5 0.300049C36.5 0.300049 39.8 2.90005 40.5 6.90005C40.8 8.50005 40.7 10.2 40.7 11.9C40.7 12.7 39.9 13.3 39.1 13.3C38.2 13.3 37.6 12.6 37.6 11.7C37.6 10.7 37.6 9.70005 37.6 8.80005C37.6 5.70005 35.6 3.70004 32.5 3.70004C27.6 3.70004 22.6 3.70004 17.7 3.70004C17.3 3.50004 17.1 3.50004 17 3.60004ZM3.69995 21.3C3.69995 25.5 3.69995 29.7 3.69995 33.9C3.69995 36.1 4.69996 37.7 6.59996 38.7C9.49996 40.2 12.3999 41.6001 15.2999 43.1001C16.8999 43.9001 18.4999 44.2 20.2999 43.9C24.0999 43.2 26.7999 39.9 26.8999 36.1C26.9999 33.5 26.8999 30.9 26.8999 28.4C26.8999 24.7 26.9999 21 26.8999 17.3C26.7999 14.2 25.4 11.8 22.7 10.3C18.7 8.10005 14.6 6.10004 10.5 4.10004C9.29995 3.50004 7.99995 3.50005 6.69995 4.00005C4.69995 4.90005 3.69995 6.60005 3.69995 8.80005C3.69995 12.9 3.69995 17.1 3.69995 21.3Z" fill="black"/>
<path d="M43.6999 23C40.4999 23 37.3998 23 34.2998 23C33.2998 23 32.5999 22.4 32.5999 21.5C32.5999 20.5 33.2998 19.8 34.2998 19.8C36.8998 19.8 39.5999 19.8 42.1999 19.8C42.6999 19.8 43.0999 19.8 43.5999 19.8V19.7C42.7999 19.1 41.9999 18.5 41.1999 17.9C40.7999 17.6 40.4998 17.2 40.4998 16.6C40.4998 16 40.6999 15.4 41.1999 15.1C41.6999 14.8 42.2998 14.7 42.8998 15.1C44.5998 16.4 46.3999 17.6 48.0999 19C49.4999 20.2 49.4999 22.6 48.0999 23.7C46.3999 25 44.6998 26.3 42.9998 27.5C42.2998 28 41.2998 27.8 40.8998 27.1C40.3998 26.4 40.4999 25.4 41.1999 24.9C41.8999 24.3 42.5998 23.8 43.2998 23.3C43.2998 23.2 43.4999 23.1 43.6999 23Z" fill="#F44336"/>
</svg>
