<svg width="46" height="45" viewBox="0 0 46 45" fill="none" xmlns="http://www.w3.org/2000/svg">
<path d="M10.2999 24.0999C10.7999 27.1999 12.2999 29.8999 14.8999 31.8999C17.1999 33.6999 19.8999 34.5999 22.8999 34.5999C26.0999 34.5999 29.2999 33.1999 31.6999 30.7999C33.5999 28.8999 34.7999 26.5999 35.1999 23.9999H42.1999C41.7999 24.0999 41.4999 24.2999 41.1999 24.3999C40.2999 24.6999 39.6999 25.3999 39.3999 26.3999C38.9999 27.8999 38.3999 29.2999 37.5999 30.6999C37.0999 31.4999 36.9999 32.4999 37.4999 33.3999C37.6999 33.8999 37.8999 34.3999 38.0999 34.7999C38.1999 34.9999 38.1999 35.0999 38.2999 35.2999C37.4999 36.0999 36.6999 36.8999 35.9999 37.5999C35.2999 37.2999 34.5999 36.9999 33.8999 36.6999C33.5999 36.5999 33.1999 36.4999 32.8999 36.4999C32.5999 36.4999 31.9999 36.5999 31.4999 36.8999C29.9999 37.6999 28.5999 38.2999 27.0999 38.6999C26.1999 38.8999 25.4999 39.4999 25.1999 40.3999C24.9999 40.8999 24.7999 41.2999 24.6999 41.7999C24.5999 41.9999 24.4999 42.1999 24.4999 42.3999C23.8999 42.3999 23.3999 42.3999 22.7999 42.3999C22.1999 42.3999 21.6999 42.3999 21.1999 42.3999C20.8999 41.6999 20.6999 40.9999 20.3999 40.2999C20.0999 39.4999 19.3999 38.8999 18.5999 38.6999C17.0999 38.2999 15.5999 37.6999 14.2999 36.8999C13.7999 36.5999 13.3999 36.4999 12.8999 36.4999C12.4999 36.4999 12.0999 36.5999 11.6999 36.7999C11.1999 36.9999 10.6999 37.2999 10.1999 37.4999C9.9999 37.5999 9.8999 37.5999 9.6999 37.6999C8.7999 36.7999 8.0999 36.0999 7.3999 35.3999C7.6999 34.6999 7.9999 33.9999 8.2999 33.2999C8.5999 32.4999 8.5999 31.5999 8.0999 30.8999C7.1999 29.3999 6.6999 27.9999 6.2999 26.4999C6.0999 25.5999 5.4999 24.8999 4.5999 24.5999C4.1999 24.4999 3.8999 24.2999 3.4999 24.1999H10.2999M12.1999 22.0999C8.2999 22.0999 4.2999 22.0999 0.399902 22.0999C0.399902 22.9999 0.399902 23.8999 0.399902 24.6999C0.399902 24.9999 0.499902 25.0999 0.799902 25.1999C1.7999 25.5999 2.7999 25.9999 3.7999 26.2999C4.0999 26.3999 4.1999 26.5999 4.2999 26.7999C4.6999 28.4999 5.3999 30.1999 6.2999 31.6999C6.3999 31.8999 6.3999 32.1999 6.2999 32.3999C5.8999 33.3999 5.4999 34.3999 4.9999 35.2999C4.8999 35.4999 4.8999 35.6999 5.0999 35.8999C6.3999 37.1999 7.5999 38.3999 8.8999 39.6999C8.9999 39.7999 9.0999 39.8999 9.1999 39.8999C9.2999 39.8999 9.2999 39.8999 9.3999 39.7999C10.3999 39.3999 11.3999 38.8999 12.2999 38.4999C12.3999 38.3999 12.4999 38.3999 12.5999 38.3999C12.6999 38.3999 12.8999 38.3999 12.9999 38.4999C14.4999 39.3999 16.0999 40.0999 17.7999 40.4999C17.9999 40.5999 18.1999 40.7999 18.2999 40.9999C18.6999 41.9999 19.0999 42.9999 19.4999 43.9999C19.5999 44.2999 19.6999 44.3999 19.9999 44.3999C20.8999 44.3999 21.7999 44.3999 22.6999 44.3999C23.5999 44.3999 24.4999 44.3999 25.2999 44.3999C25.5999 44.3999 25.6999 44.2999 25.7999 43.9999C26.1999 42.9999 26.5999 41.9999 26.8999 40.9999C26.9999 40.6999 27.0999 40.5999 27.3999 40.4999C29.0999 40.0999 30.7999 39.3999 32.2999 38.4999C32.3999 38.3999 32.4999 38.3999 32.6999 38.3999C32.7999 38.3999 32.8999 38.3999 32.9999 38.4999C33.9999 38.8999 34.9999 39.2999 35.8999 39.7999C35.9999 39.7999 36.0999 39.8999 36.1999 39.8999C36.2999 39.8999 36.3999 39.7999 36.4999 39.6999C37.7999 38.3999 38.9999 37.1999 40.2999 35.8999C40.4999 35.6999 40.4999 35.5999 40.3999 35.2999C39.9999 34.2999 39.4999 33.3999 39.0999 32.3999C38.9999 32.0999 38.9999 31.8999 39.0999 31.5999C39.9999 30.0999 40.6999 28.4999 41.0999 26.7999C41.1999 26.4999 41.2999 26.2999 41.5999 26.1999C42.5999 25.7999 43.5999 25.3999 44.5999 24.9999C44.6999 24.8999 44.8999 24.7999 44.8999 24.5999C44.8999 23.6999 44.8999 22.7999 44.8999 21.8999C40.8999 21.8999 36.9999 21.8999 33.0999 21.8999C33.0999 27.8999 27.9999 32.3999 22.6999 32.3999C20.1999 32.3999 17.8999 31.6999 15.9999 30.0999C13.4999 28.2999 12.2999 25.4999 12.1999 22.0999Z" fill="black"/>
<path d="M22.7 19.2999C19.9 19.2999 17.1 19.2999 14.3 19.2999C13.6 19.2999 13.4 19.0999 13.5 18.3999C14.4 13.9999 18.3 10.8999 22.7 10.9999C27.2 10.9999 31 14.0999 31.9 18.4999C32 19.0999 31.8 19.3999 31.2 19.3999C28.4 19.2999 25.6 19.2999 22.7 19.2999Z" fill="#F44336"/>
<path d="M15.1 12.6C13.8 13.9 12.9 15.3 12.4 17C12.4 17.1 12.2 17.2 12 17.2C8.3 17.2 4.7 17.2 1 17.2C0.5 17.2 0.3 17 0.4 16.4C1 13.1 3.8 10.3 7.1 9.79998C10 9.29998 12.5 10.1 14.6 12.1C14.8 12.3 14.9 12.4 15.1 12.6Z" fill="black"/>
<path d="M30.3999 12.5999C31.4999 11.3999 32.7999 10.5999 34.2999 10.0999C38.9999 8.69993 43.9999 11.5999 44.9999 16.4999C45.0999 17.0999 44.9999 17.2999 44.2999 17.2999C40.6999 17.2999 37.0999 17.2999 33.4999 17.2999C33.2999 17.2999 33.0999 17.2999 32.9999 16.9999C32.4999 15.3999 31.5999 13.8999 30.3999 12.6999C30.4999 12.6999 30.4999 12.6999 30.3999 12.5999Z" fill="black"/>
<path d="M29.6 22.1C29.5 24.8 28.3 26.8 26 28.1C23.6 29.4 21.1 29.3 18.8 27.7C16.9 26.4 15.9 24.5 15.8 22.1C20.5 22.1 25.0001 22.1 29.6 22.1Z" fill="#F44336"/>
<path d="M22.7 9.99998C20.1 9.99998 18 7.89998 18 5.29998C18 2.69998 20.1 0.599976 22.8 0.599976C25.4 0.599976 27.5 2.69998 27.5 5.29998C27.5 7.89998 25.4 9.99998 22.7 9.99998Z" fill="#F44336"/>
<path d="M8.6999 8.79996C6.2999 8.79996 4.3999 6.89995 4.3999 4.49995C4.3999 2.19995 6.2999 0.199951 8.6999 0.199951C11.0999 0.199951 12.9999 2.09995 12.9999 4.49995C12.9999 6.89995 11.0999 8.79996 8.6999 8.79996Z" fill="black"/>
<path d="M36.6999 8.79996C34.2999 8.79996 32.3999 6.89995 32.3999 4.49995C32.3999 2.19995 34.2999 0.199951 36.6999 0.199951C39.0999 0.199951 40.9999 2.09995 40.9999 4.49995C40.9999 6.89995 39.0999 8.79996 36.6999 8.79996Z" fill="black"/>
</svg>
