<svg width="42" height="46" viewBox="0 0 42 46" fill="none" xmlns="http://www.w3.org/2000/svg">
<path d="M23.9255 36.25C21.6255 37.35 20.3255 37.35 18.1255 36.25C18.0255 36.35 17.9255 36.55 17.8255 36.65C16.5255 38.95 15.2255 41.15 13.8255 43.45C13.0255 44.85 11.6255 45.45 10.2255 44.95C9.32548 44.65 8.62548 44.05 8.32548 43.25C7.92548 42.35 7.52548 41.35 7.12548 40.45C6.92548 40.05 6.72548 39.95 6.42548 40.05C5.52548 40.15 4.62548 40.25 3.72548 40.45C1.72548 40.75 0.225483 39.55 0.0254834 37.65C-0.0745166 36.95 0.125483 36.35 0.525483 35.75C2.42548 32.55 4.32548 29.25 6.12548 26.05C6.52548 25.35 6.52548 24.85 5.92548 24.25C5.32548 23.65 4.72548 23.05 4.12548 22.45C1.82548 20.15 1.82548 16.85 4.12548 14.55C4.62548 14.05 5.12548 13.55 5.62548 13.05C6.12548 12.55 6.32548 11.95 6.32548 11.25C6.32548 10.35 6.22548 9.45 6.42548 8.55C6.92548 5.85 9.02548 4.05 11.8255 3.95C12.4255 3.95 12.9255 3.95 13.5255 3.95C14.2255 3.95 14.8255 3.75 15.4255 3.25C16.1255 2.65 16.7255 1.95 17.4255 1.35C19.4255 -0.45 22.4255 -0.45 24.5255 1.35C25.2255 1.95 25.8255 2.55 26.4255 3.25C26.9255 3.75 27.5255 4.05 28.2255 4.05C29.2255 4.05 30.2255 4.05 31.1255 4.15C33.5255 4.55 35.2255 6.55 35.3255 9.05C35.3255 9.85 35.3255 10.55 35.3255 11.35C35.3255 12.05 35.5255 12.65 36.0255 13.15C36.6255 13.65 37.1255 14.25 37.7255 14.85C39.8255 17.05 39.8255 20.25 37.7255 22.45C37.2255 22.95 36.6255 23.55 36.1255 24.05C35.9255 24.25 35.8255 24.45 35.6255 24.65C35.4255 25.05 35.3255 25.35 35.6255 25.85C37.5255 29.15 39.5255 32.45 41.4255 35.85C42.4255 37.55 41.8255 39.45 40.2255 40.35C39.5255 40.75 38.8255 40.75 38.0255 40.65C37.1255 40.55 36.3255 40.45 35.4255 40.25C35.1255 40.15 34.9255 40.35 34.8255 40.65C34.4255 41.55 34.1255 42.45 33.7255 43.35C33.2255 44.45 32.3255 45.15 31.1255 45.25C29.8255 45.35 28.8255 44.85 28.1255 43.65C26.8255 41.35 25.5255 39.15 24.2255 36.85C24.1255 36.55 24.0255 36.35 23.9255 36.25ZM13.0255 7.15C12.5255 7.15 12.0255 7.15 11.6255 7.15C10.4255 7.25 9.72548 8.05 9.62548 9.25C9.62548 9.95 9.62548 10.65 9.62548 11.35C9.62548 12.75 9.12548 13.95 8.22548 14.95C7.62548 15.55 7.02548 16.15 6.42548 16.85C5.32548 17.95 5.42548 19.05 6.42548 20.15C6.92548 20.65 7.52548 21.25 8.02548 21.75C8.82548 22.55 9.42548 23.55 9.52548 24.85C9.62548 25.75 9.62548 26.65 9.62548 27.55C9.62548 28.95 10.5255 29.75 11.9255 29.75C12.6255 29.75 13.3255 29.75 14.0255 29.75C15.3255 29.75 16.4255 30.25 17.4255 31.15C18.0255 31.75 18.6255 32.35 19.2255 32.95C20.3255 34.05 21.5255 34.05 22.6255 32.95C23.2255 32.35 23.8255 31.65 24.5255 31.05C25.4255 30.15 26.5255 29.75 27.8255 29.75C28.5255 29.75 29.2255 29.75 30.0255 29.75C31.4255 29.75 32.2255 28.85 32.2255 27.55C32.2255 26.95 32.2255 26.35 32.2255 25.75C32.2255 24.15 32.7255 22.75 33.9255 21.65C34.5255 21.15 35.0255 20.55 35.5255 20.05C36.4255 19.15 36.4255 17.85 35.5255 16.95C34.9255 16.35 34.4255 15.85 33.8255 15.25C32.7255 14.15 32.1255 12.85 32.2255 11.25C32.2255 10.65 32.2255 10.05 32.2255 9.45C32.2255 8.05 31.4255 7.15 29.9255 7.15C29.3255 7.15 28.8255 7.15 28.2255 7.15C26.6255 7.15 25.2255 6.65 24.1255 5.45C23.5255 4.85 23.0255 4.35 22.4255 3.75C21.5255 2.95 20.3255 2.95 19.4255 3.75C19.0255 4.15 18.5255 4.55 18.1255 5.05C16.7255 6.55 15.0255 7.35 13.0255 7.15ZM38.8255 37.25C37.4255 34.85 36.1255 32.55 34.8255 30.25C33.6255 32.25 31.8255 33.05 29.6255 32.95C29.1255 32.95 28.7255 32.95 28.2255 32.95C27.6255 32.95 27.1255 33.15 26.7255 33.55C26.4255 33.75 26.4255 33.95 26.6255 34.25C28.0255 36.55 29.3255 38.95 30.7255 41.25C30.8255 41.35 30.9255 41.45 31.0255 41.65C31.4255 40.65 31.8255 39.65 32.2255 38.75C32.9255 37.15 34.1255 36.45 35.8255 36.65C36.6255 37.05 37.7255 37.15 38.8255 37.25ZM7.22548 30.35C5.92548 32.65 4.62548 34.95 3.22548 37.25C4.32548 37.15 5.22548 37.05 6.22548 36.85C8.12548 36.55 9.22548 37.25 10.0255 39.05C10.4255 39.95 10.8255 40.85 11.2255 41.85C12.7255 39.15 14.2255 36.55 15.7255 33.95C15.2255 33.25 14.5255 32.95 13.6255 32.95C12.7255 32.95 11.7255 32.95 10.8255 32.85C9.22548 32.65 8.12548 31.75 7.22548 30.35Z" fill="black"/>
<path d="M19.6255 19.55C20.8255 18.35 22.0255 17.15 23.2255 15.95C23.9255 15.25 24.6255 14.45 25.4255 13.75C26.1255 13.05 27.1255 13.05 27.7255 13.65C28.3255 14.25 28.3255 15.25 27.6255 15.95C25.3255 18.25 23.0255 20.55 20.8255 22.75C20.0255 23.55 19.1255 23.55 18.3255 22.75C17.2255 21.65 16.1255 20.55 15.0255 19.45C14.3255 18.75 14.3255 17.75 14.9255 17.15C15.6255 16.45 16.5255 16.55 17.3255 17.25C18.0255 18.05 18.8255 18.85 19.6255 19.55Z" fill="#F44336"/>
</svg>
