<svg width="52" height="53" viewBox="0 0 52 53" fill="none" xmlns="http://www.w3.org/2000/svg">
<path d="M14 26.7001C14 24.5001 14 22.4001 14 20.2001C14 19.9001 14.1 19.7001 14.4 19.5001C18.1 17.4001 21.9 15.2001 25.6 13.0001C25.9 12.8001 26.1 12.8001 26.5 13.0001C30.2 15.2001 34 17.3001 37.8 19.5001C38.1 19.7001 38.2 19.8001 38.2 20.2001C38.2 24.6001 38.2 28.9001 38.2 33.3001C38.2 33.6001 38.1 33.8001 37.8 34.0001C34 36.2001 30.3 38.3001 26.5 40.5001C26.2 40.7001 26 40.6001 25.7 40.5001C22 38.3001 18.2 36.2001 14.4 34.0001C14.1 33.8001 14 33.6001 14 33.3001C14 31.0001 14 28.8001 14 26.7001ZM18.5 20.6001C18.7 20.7001 18.8 20.8001 18.9 20.8001C21.1 22.1001 23.4 23.4001 25.6 24.7001C25.9 24.9001 26.2 24.9001 26.5 24.7001C28.7 23.4001 30.9 22.1001 33.2 20.8001C33.3 20.7001 33.4 20.6001 33.6 20.6001C33.5 20.5001 33.5 20.5001 33.4 20.5001C31 19.1001 28.7 17.8001 26.3 16.4001C26.1 16.3001 25.8 16.3001 25.7 16.4001C23.5 17.7001 21.2 19.0001 19 20.3001C18.8 20.4001 18.7 20.5001 18.5 20.6001ZM17 23.2001C17 23.3001 17 23.4001 17 23.5001C17 26.2001 17 28.9001 17 31.6001C17 31.8001 17.2 32.0001 17.3 32.1001C19.6 33.4001 21.8 34.7001 24.1 36.0001C24.2 36.1001 24.3 36.1001 24.5 36.2001C24.5 36.0001 24.5 35.8001 24.5 35.7001C24.5 33.1001 24.5 30.6001 24.5 28.0001C24.5 27.7001 24.4 27.5001 24.1 27.3001C21.9 26.0001 19.6 24.7001 17.4 23.5001C17.3 23.4001 17.2 23.3001 17 23.2001ZM35.1 23.2001C34.9 23.3001 34.9 23.3001 34.8 23.3001C32.5 24.6001 30.2 26.0001 27.8 27.3001C27.5 27.5001 27.5 27.7001 27.5 27.9001C27.5 30.5001 27.5 33.1001 27.5 35.7001C27.5 35.8001 27.5 36.0001 27.5 36.1001C27.7 36.0001 27.8 35.9001 27.9 35.9001C30.1 34.6001 32.3 33.3001 34.6 32.1001C34.9 31.9001 35 31.7001 35 31.3001C35 28.9001 35 26.4001 35 24.0001C35.1 23.8001 35.1 23.6001 35.1 23.2001Z" fill="#F44336"/>
<path d="M48.6998 26.7001C49.6998 26.7001 50.6998 26.7001 51.6998 26.7001C51.6998 27.6001 51.5998 28.4001 51.5998 29.3001C50.9998 35.2001 48.5998 40.4001 44.3998 44.7001C40.1998 49.0001 35.0998 51.5001 29.0998 52.2001C20.6998 53.1001 13.5998 50.5001 7.59982 44.5001C7.39982 44.3001 7.19982 44.3001 6.99982 44.3001C4.19982 45.2001 1.29982 43.6001 0.599817 40.8001C-0.100183 38.0001 1.69982 35.3001 4.59982 34.8001C6.49982 34.5001 8.19982 35.1001 9.39982 36.7001C10.5998 38.3001 10.7998 40.0001 9.89982 41.8001C9.69982 42.2001 9.79982 42.4001 9.99982 42.6001C13.7998 46.4001 18.3998 48.6001 23.7998 49.2001C35.3998 50.5001 46.0998 42.5001 48.2998 31.1001C48.5998 29.7001 48.5998 28.4001 48.6998 27.0001C48.6998 26.9001 48.6998 26.8001 48.6998 26.7001ZM5.39982 37.7001C4.29982 37.7001 3.39982 38.5001 3.39982 39.6001C3.39982 40.7001 4.29982 41.6001 5.29982 41.6001C6.39982 41.6001 7.29982 40.7001 7.29982 39.7001C7.29982 38.6001 6.39982 37.7001 5.39982 37.7001Z" fill="black"/>
<path d="M3.2999 26.7C2.3999 26.7 1.3999 26.7 0.399902 26.7C0.499902 25.5 0.499898 24.4 0.699898 23.3C1.9999 14.6 6.4999 8.10005 14.1999 3.90005C23.9999 -1.39995 36.2999 0.600046 44.1999 8.40005C44.4999 8.70005 44.6999 8.80005 45.0999 8.60005C47.7999 7.60005 50.7999 9.10005 51.5999 11.8C52.3999 14.5 50.7999 17.4 47.9999 18C45.1999 18.7 42.3999 16.8 41.8999 14C41.6999 12.9 41.8999 11.9 42.3999 10.9C37.1999 5.30005 28.3999 2.10005 19.5999 4.90005C9.1999 8.40005 4.0999 15.9 3.2999 26.7ZM46.6999 15.3C47.7999 15.3 48.5999 14.4 48.5999 13.4C48.5999 12.3 47.6999 11.5 46.6999 11.4C45.5999 11.4 44.6999 12.3 44.6999 13.4C44.7999 14.4 45.6999 15.3 46.6999 15.3Z" fill="black"/>
</svg>
