<?xml version="1.0" encoding="UTF-8"?>
<svg id="Layer_2" xmlns="http://www.w3.org/2000/svg" viewBox="0 0 45.35 45.39">
  <defs>
    <style>
      .cls-1 {
        fill: #f44336;
      }
    </style>
  </defs>
  <g id="Layer_1-2" data-name="Layer_1">
    <g>
      <path d="M8.83,38.26c1.48-6.48,6.98-10.86,13.25-11.12,7-.3,13.04,4.53,14.48,11.15.1-.08.2-.14.28-.21,3.98-3.73,6.23-8.3,6.67-13.75.35-4.36-.61-8.43-2.8-12.22-.11-.19-.21-.39-.25-.61-.07-.39.18-.77.54-.92.4-.16.84-.03,1.08.37.4.69.8,1.38,1.13,2.1,5.89,12.56-.77,27.43-14.07,31.39C16.27,48.28,2.83,40.05.38,26.84-1.75,15.33,5.21,4.03,16.5.91c7.21-1.99,13.9-.68,19.93,3.78.52.39.63.89.31,1.33-.31.43-.86.47-1.37.09-2.74-2.08-5.79-3.46-9.19-4-6.09-.96-11.64.39-16.45,4.24C4.22,10.77,1.55,16.62,1.83,23.69c.22,5.65,2.5,10.43,6.62,14.31.09.08.17.16.27.23.02.02.05.01.12.03ZM22.6,43.6c4.39-.03,8.32-1.24,11.9-3.65.4-.27.45-.53.37-.94-1.52-7.65-9.26-12.05-16.56-9.3-4.34,1.63-6.9,4.86-7.84,9.4-.07.36,0,.57.33.8,3.59,2.45,7.55,3.66,11.8,3.7Z"/>
      <path class="cls-1" d="M30.65,17.42c-.01,4.39-3.6,7.95-8,7.94-4.39-.01-7.95-3.6-7.94-8,.01-4.39,3.6-7.95,8-7.94,4.39.01,7.95,3.6,7.94,8ZM22.67,23.59c3.41,0,6.2-2.78,6.2-6.19,0-3.41-2.78-6.2-6.19-6.2-3.41,0-6.2,2.78-6.2,6.19,0,3.41,2.78,6.2,6.19,6.2Z"/>
      <path class="cls-1" d="M39.86,8.16c.01.49-.4.91-.89.9-.47,0-.87-.39-.88-.86-.01-.49.39-.9.88-.9.47,0,.87.39.88.86Z"/>
    </g>
  </g>
</svg>