<svg width="46" height="46" viewBox="0 0 46 46" fill="none" xmlns="http://www.w3.org/2000/svg">
<path d="M5.60007 32.7C5.60007 32.1 5.60007 31.5 5.60007 30.8C5.50007 30.1 5.20007 29.4 4.60007 28.9C4.00007 28.3 3.40005 27.7 2.80005 27.1C0.300049 24.5 0.300049 20.6 2.80005 18C3.30005 17.4 3.90005 16.9 4.40005 16.4C5.20005 15.6 5.50006 14.7 5.50006 13.7C5.50006 12.4 5.50007 11.1 5.70007 9.79997C6.30007 6.89997 8.90005 4.89997 11.8 4.89997C12.6 4.89997 13.5 4.89997 14.3 4.89997C15.3 4.89997 16.2001 4.59998 16.9001 3.79998C17.5001 3.19998 18.1001 2.59998 18.6001 2.09998C21.2001 -0.400024 25.1001 -0.400024 27.6001 2.09998C28.2001 2.69998 28.8001 3.29997 29.4001 3.89997C30.1001 4.59997 31.0001 4.89998 32.0001 4.99998C33.3001 4.99998 34.7001 4.99998 36.0001 5.19998C38.9001 5.79998 40.9001 8.39997 40.9001 11.3C40.9001 12.2 40.9001 13 40.9001 13.9C40.9001 14.9 41.2001 15.7 41.9001 16.4C42.5001 17 43.0001 17.5 43.6001 18.1C46.2001 20.7 46.2001 24.7 43.6001 27.3C43.1001 27.9 42.5001 28.4 42.0001 28.9C41.2001 29.6 40.9001 30.5 40.9001 31.6C40.9001 32.9 40.9001 34.2 40.7001 35.5C40.1001 38.3 37.5001 40.4 34.6001 40.4C33.7001 40.4 32.9001 40.4 32.0001 40.4C31.1001 40.4 30.3001 40.7 29.6001 41.3C29.0001 41.9 28.4 42.5 27.8 43.1C25.1 45.7 21.2001 45.7 18.5001 43.1C17.9001 42.5 17.4 42 16.8 41.4C16.1 40.7 15.3001 40.4 14.4001 40.4C13.2001 40.4 12.0001 40.4 10.9001 40.3C7.90005 39.9 5.50006 37.2 5.50006 34.2C5.60006 33.6 5.60007 33.2 5.60007 32.7ZM8.90005 32.4C8.80005 32.5 8.80005 32.4 8.90005 32.4C8.80005 32.8 8.80005 33.1 8.80005 33.5C8.80005 35.7 10.1001 37 12.4001 37.1C13.1001 37.1 13.9001 37.1 14.6001 37.1C16.4001 37.1 17.9001 37.7 19.2001 39C19.8001 39.6 20.3001 40.1 20.9001 40.7C22.4001 42.2 24.3 42.2 25.8 40.7C26.4 40.1 26.9001 39.6 27.5001 39C28.5001 38.1 29.6001 37.4 31.0001 37.3C32.1001 37.2 33.3001 37.2 34.5001 37.2C36.5001 37.2 37.8 35.8 37.8 33.9C37.8 33.1 37.8 32.2 37.8 31.4C37.8 29.7 38.4001 28.2 39.6001 26.9C40.2001 26.3 40.8001 25.7 41.4001 25C42.7001 23.6 42.7001 21.7 41.4001 20.4C40.8001 19.8 40.2001 19.2 39.6001 18.5C38.7001 17.5 38.0001 16.4 37.9001 15C37.8001 14 37.8 12.9 37.8 11.8C37.8 9.39997 36.5001 8.09998 34.2001 8.09998C33.5001 8.09998 32.8001 8.09998 32.1001 8.09998C30.3001 8.09998 28.7001 7.39998 27.4001 6.19998C26.8001 5.59998 26.3001 5.09998 25.7001 4.49998C24.3001 3.09998 22.4001 3.09998 21.0001 4.49998C20.4001 5.09998 19.8001 5.69997 19.2001 6.29997C18.2001 7.29997 17.0001 7.89998 15.6001 8.09998C14.5001 8.19998 13.4001 8.19998 12.2001 8.19998C10.2001 8.19998 8.80005 9.59998 8.80005 11.6C8.80005 12.4 8.80005 13.2 8.80005 14C8.80005 15.8 8.20005 17.3 6.90005 18.6C6.30005 19.2 5.70007 19.8 5.10007 20.4C3.70007 21.8 3.70007 23.7 5.10007 25.1C5.70007 25.7 6.30005 26.3 6.90005 26.9C7.80005 27.8 8.40007 28.9 8.60007 30.1C8.80007 30.8 8.80005 31.6 8.90005 32.4Z" fill="black"/>
<path d="M13.6001 16.2C13.6001 13.5 15.8001 11.4 18.4001 11.4C21.1001 11.4 23.3001 13.6 23.2001 16.2C23.2001 18.9 21.0001 21 18.4001 21C15.8001 21 13.6001 18.8 13.6001 16.2ZM18.5001 14.5C17.6001 14.5 16.9001 15.2 16.9001 16.1C16.9001 17 17.6001 17.7 18.5001 17.7C19.4001 17.7 20.1001 17 20.1001 16.1C20.1001 15.3 19.3001 14.5 18.5001 14.5Z" fill="#F44336"/>
<path d="M23.3 29C23.3 26.3 25.5001 24.2 28.2001 24.2C30.9001 24.2 33.0001 26.3999 33.0001 29.0999C33.0001 31.7999 30.8001 33.9 28.1001 33.9C25.5001 33.9 23.3 31.7 23.3 29ZM28.2001 27.4C27.3001 27.4 26.6001 28.1 26.6001 29C26.6001 29.9 27.3001 30.5999 28.2001 30.5999C29.1001 30.5999 29.8 29.9 29.8 29C29.8 28.2 29.0001 27.5 28.2001 27.4Z" fill="#F44336"/>
<path d="M17.1999 30.3C16.4999 30.3 15.9999 30 15.7999 29.4C15.4999 28.8 15.5999 28.3 15.9999 27.7C16.0999 27.6 16.1999 27.5 16.2999 27.4C20.1999 23.5 24.1999 19.5 28.0999 15.6C28.4999 15.2 28.9999 14.9 29.6999 15C30.8999 15.2 31.3999 16.6 30.6999 17.5C30.5999 17.6 30.4999 17.8 30.3999 17.9C26.4999 21.8 22.5999 25.7 18.5999 29.7C18.1999 30 17.7999 30.3 17.1999 30.3Z" fill="#F44336"/>
</svg>
