<svg width="44" height="44" viewBox="0 0 44 44" fill="none" xmlns="http://www.w3.org/2000/svg">
<path d="M25.1001 13.2C25.1001 16.8 25.1001 20.4 25.1001 24C25.1001 25.2 24.6001 25.6 23.5001 25.6C16.3001 25.6 9.10005 25.6 1.90005 25.6C0.700055 25.6 0.300049 25.1 0.300049 24C0.500049 13.4 7.70006 4.20005 17.9001 1.50005C19.7001 1.00005 21.5001 0.800049 23.4001 0.800049C24.6001 0.800049 25.1001 1.20005 25.1001 2.40005C25.1001 6.00005 25.1001 9.60005 25.1001 13.2Z" fill="#F44336"/>
<path d="M25.1001 44C25.1001 43.8 25.1001 43.7 25.1001 43.6C25.1001 40.7 25.1001 37.8 25.1001 34.9C25.1001 34.6 25.2001 34.5 25.5001 34.4C29.9001 33.5 32.7001 30.9 33.9001 26.5V26.4C34.1001 25.5 34.1001 25.5 35.0001 25.5C37.7001 25.5 40.4001 25.5 43.0001 25.5C43.2001 25.5 43.3001 25.5 43.5001 25.5C43.1001 34.9 35.3001 43.4 25.1001 44Z" fill="black"/>
<path d="M22.5 44C20.9 43.9 19.3 43.6 17.8 43.1C14.2 41.9 11.1 39.9 8.70002 37C7.00002 35 5.7 32.7 4.9 30.2C4.6 29.3 5.20002 28.5 6.20002 28.5C7.10002 28.5 8 28.5 8.9 28.5C10.4 28.5 11.8 28.5 13.3 28.5C14 28.5 14.5 28.7 14.9 29.4C16.1 31.4 17.8 32.9 20 33.8C20.7 34.1 21.5 34.2 22.3 34.4C22.5 34.5 22.6 34.5 22.6 34.8C22.6 37.8 22.6 40.8 22.6 43.9C22.6 43.9 22.5 43.9 22.5 44Z" fill="black"/>
<path d="M43.6001 23.0001C43.4001 23.0001 43.3001 23.0001 43.1001 23.0001C40.2001 23.0001 37.4001 23.0001 34.5001 23.0001C34.1001 23.0001 34.0001 22.9001 33.9001 22.5001C33.4001 19.8001 32.1001 17.7001 30.0001 16.0001C29.6001 15.7001 29.2001 15.5001 28.8001 15.2001C28.3001 14.9001 28.1001 14.5001 28.1001 13.9001C28.1001 11.5001 28.1001 9.10007 28.1001 6.70007C28.1001 5.60007 28.9001 5.10007 29.9001 5.40007C35.2001 7.20007 39.1001 10.6001 41.6001 15.6001C42.8001 17.9001 43.4001 20.4001 43.6001 23.0001Z" fill="black"/>
</svg>
