<?xml version="1.0" encoding="UTF-8"?>
<svg id="Layer_2" xmlns="http://www.w3.org/2000/svg" viewBox="0 0 46 41.64">
  <defs>
    <style>
      .cls-1 {
        fill: #f44336;
      }
    </style>
  </defs>
  <g id="Layer_1-2" data-name="Layer_1">
    <g>
      <path class="cls-1" d="M33.95,14.64c-2.76,3.85-8.17,3.86-10.95,0-1.37,1.84-3.17,2.9-5.48,2.89-2.3,0-4.09-1.04-5.46-2.9-.16.2-.29.37-.43.54-1.73,2.1-4.62,2.9-7.19,2C1.84,16.27.05,13.82.02,11.1c-.01-1.08-.04-2.16.02-3.23.02-.36.17-.79.42-1.04C2.55,4.67,4.68,2.54,6.84.44c.27-.26.76-.41,1.15-.41C11.1,0,14.21,0,17.32,0c6.84,0,13.68,0,20.52,0,.65,0,1.13.19,1.59.65,1.99,2.03,4,4.03,6.02,6.03.38.38.56.78.55,1.32-.05,1.31.08,2.65-.12,3.94-.41,2.79-2.08,4.64-4.78,5.36-2.71.73-5.02-.12-6.83-2.27-.1-.12-.19-.24-.31-.39ZM3.79,6.54h38.33c-.03-.07-.03-.11-.05-.13-1.33-1.33-2.65-2.67-3.99-3.99-.13-.12-.36-.19-.54-.19-9.68,0-19.36,0-29.04,0-.17,0-.4.04-.51.15-1.38,1.35-2.74,2.72-4.18,4.16ZM11.03,8.83H2.24c0,.9-.07,1.78.01,2.63.21,2.17,1.93,3.73,4.14,3.88,2,.13,3.96-1.28,4.4-3.33.21-1.02.16-2.09.23-3.19ZM35.09,8.82c0,.91-.07,1.8.01,2.67.17,1.78,1.45,3.23,3.16,3.69,1.73.47,3.52-.14,4.62-1.54,1.14-1.45.91-3.14.9-4.82h-8.7ZM21.94,8.83h-8.79c0,.78-.01,1.51,0,2.24.05,2.25,1.75,4.03,4.06,4.25,2.08.2,4.13-1.26,4.55-3.39.19-1,.13-2.06.18-3.11ZM24.12,8.82c0,.81-.02,1.56,0,2.31.07,2.12,1.68,3.9,3.74,4.16,2.21.28,4.26-.98,4.78-3.1.26-1.07.21-2.22.3-3.37h-8.82Z"/>
      <path d="M15.33,39.4c0-.25,0-.45,0-.65,0-2.94,0-5.88,0-8.83,0-2.28,1.36-3.63,3.64-3.64,2.69,0,5.37,0,8.06,0,2.31,0,3.65,1.36,3.65,3.68,0,2.93,0,5.85,0,8.78v.68h.58c2.27,0,4.55,0,6.82,0,2.18,0,3.52-1.34,3.52-3.52,0-4.76,0-9.51,0-14.27,0-1,.39-1.53,1.11-1.53.72,0,1.1.53,1.1,1.54,0,4.76,0,9.51,0,14.27,0,2.81-1.72,5-4.36,5.58-.45.1-.92.13-1.38.13-2.72.01-5.44,0-8.16,0-1.06,0-1.45-.39-1.45-1.46,0-3.42,0-6.84,0-10.26,0-1.08-.34-1.42-1.4-1.42-2.72,0-5.44,0-8.16,0-1,0-1.36.36-1.36,1.36,0,3.42,0,6.84,0,10.26,0,1.14-.37,1.52-1.49,1.52-2.72,0-5.44,0-8.16,0-2.79-.01-4.96-1.7-5.55-4.33-.1-.46-.14-.95-.14-1.42,0-4.77,0-9.55,0-14.32,0-.19,0-.38.04-.56.11-.52.54-.88,1.05-.89.53,0,.98.35,1.08.91.04.22.04.44.04.66,0,4.77,0,9.55,0,14.32,0,1.7.97,2.97,2.54,3.34.23.05.47.08.71.08,2.45,0,4.89,0,7.34,0,.08,0,.17-.01.33-.03Z"/>
    </g>
  </g>
</svg>