<?xml version="1.0" encoding="UTF-8"?>
<svg id="Layer_2" xmlns="http://www.w3.org/2000/svg" viewBox="0 0 36.88 36.88">
  <defs>
    <style>
      .cls-1 {
        fill: #f44336;
      }
    </style>
  </defs>
  <g id="Layer_1-2" data-name="Layer_1">
    <g>
      <path class="cls-1" d="M.02,18.44c-.06-1.04.05-2.04.62-2.94.85-1.35,2.08-2.05,3.68-2.1.23,0,.46.04.68-.01.18-.04.41-.15.47-.29.06-.16,0-.42-.09-.59-.1-.18-.29-.31-.44-.47-1.71-1.75-1.72-4.41,0-6.14.58-.58,1.17-1.2,1.85-1.64,1.58-1.03,3.67-.79,5.07.47.21.18.4.38.59.58.18.19.38.29.64.18.26-.11.33-.32.32-.58-.04-.85.03-1.68.43-2.45C14.65.9,15.92.06,17.67.01c.86-.02,1.74-.03,2.57.15,1.88.4,3.22,2.15,3.25,4.07,0,.25-.04.51.01.75.04.18.16.41.3.47.16.06.42,0,.58-.1.22-.14.38-.36.57-.54,1.71-1.58,4.21-1.6,5.9-.02.64.6,1.28,1.22,1.75,1.94,1.07,1.65.81,3.78-.54,5.21-.17.18-.4.33-.52.55-.1.17-.16.44-.1.61.05.13.3.25.48.28.58.08,1.18.04,1.75.17,1.83.43,3.2,2.16,3.21,4.04,0,.88.03,1.79-.16,2.65-.4,1.88-2.15,3.21-4.08,3.24-.11,0-.22.01-.32,0-.49-.06-.82.07-1.07.56-.33.64-1.17.84-1.82.52-.66-.32-.97-1.09-.72-1.8.44-1.21,1.67-2.11,2.97-2.15.3-.01.6,0,.9,0,.8-.02,1.4-.63,1.42-1.43.01-.48,0-.96,0-1.44-.02-.84-.63-1.42-1.47-1.45-.54-.02-1.09,0-1.6-.14-2.44-.66-3.27-3.74-1.54-5.57.19-.2.39-.39.58-.59.55-.6.55-1.42,0-2.01-.34-.36-.69-.71-1.04-1.04-.61-.58-1.38-.57-2,0-.2.19-.38.4-.59.58-1.08.96-2.31,1.2-3.64.64-1.33-.56-2.01-1.61-2.08-3.06-.01-.26,0-.53,0-.79-.03-.78-.63-1.38-1.41-1.4-.48-.01-.96,0-1.44,0-.84.01-1.44.62-1.47,1.46-.01.44,0,.89-.07,1.33-.24,1.29-1.02,2.15-2.26,2.57-1.23.42-2.34.17-3.32-.67-.23-.19-.43-.42-.64-.63-.63-.59-1.41-.6-2.03,0-.35.33-.69.67-1.02,1.02-.58.6-.58,1.43,0,2.04.16.17.34.34.51.51,1,1.08,1.27,2.33.7,3.69-.57,1.36-1.64,2.05-3.12,2.09-.25,0-.5,0-.76,0-.76.03-1.36.63-1.38,1.39-.02.5-.01,1.01,0,1.51.02.79.63,1.39,1.44,1.41.44.01.89,0,1.33.07,1.19.21,2.02.91,2.49,2.01.32.74,0,1.55-.7,1.89-.71.34-1.53.07-1.9-.66-.17-.33-.39-.44-.75-.42-1.14.07-2.2-.18-3.11-.9-1.08-.85-1.65-1.97-1.69-3.35,0-.26,0-.53,0-.79Z"/>
      <path d="M23.38,23.79c1.19.51,2.26,1.14,3.22,1.95.16.13.31.26.46.4.6.57.66,1.45.13,2.04-.53.6-1.4.67-2.03.12-.77-.67-1.6-1.26-2.54-1.69-5.55-2.56-12.1.55-13.55,6.44-.14.58.13.95.72.95,5.82,0,11.64,0,17.46,0,.56,0,.83-.33.74-.88-.13-.82.38-1.55,1.18-1.69.77-.13,1.5.4,1.66,1.2.44,2.22-1.21,4.25-3.48,4.26-3.64.01-7.27,0-10.91,0-2.21,0-4.42,0-6.62,0-2.51,0-4.19-2.12-3.54-4.55,1.04-3.9,3.43-6.69,7.08-8.4.09-.04.19-.09.29-.13-3.56-3.31-2.66-8.41.12-10.78,2.9-2.46,7.09-2.36,9.78.27,2.77,2.71,3.05,7.43-.18,10.5ZM18.53,14.12c-2.37,0-4.31,1.94-4.32,4.3,0,2.38,1.94,4.34,4.32,4.34,2.37,0,4.31-1.94,4.32-4.3,0-2.38-1.94-4.34-4.32-4.34Z"/>
    </g>
  </g>
</svg>