<svg width="55" height="50" viewBox="0 0 55 50" fill="none" xmlns="http://www.w3.org/2000/svg">
<path d="M23.7001 13.6L28.5001 21.9L33.1001 29.8C31.5001 30.1 29.8001 30.5 28.1001 31.1C26.1001 31.8 24.1001 32.5001 22.2001 33.2001C22.1001 33.2001 22.0001 33.3 22.0001 33.3L15.2001 21.5C15.3001 21.5 15.3001 21.4 15.4001 21.4C17.0001 20.1 18.6001 18.7 20.2001 17.3C21.3001 16.2 22.5001 15 23.7001 13.6ZM24.1001 8.30005C22.2001 10.8 20.3001 13 18.1001 15C15.9001 17 13.6 18.8 11.3 20.8C14.4 26.2 17.6001 31.7 20.7001 37C23.6001 36 26.3001 34.9 29.1001 34C31.9001 33.1 34.8001 32.5 37.9001 32.1C33.2001 24.1 28.7001 16.3 24.1001 8.30005Z" fill="#F44336"/>
<path d="M8.90003 22C7.00003 23.1 5.00005 24.1 3.20005 25.4C0.300048 27.4 -0.599958 31.3 1.10004 34.4C1.90004 35.9 2.80005 37.4 3.70005 38.9C5.00005 41 7.30005 42.2 9.70005 42.2C10.7 42.2 11.7 42 12.6 41.5C14.5 40.6 16.4 39.4 18.3 38.3C15.2 32.9 12.1 27.5 8.90003 22Z" fill="black"/>
<path d="M40.2001 20.3999C41.8001 23.1999 43.4001 25.8999 45.0001 28.6999C45.4001 29.3999 45.6 30.0999 45.4 30.8999C45.1 31.9999 44.3001 32.6999 43.2001 32.8999C42.1001 33.0999 41.1001 32.5999 40.5001 31.5999C39.4001 29.6999 38.3001 27.7999 37.2001 25.8999C33.5001 19.4999 29.8001 13.0999 26.1001 6.69995C25.3001 5.39995 25.6 3.89995 26.8 3.09995C28.1 2.19995 29.8001 2.59995 30.7001 3.99995C32.2001 6.59995 33.7001 9.19995 35.2001 11.7999C35.3001 11.9999 35.4001 12.0999 35.5001 12.2999C36.9001 11.3999 38.4001 10.9999 40.0001 11.4999C41.1001 11.8999 42.0001 12.5999 42.6001 13.5999C44.0001 15.8999 43.2001 18.1999 40.2001 20.3999Z" fill="black"/>
<path d="M21.3999 39.8C21.2999 39.8 21.3 39.8 21.2 39.8C19.4 40.8 17.6 41.8001 15.7 42.9001C18 45.2001 20.1999 47.4 22.3999 49.6C22.6999 49.9 23.0999 50 23.4999 50C23.8999 50 24.3 49.8 24.7 49.5C25.5 48.8 26.1999 48 26.8999 47.3C27.5999 46.6 27.5999 45.7 26.8999 45C25.1999 43.3 23.4999 41.6001 21.7999 39.9001C21.6999 39.9001 21.4999 39.8 21.3999 39.8Z" fill="black"/>
<path d="M53.3001 22C53.0001 22 52.9001 22 52.8001 21.9C51.2001 21.4 49.6001 20.8999 48.0001 20.2999C47.4001 20.0999 47.1001 19.5 47.1001 18.9C47.2001 18.3 47.6001 17.8 48.2001 17.7C48.4001 17.7 48.6001 17.7 48.8001 17.7C50.4001 18.2 52.0001 18.6999 53.6001 19.2999C54.6001 19.5999 54.9001 20.9 54.0001 21.5C53.8001 21.9 53.5001 21.9 53.3001 22Z" fill="black"/>
<path d="M41.1 7.79999C40.3 7.79999 39.7 7.09999 39.8 6.29999C40.1 4.59999 40.5 2.99999 40.9 1.29999C41.1 0.49999 41.7 0.0999902 42.5 0.29999C43.2 0.39999 43.6 1.09999 43.5 1.79999C43.2 3.49999 42.8 5.09999 42.5 6.69999C42.2 7.39999 41.7 7.79999 41.1 7.79999Z" fill="black"/>
<path d="M47.6 12.5C46.9 12.5 46.4 12.1 46.2 11.6C46 11 46.2 10.4 46.8 10.1C47.8 9.49997 48.9 8.89997 50 8.19997C50.4 7.99997 50.8 7.79997 51.1 7.49997C51.8 7.09997 52.5 7.29997 52.9 7.89997C53.3 8.49997 53.1 9.29997 52.4 9.69997C51 10.6 49.5 11.4 48.1 12.2C48 12.5 47.7 12.5 47.6 12.5Z" fill="black"/>
</svg>
