<?xml version="1.0" encoding="UTF-8"?>
<svg id="Layer_2" xmlns="http://www.w3.org/2000/svg" viewBox="0 0 35.4 35.46">
  <defs>
    <style>
      .cls-1 {
        fill: #f44336;
      }
    </style>
  </defs>
  <g id="Layer_1-2" data-name="Layer_1">
    <g>
      <path d="M27.71,12.77c0-1.97,0-3.94,0-5.92,0-.59-.08-.66-.65-.7-3.24-.22-6.28-1.14-9.13-2.66-.98-.53-1.92-1.13-2.86-1.73-.32-.21-.56-.22-.87,0-2.74,1.93-5.73,3.33-9.03,3.99-1,.2-2.02.29-3.03.4-.49.06-.59.13-.59.61,0,.57,0,1.13,0,1.7,0,.51-.33.86-.78.85-.44,0-.75-.34-.75-.84,0-.67-.02-1.35,0-2.02.03-.95.79-1.75,1.74-1.8,4.24-.23,8.02-1.7,11.49-4.09.33-.23.71-.42,1.09-.51.54-.13,1.04.06,1.49.38,1.78,1.24,3.68,2.26,5.73,3,1.88.68,3.81,1.08,5.8,1.21,1.13.07,1.89.86,1.89,2,0,3.76,0,7.53,0,11.29,0,.44-.04.89-.08,1.33-.05.56-.42.89-.89.82-.46-.07-.69-.45-.64-1,.05-.5.08-1.01.08-1.51,0-1.6,0-3.2,0-4.8h0Z"/>
      <path d="M35.4,28.55c0,3.83-3.09,6.92-6.93,6.92-3.82,0-6.93-3.11-6.93-6.93,0-3.81,3.12-6.93,6.94-6.93,3.81,0,6.92,3.12,6.91,6.94ZM23.1,28.51c-.02,2.97,2.37,5.39,5.32,5.42,2.98.02,5.42-2.37,5.44-5.34.02-2.99-2.36-5.41-5.34-5.43-2.99-.02-5.4,2.36-5.42,5.35Z"/>
      <path d="M0,15.15c0-1.13,0-2.26,0-3.39,0-.57.31-.93.78-.92.46.01.75.36.75.92,0,1.76.05,3.51,0,5.26-.11,3.43,1.06,6.4,3.13,9.07,2.33,2.98,5.27,5.24,8.53,7.11.32.19.66.34.98.54.31.2.58.21.9,0,1.34-.84,2.69-1.67,4.04-2.5.06-.04.12-.09.18-.13.43-.29.89-.23,1.14.15.25.36.17.81-.24,1.1-.65.46-1.3.92-1.97,1.33-.85.52-1.72,1.01-2.59,1.49-.67.37-1.34.35-2.03-.01-3.23-1.7-6.18-3.79-8.7-6.45-1.97-2.08-3.51-4.41-4.34-7.18C.17,20.26,0,18.95,0,17.6c0-.82,0-1.63,0-2.45Z"/>
      <path class="cls-1" d="M10.73,10.83c.05-.56.04-1.14.17-1.68.44-1.89,2.12-3.07,4.11-2.93,1.76.13,3.28,1.59,3.42,3.43.07.95.08,1.94-.1,2.87-.36,1.85-2.19,3.09-4.05,2.89-1.96-.21-3.44-1.76-3.5-3.68,0-.3,0-.6,0-.9-.02,0-.03,0-.05,0ZM16.94,10.82s-.01,0-.02,0c0-.3.01-.6,0-.9-.05-1.16-.99-2.11-2.14-2.18-1.2-.07-2.28.77-2.41,1.95-.08.72-.08,1.47,0,2.19.11,1.13,1.05,1.95,2.15,1.99,1.16.04,2.16-.71,2.37-1.84.07-.4.05-.81.06-1.22Z"/>
      <path d="M14.63,17.04c1.19,0,2.39-.08,3.57.02,1.86.15,3.32,1.82,3.34,3.69,0,.51-.27.84-.72.86-.47.02-.78-.29-.81-.81-.08-1.33-1.02-2.24-2.34-2.24-2.03-.01-4.06-.01-6.1,0-1.29,0-2.22.9-2.32,2.19-.05.68-.54,1.04-1.08.81-.33-.14-.49-.45-.46-.89.14-2.12,1.77-3.64,3.93-3.67,1-.01,2,0,2.99,0,0,.02,0,.03,0,.05Z"/>
      <path class="cls-1" d="M27.66,29.08c.84-.84,1.67-1.67,2.5-2.5.09-.09.18-.19.29-.27.33-.24.74-.21,1.01.08.27.28.29.71.03,1.02-.18.21-.38.4-.58.59-.87.87-1.73,1.73-2.6,2.6-.48.48-.87.48-1.36,0-.46-.46-.92-.92-1.37-1.38-.41-.41-.46-.86-.13-1.2.33-.34.8-.3,1.23.12.3.3.6.59.89.89,0,0,.02.01.08.05Z"/>
    </g>
  </g>
</svg>