<?xml version="1.0" encoding="UTF-8"?>
<svg id="Layer_2" xmlns="http://www.w3.org/2000/svg" viewBox="0 0 33.52 33.52">
  <defs>
    <style>
      .cls-1 {
        fill: #f44336;
      }
    </style>
  </defs>
  <g id="Layer_1-2" data-name="Layer_1">
    <g>
      <path d="M9.29,11.74c-.44-.43-.88-.83-1.3-1.25-.35-.35-.35-.61,0-.95.58-.59,1.15-1.17,1.74-1.75.34-.34.62-.34.96,0,.43.42.85.84,1.24,1.23.71-.31,1.4-.62,2.1-.93.15-.07.32-.13.48-.15.41-.04.54-.23.5-.64-.04-.46-.01-.92,0-1.38,0-.41.19-.6.6-.61.87,0,1.73-.01,2.6,0,.4,0,.59.22.6.62,0,.61,0,1.22.01,1.82,0,.01,0,.02-.02-.05,1.06.44,2.06.86,3.09,1.29.35-.35.77-.76,1.18-1.17.39-.38.65-.38,1.03,0,.56.57,1.13,1.13,1.69,1.7.36.36.36.62,0,.98-.42.42-.86.82-1.29,1.24.6.95,1,1.91,1.26,2.93.02.07.17.16.26.16.52.02,1.04,0,1.55,0,.51,0,.7.18.7.69,0,.82,0,1.64,0,2.47,0,.48-.19.67-.68.67-.6,0-1.19,0-1.7,0-.43,1.06-.85,2.06-1.31,3.18.33.32.76.72,1.17,1.13.41.41.41.65.01,1.06-.56.57-1.13,1.14-1.69,1.7-.34.34-.62.34-.96,0-.43-.42-.85-.84-1.23-1.21-1.02.43-2.02.85-3.08,1.29,0,.5,0,1.09,0,1.69,0,.53-.18.7-.71.7-.81,0-1.62,0-2.43,0-.48,0-.66-.18-.66-.65,0-.61,0-1.21,0-1.81-.55-.19-1.08-.34-1.58-.55-.42-.17-.83-.4-1.23-.63-.17-.09-.26-.1-.4.05-.36.39-.74.76-1.12,1.13-.33.32-.6.32-.93,0-.6-.6-1.19-1.2-1.78-1.8-.3-.3-.3-.58,0-.88.44-.44.89-.86,1.33-1.29-.59-.94-1-1.9-1.25-2.92-.02-.08-.17-.17-.26-.17-.54-.02-1.08,0-1.62,0-.43,0-.62-.19-.63-.61,0-.87,0-1.74,0-2.6,0-.41.19-.6.6-.61.54,0,1.08,0,1.62,0,.16,0,.26-.02.31-.22.23-1.01.63-1.94,1.23-2.88ZM9.03,10.05c.4.38.79.75,1.18,1.13.38.37.39.56.09,1-.62.92-1.04,1.91-1.25,3-.12.65-.23.74-.9.74-.5,0-1,0-1.52,0v1.65c.57,0,1.12,0,1.67,0,.46,0,.63.13.71.59.22,1.17.66,2.24,1.33,3.22.24.35.22.57-.08.87-.41.4-.83.8-1.23,1.19.42.42.81.79,1.2,1.18.36-.36.74-.74,1.12-1.12.39-.39.56-.41,1.02-.09.93.64,1.95,1.07,3.06,1.27.5.09.63.25.63.75,0,.55,0,1.1,0,1.67h1.64c0-.58,0-1.14,0-1.7,0-.46.13-.63.59-.71,1.15-.21,2.19-.65,3.15-1.31.4-.27.58-.25.92.08.4.39.8.79,1.18,1.17.39-.38.77-.76,1.19-1.18-.38-.37-.78-.74-1.16-1.12-.4-.4-.42-.56-.1-1.02.63-.94,1.06-1.96,1.26-3.07.1-.53.25-.66.79-.66.54,0,1.07,0,1.62,0v-1.65c-.56,0-1.11,0-1.66,0-.49,0-.66-.13-.74-.6-.2-1.15-.64-2.2-1.3-3.16-.28-.41-.26-.6.09-.94.4-.39.81-.78,1.19-1.14-.44-.43-.82-.8-1.21-1.18-.37.37-.76.76-1.15,1.15-.33.33-.54.36-.92.1-.95-.66-1.98-1.1-3.12-1.32-.54-.1-.64-.24-.64-.8,0-.54,0-1.07,0-1.61h-1.64c0,.54,0,1.06,0,1.58,0,.61-.1.74-.71.86-1.08.21-2.06.63-2.97,1.24-.48.33-.65.31-1.05-.09-.38-.38-.76-.76-1.12-1.12-.39.39-.77.75-1.2,1.18Z"/>
      <path class="cls-1" d="M1.65,11.31c-.33.17-.57.3-.83.42-.31.14-.61.05-.75-.22-.14-.27-.05-.58.26-.74.69-.36,1.38-.72,2.07-1.06.33-.16.63-.05.78.28.32.72.64,1.44.95,2.16.16.36.05.67-.25.8-.3.12-.57,0-.73-.35-.14-.29-.27-.59-.41-.92-.04.05-.08.08-.09.12-.47,1.29-.93,2.59-1.09,3.96-.18,1.53.02,3.04.37,4.52,1.39,5.93,6.35,10.61,12.36,11.62,1.05.18,2.13.18,3.19.24.29.02.54.05.66.36.13.36-.09.71-.52.72-.72.01-1.44.02-2.16-.05-3.33-.31-6.31-1.52-8.9-3.64-3.27-2.68-5.23-6.12-5.96-10.28-.46-2.62-.03-5.1.91-7.54.04-.1.07-.21.14-.39Z"/>
      <path d="M30.4,6.44c0-.29,0-.48,0-.67.01-.33.21-.55.5-.57.3-.02.55.21.57.54.02.44.01.88.02,1.32,0,.34.01.68,0,1.01,0,.37-.22.61-.58.61-.82,0-1.65,0-2.47-.03-.18,0-.41-.15-.51-.3-.08-.12-.06-.41.03-.52.12-.14.35-.23.55-.25.42-.04.85-.01,1.33-.01-.07-.11-.11-.19-.16-.25-2.61-3.17-5.92-5.25-9.96-5.96-6-1.06-10.97.9-14.88,5.56-.02.03-.04.05-.06.08-.27.32-.59.39-.84.17-.25-.21-.27-.54,0-.84.62-.7,1.22-1.43,1.91-2.05C9.14,1.32,13.03-.13,17.46,0c3.96.13,7.45,1.6,10.51,4.08.77.62,1.43,1.36,2.15,2.05.08.08.15.16.28.3Z"/>
      <path d="M22.57,32.07c.32.15.6.26.87.4.33.16.45.46.31.75-.13.28-.42.38-.75.24-.7-.3-1.4-.61-2.1-.93-.38-.17-.47-.51-.24-.86.4-.63.8-1.25,1.21-1.87.22-.33.52-.42.8-.24.28.18.32.48.11.83-.09.15-.19.3-.32.51.14-.04.23-.06.3-.1,4.75-2.28,7.97-5.86,9.3-11.02.71-2.77.45-5.52-.44-8.21-.06-.18-.13-.36-.19-.54-.09-.31.05-.59.32-.69.28-.1.58.02.69.32.18.5.36,1,.49,1.51,1.64,6.34-.15,11.7-4.72,16.23-1.53,1.52-3.33,2.67-5.32,3.52-.09.04-.18.09-.32.15Z"/>
      <path class="cls-1" d="M12.35,16.76c0-2.52,2.02-4.58,4.52-4.59,2.52,0,4.57,2.04,4.57,4.57,0,2.53-2.05,4.6-4.55,4.6-2.5,0-4.53-2.05-4.54-4.58ZM13.43,16.76c0,1.93,1.57,3.5,3.47,3.49,1.91-.01,3.45-1.58,3.45-3.51,0-1.92-1.57-3.49-3.47-3.49-1.91,0-3.45,1.58-3.45,3.51Z"/>
    </g>
  </g>
</svg>