<?xml version="1.0" encoding="UTF-8"?>
<svg id="Layer_2" xmlns="http://www.w3.org/2000/svg" viewBox="0 0 33.97 33.96">
  <defs>
    <style>
      .cls-1 {
        fill: #f44336;
      }
    </style>
  </defs>
  <g id="Layer_1-2" data-name="Layer_1">
    <g>
      <path d="M26.62,33.96c-1.33,0-2.67,0-4,0-1.99,0-3.34-1.36-3.34-3.34,0-2.64,0-5.27,0-7.91,0-1.95,1.35-3.31,3.29-3.32,2.7-.01,5.41-.01,8.11,0,1.94,0,3.27,1.35,3.28,3.29,0,2.67.01,5.34,0,8.01,0,1.93-1.36,3.26-3.3,3.27-1.35,0-2.69,0-4.04,0ZM26.63,31.51c1.31,0,2.62,0,3.93,0,.68,0,.94-.26.94-.93,0-2.6,0-5.2,0-7.8,0-.68-.25-.94-.93-.94-2.63,0-5.27,0-7.9,0-.67,0-.92.24-.92.91,0,2.61,0,5.22,0,7.84,0,.67.24.92.91.92,1.32,0,2.65,0,3.97,0Z"/>
      <path d="M7.35,0c1.32,0,2.65,0,3.97,0,2.01,0,3.36,1.35,3.36,3.35,0,2.62,0,5.25,0,7.87,0,1.97-1.34,3.34-3.3,3.34-2.7.01-5.41.01-8.11,0-1.65,0-2.91-1.03-3.22-2.6-.04-.23-.05-.47-.05-.7,0-2.66,0-5.32,0-7.97C0,1.63,1.02.37,2.58.06,2.83,0,3.09,0,3.35,0,4.68,0,6.02,0,7.35,0ZM12.21,7.3c0-1.32,0-2.65,0-3.97,0-.62-.26-.88-.88-.88-2.66,0-5.31,0-7.97,0-.63,0-.9.27-.9.9,0,2.62,0,5.25,0,7.87,0,.63.27.9.91.9,2.66,0,5.31,0,7.97,0,.62,0,.88-.26.88-.88,0-1.31,0-2.62,0-3.93Z"/>
      <path d="M7.37,33.96c-1.33,0-2.67,0-4,0-1.98,0-3.33-1.36-3.33-3.35,0-2.62,0-5.25,0-7.87,0-1.99,1.35-3.34,3.33-3.35,2.68,0,5.36,0,8.04,0,1.96,0,3.3,1.34,3.31,3.3,0,2.66,0,5.32,0,7.97,0,1.96-1.35,3.29-3.31,3.3-1.35,0-2.69,0-4.04,0ZM2.51,26.66c0,1.32,0,2.65,0,3.97,0,.61.26.87.88.88,2.66,0,5.31,0,7.97,0,.63,0,.9-.27.9-.9,0-2.62,0-5.25,0-7.87,0-.62-.27-.89-.88-.89-2.67,0-5.34,0-8,0-.62,0-.87.26-.87.88,0,1.31,0,2.62,0,3.93Z"/>
      <path class="cls-1" d="M33.97,7.27c0,4.06-3.29,7.31-7.36,7.3-3.95-.02-7.21-3.29-7.21-7.24C19.41,3.21,22.65,0,26.79,0c3.93.01,7.19,3.3,7.18,7.26ZM21.86,7.28c0,2.66,2.15,4.83,4.8,4.83,2.67,0,4.84-2.16,4.84-4.83,0-2.6-2.19-4.81-4.76-4.82-2.7-.01-4.89,2.15-4.88,4.82Z"/>
    </g>
  </g>
</svg>