<?xml version="1.0" encoding="UTF-8"?>
<svg id="Layer_2" xmlns="http://www.w3.org/2000/svg" viewBox="0 0 37.65 35.78">
  <defs>
    <style>
      .cls-1 {
        fill: #f44336;
      }
    </style>
  </defs>
  <g id="Layer_1-2" data-name="Layer_1">
    <g>
      <path d="M29.8,27.94c.94-.21,1.84-.43,2.75-.62.63-.13,1.27-.32,1.91-.33,1.61-.04,2.92,1.15,3.17,2.79.22,1.48-.74,3.01-2.22,3.44-1.29.37-2.6.68-3.91,1.01-1.72.44-3.44.87-5.16,1.3-1.85.46-3.67.3-5.44-.4-3.6-1.41-7.19-2.83-10.79-4.23-.18-.07-.38-.11-.57-.11-.82-.01-1.63,0-2.49,0,0,.25,0,.45,0,.66-.03.49-.31.76-.8.77-1.81,0-3.63,0-5.44,0-.52,0-.8-.29-.8-.84,0-4.24,0-8.48,0-12.71,0-.55.29-.83.85-.83.92,0,1.84,0,2.76,0,.13,0,.26,0,.41,0-.05-.63-.12-1.22-.15-1.81-.12-2.45.35-4.8,1.36-7.03.21-.46.61-.64,1.01-.45.4.18.54.59.33,1.06-.98,2.18-1.38,4.45-1.2,6.83.03.39.1.78.14,1.17.02.19.1.24.28.25,1.2.06,1.25.12,1.26,1.35,0,.11,0,.22,0,.39h1.63c0-.15,0-.28,0-.41,0-2.22,0-4.43,0-6.65,0-.71.24-.95.95-.95,1.72,0,3.43,0,5.15,0h.45c0-.15,0-.28,0-.41,0-1.16,0-2.33,0-3.49,0-.65.27-.93.91-.92,2.08,0,4.17.02,6.25.03.61,0,.86.26.86.88,0,2.4,0,4.8,0,7.2,0,.14,0,.29,0,.49h.46c1.67,0,3.33,0,5,0,.9,0,1.09.19,1.09,1.11,0,2.43,0,4.85,0,7.28v.48c.13-.14.21-.21.27-.29,2.41-3.1,3.32-6.6,2.83-10.48-.04-.3-.1-.6-.15-.9-.09-.49.15-.88.57-.95.44-.08.79.17.88.67.96,5.29-.34,9.92-4.09,13.82-.22.23-.33.45-.31.77.02.36,0,.73,0,1.14ZM7.07,29.31c.84,0,1.66-.02,2.48,0,.36.01.73.07,1.07.2,3.64,1.41,7.27,2.84,10.9,4.27,1.44.57,2.93.7,4.43.33,2.97-.74,5.93-1.49,8.89-2.26,1-.26,1.52-1.16,1.28-2.11-.25-.95-1.13-1.47-2.14-1.24-2.24.51-4.49,1-6.72,1.54-2.02.49-3.99.44-5.94-.33-2.24-.89-4.5-1.73-6.75-2.59-.59-.23-.82-.59-.65-1.04.17-.44.59-.56,1.18-.34.02,0,.04.02.07.03,1.53.59,3.06,1.18,4.59,1.76.54.21,1.09.19,1.6-.09.69-.39,1.04-.99,1.01-1.78-.04-.77-.44-1.31-1.15-1.61-2.37-.99-4.74-1.97-7.12-2.94-.15-.06-.33-.08-.5-.08-2.05,0-4.09,0-6.14,0-.13,0-.26,0-.38,0v8.28ZM21.75,22.66v-14.44h-5.04c0,.08-.02.14-.02.2,0,3.97,0,7.93,0,11.9,0,.24.11.31.29.39,1.48.61,2.96,1.22,4.44,1.83.1.04.2.07.33.11ZM23.27,16.81c0,.08-.02.14-.02.2,0,2.22,0,4.43,0,6.65,0,.14.06.28.13.4.57,1.01.62,2.06.12,3.1-.21.43-.27.84-.27,1.3,0,.25.08.33.32.37,1.64.28,3.18-.18,4.73-.55v-11.46h-5.02ZM5.54,30.72v-11.41H1.5v11.41h4.05ZM15.2,19.92v-6.88h-5.02v6.51c.81,0,1.59,0,2.38,0,.87,0,1.77-.1,2.57.38.02,0,.05,0,.07,0Z"/>
      <path d="M19.1,0c1.95.02,3.69.32,5.37.95.53.2.74.57.58,1.01-.15.41-.57.56-1.08.37-3.14-1.13-6.28-1.14-9.43-.06-1.65.57-3.13,1.45-4.45,2.59-.51.44-.93.48-1.25.12-.32-.36-.22-.79.28-1.22C12.05,1.26,15.43.03,19.1,0Z"/>
      <path class="cls-1" d="M33.37,3.06c-.07.12-.14.32-.27.47-1.96,2.27-3.93,4.53-5.9,6.79-.35.4-.79.45-1.12.15-.32-.29-.32-.72.01-1.11,1.97-2.27,3.95-4.55,5.92-6.82.24-.27.53-.4.88-.25.31.12.44.37.47.77Z"/>
      <path class="cls-1" d="M31.53,7.34c1.02,0,1.85.84,1.84,1.85-.01,1.01-.85,1.84-1.86,1.83-1.01,0-1.84-.84-1.83-1.86,0-1.02.83-1.83,1.86-1.82ZM31.94,9.25c0-.05,0-.11,0-.16-.15-.09-.3-.25-.44-.24-.12,0-.3.2-.33.34-.05.22.13.39.35.36.15-.03.29-.19.43-.29Z"/>
      <path class="cls-1" d="M29.27,3.85c0,1.02-.81,1.84-1.84,1.85-1.02,0-1.85-.82-1.85-1.84,0-1.01.83-1.85,1.84-1.85,1.02,0,1.84.83,1.84,1.85ZM27.86,3.93c0-.06,0-.12,0-.18-.15-.09-.31-.27-.43-.25-.14.03-.31.23-.33.38-.01.09.22.3.34.31.14,0,.28-.16.43-.26Z"/>
      <path class="cls-1" d="M7.48,5.95c.42,0,.74.34.72.75-.01.39-.35.72-.74.71-.41,0-.73-.35-.72-.76.01-.41.33-.71.73-.7Z"/>
    </g>
  </g>
</svg>