<svg width="48" height="53" viewBox="0 0 48 53" fill="none" xmlns="http://www.w3.org/2000/svg">
<path d="M41.9 46.2C42.5 48.6 41.9 50.5 39.8 51.7C38.1 52.7 36.4 52.6 34.8 51.6C33.1 50.5 32.5 48.8 32.9 46.2C30.1 46.2 27.3 46.2 24.5 46.2C25.1 48.5 24.5 50.4 22.5 51.6C20.8 52.7 19 52.7 17.3 51.5C15.4 50.2 14.9 48.4 15.5 46.1C15.3 46.1 15.1 46.1 15 46.1C13.9 46.1 12.8001 46.1 11.6001 46.1C9.90005 46.1 8.60005 45.2 8.10005 43.6C7.60005 42.1 8.10004 40.6 9.40004 39.5C10.7 38.5 12 37.5 13.3 36.5C13.6 36.3 13.6001 36.1 13.6001 35.8C11.4001 26.4 9.10004 17 6.90004 7.60003C6.80004 7.20003 6.60005 7.10003 6.30005 7.10003C4.90005 7.10003 3.50005 7.10003 2.10005 7.10003C1.10005 7.10003 0.300049 6.40002 0.300049 5.50002C0.300049 4.60002 1.00005 3.90002 2.10005 3.90002C4.00005 3.90002 5.90004 3.90002 7.70004 3.90002C8.70004 3.90002 9.20005 4.30002 9.50005 5.30002C9.90005 6.90003 10.3 8.50003 10.7 10.2C10.8 10.5 10.9 10.7 11.3 10.7C12.4 10.8 13.5001 11 14.6001 11.2C15.5001 11.3 16.1 12.1 15.9 12.9C15.8 13.7 15.1 14.3 14.2 14.2C13.5 14.1 12.9 14 12.2 13.9C12 13.9 11.8001 13.9 11.6001 13.8C13.2001 20.9 14.9 28 16.5 35C16.7 35 16.9001 35 17.1001 35C25.6001 35 34 35 42.5 35C43.3 35 43.4 34.9 43.4 34.2C43.5 29.3 43.6 24.3 43.7 19.4C43.7 18.9 43.6001 18.6 43.1001 18.5C42.3001 18.3 41.9001 17.5 42.1001 16.7C42.3001 15.9 42.9 15.4 43.7 15.5C45.4 15.6 46.9 17.2 46.9 19.1C46.9 21.3 46.8 23.4 46.8 25.6C46.7 28.6 46.7001 31.6 46.6001 34.5C46.6001 36.8 45.1 38.3 42.8 38.3C37.6 38.3 32.5 38.3 27.3 38.3C23.7 38.3 20 38.3 16.4 38.3C16.1 38.3 15.8001 38.4 15.6001 38.6C14.2001 39.6 12.9 40.7 11.5 41.8C11.3 42 10.9001 42.1 11.1001 42.5C11.2001 42.9 11.6 42.8 11.9 42.8C22.9 42.8 34 42.8 45 42.8C45.2 42.8 45.3 42.8 45.5 42.8C46.5 42.8 47.2 43.5 47.2 44.4C47.2 45.3 46.5 46 45.5 46C44.5 46 43.5 46 42.4 46C42.3 46.2 42.1 46.2 41.9 46.2ZM20.1001 46.2C19.2001 46.2 18.5 46.9 18.5 47.8C18.5 48.6 19.2001 49.3 20.1001 49.3C21.0001 49.3 21.7 48.6 21.7 47.7C21.7 46.9 20.9001 46.2 20.1001 46.2ZM39 47.7C39 46.8 38.3 46.2 37.4 46.2C36.5 46.2 35.8 46.9 35.8 47.8C35.8 48.7 36.5 49.3 37.4 49.3C38.3 49.3 39 48.6 39 47.7Z" fill="black"/>
<path d="M29 0.400024C35.2 0.400024 40.3 5.50003 40.3 11.7C40.3 17.9 35.2 23 29 23C22.8 23 17.7 17.9 17.7 11.7C17.7 5.40003 22.8 0.400024 29 0.400024ZM29 19.8C33.5 19.8 37.2 16.2 37.2 11.7C37.2 7.20003 33.5 3.50002 29 3.50002C24.5 3.50002 20.8 7.20003 20.8 11.7C20.8 16.2 24.4 19.8 29 19.8Z" fill="black"/>
<path d="M27.5001 12.3C28.5001 11.2 29.5001 10.2 30.5001 9.19999C30.9001 8.69999 31.4001 8.29999 31.8001 7.79999C32.4001 7.19999 33.4001 7.09999 34.0001 7.69999C34.6001 8.29999 34.7001 9.19999 34.1001 9.89999C32.3001 11.8 30.5001 13.8 28.6001 15.7C28.0001 16.4 26.8001 16.3 26.2001 15.6C25.4001 14.6 24.5001 13.7 23.7001 12.7C23.1001 12 23.2001 11 23.9001 10.5C24.6001 9.99999 25.5001 10.1 26.1001 10.7C26.3001 11 26.5001 11.2 26.8001 11.5C27.0001 11.7 27.2001 12 27.5001 12.3Z" fill="#F44336"/>
</svg>
