<?xml version="1.0" encoding="UTF-8"?>
<svg id="Layer_2" xmlns="http://www.w3.org/2000/svg" viewBox="0 0 46 42.94">
  <defs>
    <style>
      .cls-1 {
        fill: #fff;
      }

      .cls-2 {
        fill: #f44336;
      }
    </style>
  </defs>
  <g id="Layer_1-2" data-name="Layer_1">
    <g>
      <path d="M19.42,34.76h-.58c-4.82,0-9.64,0-14.46,0C1.73,34.76,0,33.03,0,30.38c0-7.65,0-15.3,0-22.95,0-2.63,1.74-4.37,4.35-4.37,7.22,0,14.43,0,21.65,0,.15,0,.3,0,.45.01.46.07.78.46.77.91-.01.45-.35.82-.81.87-.16.02-.33,0-.49,0-7.17,0-14.34,0-21.51,0-1.69,0-2.6.92-2.6,2.61,0,7.63,0,15.27,0,22.9,0,1.66.93,2.59,2.58,2.59,12.41,0,24.82,0,37.23,0,1.66,0,2.59-.93,2.59-2.58,0-4.42,0-8.83,0-13.25,0-.15,0-.3,0-.45.05-.49.43-.83.9-.83.47,0,.84.35.89.84.01.12,0,.24,0,.36,0,4.45,0,8.89,0,13.34,0,2.62-1.74,4.37-4.35,4.37-4.84,0-9.67,0-14.51,0-.16,0-.32,0-.54,0,.1.18.16.29.23.4,1.2,1.88,2.41,3.75,3.6,5.64.17.26.35.35.65.35.94-.02,1.89,0,2.83,0,.61,0,1.02.36,1.03.89,0,.52-.41.91-1.01.91-7.29,0-14.58,0-21.87,0-.58,0-.98-.38-.99-.88-.01-.52.4-.91,1-.91.99,0,1.98,0,2.96,0,.14,0,.34-.06.41-.17,1.32-2.03,2.62-4.07,3.98-6.2ZM28.44,41.12c-.01-.07,0-.1-.02-.12-1.29-2.02-2.57-4.03-3.87-6.04-.07-.11-.29-.19-.44-.19-.72-.02-1.44,0-2.15-.02-.29,0-.45.08-.61.33-1.2,1.89-2.41,3.78-3.62,5.67-.07.11-.12.22-.2.37h10.92Z"/>
      <path class="cls-2" d="M26.01,18.55c1.98,1.06,3.35,2.62,3.73,4.81.24,1.34.15,2.74.17,4.11,0,.42-.32.66-.73.73-.13.02-.27.01-.4.01-3.92,0-7.84,0-11.76,0-.89,0-1.21-.29-1.18-1.18.04-1.25-.02-2.53.22-3.75.42-2.15,1.76-3.68,3.73-4.73-1.35-1.19-2.03-2.65-1.86-4.44.13-1.36.73-2.48,1.79-3.35,2.05-1.69,5.06-1.49,6.86.45,1.72,1.85,1.98,5.13-.56,7.34ZM28.11,26.39c.13-1.63,0-2.72-.44-3.66-1.12-2.46-3.92-3.7-6.44-2.81-2.85,1-3.94,3.55-3.54,6.47h10.42ZM22.91,17.79c1.77,0,3.2-1.44,3.19-3.19-.01-1.79-1.44-3.2-3.24-3.19-1.75,0-3.18,1.47-3.17,3.22.01,1.76,1.44,3.17,3.22,3.16Z"/>
      <path d="M32.63,14.3c-.38,0-.69.01-1,0-1.49-.07-2.7-1.26-2.71-2.76-.03-2.92-.03-5.84,0-8.76.01-1.53,1.26-2.77,2.79-2.78,3.82-.02,7.63-.02,11.45,0,1.57,0,2.82,1.27,2.83,2.84.02,2.87.02,5.75,0,8.62,0,1.56-1.23,2.79-2.79,2.82-1.81.03-3.62,0-5.43.02-.21,0-.47.11-.62.25-.95.91-1.87,1.85-2.8,2.79-.31.32-.65.54-1.11.36-.48-.19-.6-.58-.6-1.05,0-.76,0-1.52,0-2.37ZM34.43,14.59s.07.04.11.05c.54-.55,1.09-1.08,1.62-1.65.33-.36.71-.49,1.19-.49,1.86.02,3.71,0,5.57,0,.87,0,1.28-.4,1.28-1.25,0-2.74,0-5.48,0-8.21,0-.8-.42-1.24-1.21-1.24-3.7,0-7.39,0-11.09,0-.75,0-1.18.43-1.18,1.16,0,2.8,0,5.6,0,8.39,0,.72.42,1.13,1.15,1.14.54.01,1.08-.01,1.62,0,.6.02.93.36.95.96.01.37,0,.74,0,1.11Z"/>
      <path class="cls-1" d="M22.91,17.79c-1.78,0-3.2-1.4-3.22-3.16-.01-1.75,1.42-3.21,3.17-3.22,1.79,0,3.22,1.4,3.24,3.19.01,1.75-1.42,3.19-3.19,3.19Z"/>
    </g>
  </g>
</svg>