<?xml version="1.0" encoding="UTF-8"?>
<svg id="Layer_2" xmlns="http://www.w3.org/2000/svg" viewBox="0 0 27.5 27.49">
  <defs>
    <style>
      .cls-1 {
        fill: #f44336;
      }
    </style>
  </defs>
  <g id="Layer_1-2" data-name="Layer_1">
    <g>
      <path d="M25.47,11.74c-.23-.77-.45-1.5-.67-2.23-.05-.16-.13-.31-.19-.47-.21-.55,0-1.09.5-1.3.5-.21,1.04.03,1.27.57.73,1.71,1.1,3.49,1.11,5.36.04,6.67-4.75,12.43-11.31,13.61-7.33,1.31-14.47-3.46-15.88-10.77C-.74,11.09.95,6.54,5.19,3.01,7.6,1.01,10.43.06,13.57,0c.69-.01,1.14.36,1.14.94,0,.58-.43.97-1.12.98-2.09.03-4.04.58-5.84,1.63-.14.08-.27.17-.42.26.04.09.07.17.1.25.49.99,1,1.98,1.48,2.97.26.54.68.87,1.26,1.01.69.17,1.37.35,2.05.54,1.34.38,2.2,1.26,2.55,2.61.33,1.29.63,2.6.96,3.89.24.94,1.51,1.76,2.43,1.6.53-.09.91-.39,1.15-.87.23-.44.45-.89.67-1.34.52-1.07,1.36-1.72,2.51-2,.96-.23,1.92-.48,2.98-.74ZM5.75,5.03c-2.31,2.2-3.59,4.85-3.8,8.02,0,.09.09.23.18.29,1.16.74,2.32,1.48,3.5,2.19.32.19.69.34,1.05.4.46.08.94.04,1.4.05,1.41.02,2.62.51,3.57,1.55.53.58,1.05,1.18,1.54,1.8,1,1.26,1.31,2.69.91,4.25-.17.66-.36,1.3-.56,2,3.58-.02,6.58-1.3,8.96-3.92,2.03-2.24,3.02-4.9,3.05-7.96-.94.24-1.83.46-2.72.68-.52.13-.89.43-1.13.91-.24.49-.47.99-.74,1.47-.7,1.26-1.79,1.89-3.24,1.89-1.39,0-3.6-1.42-3.95-3.25-.23-1.22-.59-2.42-.87-3.64-.17-.76-.64-1.19-1.38-1.37-.67-.16-1.33-.35-2-.52-1.07-.28-1.84-.92-2.34-1.9-.44-.88-.88-1.77-1.33-2.65-.04-.09-.09-.17-.15-.28ZM11.64,25.35c.23-.83.48-1.66.68-2.5.19-.84-.03-1.61-.56-2.28-.48-.6-.99-1.18-1.5-1.75-.37-.42-.84-.73-1.4-.82-.51-.08-1.03-.1-1.55-.1-1.02,0-1.95-.27-2.8-.81-.72-.46-1.45-.91-2.18-1.37-.07-.04-.14-.07-.23-.12.82,5.37,5.24,9.1,9.55,9.75Z"/>
      <path class="cls-1" d="M20.15,0c2.49,0,4.47,2.05,4.38,4.53-.03.8-.34,1.51-.72,2.2-.8,1.43-1.85,2.67-2.98,3.85-.38.39-.95.42-1.32.05-1.33-1.36-2.55-2.81-3.37-4.55C14.8,3.2,17.08-.04,20.15,0ZM20.14,8.5c.83-.95,1.6-1.9,2.15-2.99.17-.33.29-.71.32-1.08.06-1-.58-1.93-1.49-2.32-.96-.4-2.04-.18-2.76.56-.57.59-.98,1.63-.43,2.71.58,1.14,1.37,2.13,2.22,3.11Z"/>
    </g>
  </g>
</svg>