<?xml version="1.0" encoding="UTF-8"?>
<svg id="Layer_2" xmlns="http://www.w3.org/2000/svg" viewBox="0 0 41.41 41.42">
  <defs>
    <style>
      .cls-1 {
        fill: #f44336;
      }
    </style>
  </defs>
  <g id="Layer_1-2" data-name="Layer_1">
    <g>
      <path d="M31.55,16.67c1.22-1.21,2.36-2.35,3.51-3.5.64-.64,1.38-1.06,2.29-1.17,1.4-.17,2.89.56,3.56,1.76.76,1.38.65,2.93-.29,4.09-.17.21-.35.41-.54.6-2.75,2.76-5.51,5.51-8.26,8.27-.19.18-.27.37-.27.63,0,3.41,0,6.82,0,10.23,0,1.57-.66,2.78-2.09,3.45-.51.24-1.11.36-1.67.37-8.01.02-16.02.02-24.02.01-2.18,0-3.76-1.57-3.76-3.75C0,26.37,0,15.07,0,3.77,0,1.57,1.58,0,3.79,0c6.85,0,13.7,0,20.55,0,.96,0,1.85.25,2.55.94,1.25,1.21,2.48,2.44,3.69,3.68.71.73.98,1.65.98,2.66,0,2.95,0,5.9,0,8.86v.53ZM29.12,29.51c-.28.15-.49.3-.73.38-1.63.56-3.26,1.1-4.9,1.63-.26.08-.57.11-.83.05-.74-.18-1.06-.89-.79-1.7.52-1.57,1.03-3.15,1.58-4.71.12-.34.33-.69.58-.94,1.59-1.63,3.21-3.23,4.83-4.84.19-.19.26-.37.26-.63,0-2.87,0-5.74,0-8.61v-.43h-.48c-1.79,0-3.59,0-5.38,0-.95,0-1.42-.46-1.42-1.41,0-1.81,0-3.61,0-5.42v-.45c-.15,0-.24,0-.33,0-5.9,0-11.81,0-17.71,0-.89,0-1.37.48-1.37,1.38,0,11.26,0,22.51,0,33.77,0,.94.47,1.41,1.42,1.41,7.95,0,15.91,0,23.86,0,.94,0,1.41-.47,1.41-1.42,0-2.56,0-5.12,0-7.68,0-.12,0-.23,0-.37ZM35.59,19.48c-.58-.58-1.13-1.13-1.64-1.63-1.9,1.9-3.84,3.82-5.71,5.69.54.54,1.09,1.09,1.63,1.63,1.89-1.88,3.82-3.8,5.72-5.69ZM29.21,7.26c-.13-.34-.17-.71-.37-.91-1.2-1.24-2.42-2.46-3.66-3.65-.2-.19-.56-.22-.88-.34v4.9h4.91ZM37.43,17.69c.39-.39.77-.79,1.16-1.18.05-.05.09-.1.13-.15.39-.51.35-1.18-.1-1.62-.44-.42-1.12-.48-1.58-.07-.47.42-.88.9-1.29,1.33.54.54,1.09,1.09,1.68,1.69ZM28.05,27.05c-.58-.58-1.13-1.14-1.69-1.7-.51.31-.73.85-.89,1.43-.16.56-.36,1.1-.55,1.65,1.09-.48,2.4-.38,3.13-1.39Z"/>
      <path class="cls-1" d="M14.61,12.14c2.78,0,5.55,0,8.33,0,.97,0,1.57.8,1.26,1.64-.18.48-.61.78-1.16.79-.66.01-1.32,0-1.98,0-4.85,0-9.7,0-14.55,0-.11,0-.22,0-.32,0-.78-.01-1.32-.52-1.32-1.23,0-.69.54-1.19,1.3-1.2,1.05,0,2.1,0,3.15,0,1.76,0,3.53,0,5.29,0Z"/>
      <path d="M12.1,19.42c-1.98,0-3.96,0-5.94,0-.83,0-1.41-.65-1.29-1.4.1-.62.6-1.02,1.3-1.03,1.87,0,3.74,0,5.62,0,2.11,0,4.23,0,6.34,0,.94,0,1.55.87,1.18,1.69-.23.52-.67.74-1.23.74-1.99,0-3.99,0-5.98,0Z"/>
      <path class="cls-1" d="M12.18,21.84c1.98,0,3.96,0,5.94,0,.97,0,1.58.88,1.19,1.71-.24.52-.68.72-1.25.72-2.07,0-4.15,0-6.22,0-1.9,0-3.8,0-5.7,0-.92,0-1.52-.84-1.19-1.65.2-.5.63-.77,1.25-.77,1.99,0,3.99,0,5.98,0Z"/>
      <path d="M12.14,29.13c-1.99,0-3.99,0-5.98,0-.95,0-1.56-.86-1.21-1.67.23-.53.66-.76,1.22-.76,2.03,0,4.07,0,6.1,0,1.95,0,3.91,0,5.86,0,.94,0,1.55.87,1.18,1.69-.24.52-.67.74-1.24.74-1.98,0-3.96,0-5.94,0Z"/>
      <path class="cls-1" d="M19.46,34.14c1.14,0,2.29,0,3.43,0,.83,0,1.37.48,1.38,1.2,0,.72-.54,1.22-1.36,1.22-2.33,0-4.66,0-6.99,0-.82,0-1.36-.5-1.36-1.22,0-.72.55-1.2,1.38-1.2,1.17,0,2.34,0,3.51,0Z"/>
    </g>
  </g>
</svg>