<?xml version="1.0" encoding="UTF-8"?>
<svg id="Layer_2" xmlns="http://www.w3.org/2000/svg" viewBox="0 0 37.04 30.09">
  <defs>
    <style>
      .cls-1 {
        fill: #f44336;
      }
    </style>
  </defs>
  <g id="Layer_1-2" data-name="Layer_1">
    <g>
      <path class="cls-1" d="M18.52,0c4.66,0,9.33,0,13.99,0,2.65,0,4.52,1.87,4.52,4.53,0,1.04,0,2.07,0,3.11,0,.15-.1.35-.22.44-5.21,3.89-10.43,7.78-15.65,11.65-1.66,1.23-3.64,1.21-5.3-.02C10.67,15.86,5.5,12,.31,8.16.08,7.99,0,7.81,0,7.53c.02-1.06,0-2.12,0-3.18C.02,1.94,1.94,0,4.35,0c4.72,0,9.45,0,14.17,0ZM18.52,2.9c-4.69,0-9.37,0-14.06,0-.96,0-1.55.6-1.56,1.56,0,.57.01,1.13,0,1.7,0,.23.07.37.25.5,4.79,3.55,9.57,7.11,14.35,10.67.74.55,1.3.55,2.04,0,4.79-3.56,9.59-7.13,14.37-10.7.12-.09.21-.29.21-.44.03-.54.01-1.08,0-1.63,0-1.1-.56-1.66-1.67-1.66-4.65,0-9.3,0-13.95,0Z"/>
      <path d="M0,11.52c.96.72,1.86,1.37,2.73,2.05.1.08.16.29.16.43,0,3.84,0,7.69,0,11.53,0,.19,0,.39.05.57.16.63.69,1.05,1.33,1.08.11,0,.22,0,.33,0,9.27,0,18.53,0,27.8,0,1.18,0,1.73-.54,1.73-1.71,0-3.8,0-7.59,0-11.39,0-.32.1-.5.35-.68.75-.53,1.47-1.09,2.21-1.63.09-.07.19-.13.34-.24v.4c0,4.57,0,9.13,0,13.7,0,2.54-1.9,4.44-4.43,4.44-9.39,0-18.77,0-28.16,0-2.53,0-4.44-1.91-4.44-4.43,0-4.57,0-9.13,0-13.7v-.43Z"/>
    </g>
  </g>
</svg>