<?xml version="1.0" encoding="UTF-8"?>
<svg id="Layer_2" xmlns="http://www.w3.org/2000/svg" viewBox="0 0 33.73 33.73">
  <defs>
    <style>
      .cls-1 {
        fill: #fff;
      }

      .cls-2 {
        fill: #f44336;
      }
    </style>
  </defs>
  <g id="Layer_1-2" data-name="Layer_1">
    <g>
      <path class="cls-2" d="M1.89,31.95c.25,0,.47,0,.69,0,1.38,0,2.76,0,4.14,0,.58,0,.97.37.97.89,0,.52-.4.88-.98.88-1.91,0-3.82,0-5.73,0-.63,0-1-.37-.98-.99.07-2.07.98-3.68,2.68-4.85.13-.09.27-.17.44-.28-1.02-1.05-1.47-2.28-1.22-3.74.17-1,.67-1.82,1.46-2.45,1.63-1.3,3.91-1.17,5.4.25,1.28,1.22,1.98,3.82,0,5.91.58.47,1.15.94,1.76,1.43.75-1.23,1.82-2.21,3.2-2.88-1.33-1.16-2-2.59-1.88-4.33.09-1.29.63-2.4,1.58-3.29,1.96-1.83,4.94-1.8,6.91.02,1.67,1.55,2.55,5.07-.3,7.61,1.34.66,2.41,1.62,3.17,2.87.6-.49,1.18-.96,1.76-1.44-2.07-2.16-1.23-4.89.19-6.08,1.61-1.35,3.97-1.3,5.49.15,1.44,1.37,1.89,3.97-.02,5.95.1.07.2.13.3.19,1.76,1.15,2.71,2.78,2.8,4.89.03.67-.34,1.03-1.01,1.03-1.89,0-3.77,0-5.66,0-.61,0-1.01-.35-1.02-.88,0-.53.4-.89,1-.89,1.45,0,2.91,0,4.36,0,.13,0,.27,0,.44,0-.24-1.07-.8-1.88-1.65-2.49-1.97-1.41-4.76-.79-5.96,1.31-.1.18-.12.44-.11.66.02.42.11.83.12,1.25.03.7-.33,1.05-1.03,1.05-3.41,0-6.83,0-10.24,0-.84,0-1.68,0-2.51,0-.65,0-1.02-.36-.99-1.01.01-.43.11-.86.12-1.28,0-.23-.01-.5-.13-.69-.91-1.46-2.24-2.18-3.95-2.01-1.77.18-2.95,1.18-3.55,2.87-.04.1-.05.21-.08.35ZM11.34,31.93h11.06c-.35-2.63-2.78-4.7-5.51-4.71-2.74,0-5.19,2.06-5.55,4.71ZM16.87,18.94c-1.79,0-3.25,1.45-3.26,3.24,0,1.79,1.45,3.26,3.23,3.27,1.8.01,3.28-1.46,3.28-3.26,0-1.78-1.46-3.25-3.25-3.25ZM8.22,24.6c0-1.28-1.03-2.3-2.31-2.3-1.27,0-2.3,1.03-2.3,2.3,0,1.29,1.04,2.33,2.32,2.32,1.27,0,2.29-1.05,2.28-2.32ZM25.51,24.6c0,1.27,1.02,2.31,2.28,2.32,1.27,0,2.31-1.01,2.32-2.28.01-1.3-1.01-2.34-2.3-2.34-1.27,0-2.3,1.02-2.3,2.3Z"/>
      <path d="M10.06,1.81v.47c0,5.3,0,10.6,0,15.9,0,.09,0,.17,0,.26,0,.68-.33,1.09-.88,1.09-.55,0-.9-.41-.9-1.08,0-2.53,0-5.05,0-7.58,0-.13,0-.27,0-.44-.89.31-1.75.6-2.61.9-1.2.41-2.39.84-3.59,1.23-.25.08-.31.19-.31.44,0,2.39,0,4.78,0,7.17,0,.15,0,.3-.03.44-.09.41-.47.7-.89.69-.43-.01-.8-.35-.85-.78-.01-.11,0-.22,0-.33,0-2.65,0-5.3,0-7.95,0-.67.17-.91.79-1.12,1.02-.35,2.05-.71,3.07-1.05.21-.07.28-.16.28-.39-.01-1.1,0-2.19-.01-3.29,0-.52.21-.86.69-1.06,1.07-.44,2.13-.91,3.19-1.36.2-.09.27-.19.27-.41-.01-.85,0-1.7,0-2.55,0-.66.35-1.01,1-1.01,5.05,0,10.11,0,15.16,0,.65,0,.99.35,1,1.01,0,.84.01,1.68,0,2.51,0,.26.09.37.31.46,1.03.43,2.06.89,3.09,1.31.53.21.76.56.75,1.13-.02,1.17,0,2.34,0,3.53,1.1.38,2.19.76,3.28,1.13.7.24.86.46.86,1.18,0,2.65,0,5.3,0,7.95,0,.24-.07.52-.2.72-.2.32-.54.41-.91.31-.36-.1-.61-.4-.65-.77-.01-.15,0-.3,0-.44,0-2.35,0-4.71,0-7.06,0-.19,0-.34-.24-.42-2.03-.68-4.05-1.39-6.07-2.08-.06-.02-.11-.03-.2-.05v1.68c0,2.08,0,4.17,0,6.25,0,.12,0,.25,0,.37-.06.45-.44.79-.89.78-.44,0-.82-.35-.87-.8-.01-.13,0-.27,0-.41,0-5.35,0-10.7,0-16.05,0-.15,0-.29,0-.47h-13.61ZM8.28,5.79c-.77.33-1.49.63-2.19.95-.08.03-.16.16-.16.24-.01.77,0,1.55,0,2.38.77-.26,1.5-.51,2.22-.77.06-.02.13-.14.13-.22,0-.84,0-1.67,0-2.57ZM27.81,9.35c0-.83,0-1.59-.01-2.35,0-.1-.13-.25-.24-.3-.57-.26-1.15-.5-1.73-.75-.12-.05-.23-.09-.39-.15,0,.88,0,1.71,0,2.53,0,.08.08.21.15.24.71.26,1.43.5,2.21.77Z"/>
      <path d="M11.84,4.73c0-.3,0-.59,0-.89.02-.52.41-.89.89-.89.47,0,.86.37.87.87.02.6.02,1.21,0,1.81-.01.5-.4.86-.87.87-.49,0-.87-.37-.89-.89-.01-.29,0-.59,0-.89Z"/>
      <path class="cls-2" d="M15.98,4.69c0-.28,0-.57,0-.85.02-.52.41-.89.9-.88.47,0,.86.37.87.87.02.6.02,1.21,0,1.81-.01.5-.4.86-.88.87-.49,0-.87-.37-.89-.89-.01-.31,0-.61,0-.92Z"/>
      <path d="M21.89,4.77c0,.28,0,.57,0,.85-.02.52-.41.89-.89.89-.49,0-.87-.38-.88-.91-.01-.58-.01-1.16,0-1.73.01-.52.39-.9.88-.91.5,0,.88.38.9.92,0,.29,0,.59,0,.89Z"/>
      <path d="M11.84,9.47c0-.3,0-.59,0-.89.02-.52.4-.9.89-.89.49,0,.87.38.88.9.01.58.01,1.16,0,1.73-.01.53-.38.9-.87.91-.5,0-.89-.38-.9-.92,0-.28,0-.57,0-.85Z"/>
      <path class="cls-2" d="M17.75,9.49c0,.3.01.59,0,.89-.02.5-.41.86-.88.86-.47,0-.87-.36-.89-.86-.02-.61-.02-1.23,0-1.84.02-.49.42-.85.9-.85.46,0,.84.36.87.84.02.32,0,.64,0,.96Z"/>
      <path d="M21.89,9.48c0,.3.01.59,0,.89-.02.52-.41.89-.9.88-.47,0-.85-.38-.87-.88-.01-.6-.02-1.21,0-1.81.01-.5.41-.86.88-.86.47,0,.86.36.88.86.02.31,0,.61,0,.92Z"/>
      <path d="M13.61,14.21c0,.3.01.59,0,.89-.02.52-.41.89-.9.88-.47,0-.85-.38-.87-.88-.01-.6-.02-1.21,0-1.81.01-.5.41-.86.88-.86.47,0,.86.36.88.86.02.31,0,.61,0,.92Z"/>
      <path class="cls-2" d="M17.75,14.2c0,.28,0,.57,0,.85-.02.54-.39.93-.9.92-.49,0-.86-.39-.87-.91-.01-.58-.01-1.16,0-1.73.01-.52.39-.9.88-.9.49,0,.87.37.89.89.01.29,0,.59,0,.89Z"/>
      <path d="M21.89,14.2c0,.28,0,.57,0,.85-.02.54-.39.93-.9.92-.49,0-.86-.39-.87-.91-.01-.58-.01-1.16,0-1.73.01-.52.39-.9.88-.9.49,0,.87.37.89.89.01.29,0,.59,0,.89Z"/>
      <path d="M5.92,15.38c0,.28,0,.57,0,.85-.02.54-.39.93-.9.92-.49,0-.86-.39-.88-.91-.01-.58-.01-1.16,0-1.73.01-.52.39-.9.88-.91.49,0,.87.37.89.89.01.29,0,.59,0,.89Z"/>
      <path d="M27.81,15.35c0-.27,0-.54,0-.81.01-.54.39-.93.9-.93.49,0,.87.38.88.9.01.58.01,1.16,0,1.73-.01.52-.39.9-.87.91-.5,0-.88-.38-.9-.92,0-.29,0-.59,0-.89Z"/>
      <path class="cls-1" d="M27.81,9.35c-.77-.27-1.49-.51-2.21-.77-.07-.03-.15-.16-.15-.24-.01-.82,0-1.65,0-2.53.15.06.27.1.39.15.58.25,1.16.48,1.73.75.11.05.24.19.24.3.02.76.01,1.52.01,2.35Z"/>
    </g>
  </g>
</svg>