<?xml version="1.0" encoding="UTF-8"?>
<svg id="Layer_2" xmlns="http://www.w3.org/2000/svg" viewBox="0 0 38.89 30.57">
  <defs>
    <style>
      .cls-1 {
        fill: #f44336;
      }
    </style>
  </defs>
  <g id="Layer_1-2" data-name="Layer_1">
    <g>
      <path d="M29.15,26.37c0,.35,0,.65,0,.95-.01,1.92-1.31,3.22-3.24,3.23-2.88,0-5.76,0-8.63,0-1.34,0-2.68-.05-4.01.01-2.13.11-3.7-1.38-3.56-3.55.01-.2,0-.4,0-.64-.2,0-.36,0-.52,0-1.66,0-3.31,0-4.97,0C1.84,26.36.02,24.57.01,22.18c-.01-6-.01-12,0-18.01C.02,1.85,1.74.11,4.06,0c.1,0,.2,0,.31,0C14.42,0,24.47,0,34.53,0c1.84,0,3.2.8,3.96,2.47.25.56.37,1.23.38,1.86.03,5.9.02,11.8.01,17.7,0,2.58-1.79,4.34-4.37,4.34-1.61,0-3.23,0-4.84,0-.16,0-.31,0-.51,0ZM19.44,23.59c4.98,0,9.97,0,14.95,0,1.22,0,1.71-.49,1.71-1.72,0-5.78,0-11.56,0-17.35,0-1.25-.49-1.74-1.74-1.74-9.95,0-19.9,0-29.86,0-1.23,0-1.72.48-1.72,1.71,0,5.8,0,11.59,0,17.39,0,1.24.47,1.72,1.7,1.72,4.98,0,9.97,0,14.95,0ZM12.49,26.39c0,.25,0,.45,0,.65,0,.72,0,.72.73.72,4.14,0,8.28,0,12.42,0,.13,0,.28.04.39-.01.13-.07.3-.2.32-.32.04-.34.02-.68.02-1.04h-13.87Z"/>
      <path class="cls-1" d="M20.84,11.81c0,.15,0,.31,0,.46,0,1.87,0,3.75,0,5.62,0,.85-.5,1.45-1.25,1.52-.84.08-1.52-.53-1.53-1.4,0-1.92,0-3.84,0-5.75,0-.15,0-.31,0-.59-.56.56-1.03,1.03-1.49,1.5-.37.38-.82.55-1.35.44-1.03-.22-1.48-1.49-.75-2.25,1.33-1.38,2.69-2.73,4.07-4.07.51-.49,1.3-.49,1.82.02,1.36,1.33,2.71,2.67,4.04,4.04.53.55.46,1.42-.08,1.92-.53.5-1.35.52-1.89,0-.51-.48-.97-1-1.46-1.5l-.13.05Z"/>
    </g>
  </g>
</svg>