<?xml version="1.0" encoding="UTF-8"?>
<svg id="Layer_2" xmlns="http://www.w3.org/2000/svg" viewBox="0 0 32.62 33.8">
  <defs>
    <style>
      .cls-1 {
        fill: #f44336;
      }
    </style>
  </defs>
  <g id="Layer_1-2" data-name="Layer_1">
    <g>
      <path class="cls-1" d="M32.62,21.61c-.01.61-.21,1-.6,1.29-.42.31-.84.6-1.25.91-.09.07-.14.23-.15.35-.02.26.05.54,0,.79-.07.34.08.52.34.69.35.23.68.48,1.02.73.66.49.83,1.21.43,1.92-.35.63-.72,1.26-1.09,1.88-.41.69-1.11.91-1.85.59-.46-.2-.92-.43-1.38-.62-.11-.05-.29-.03-.41.03-.29.14-.56.3-.83.48-.11.07-.21.22-.23.35-.07.49-.11.98-.15,1.48-.07.78-.64,1.32-1.42,1.33-.74,0-1.47,0-2.21,0-.75,0-1.3-.47-1.41-1.21-.08-.52-.13-1.05-.16-1.57-.01-.21-.09-.31-.27-.39-.2-.09-.41-.18-.57-.33-.28-.25-.54-.24-.85-.06-.36.19-.74.34-1.11.51-.79.35-1.49.13-1.92-.61-.36-.61-.71-1.22-1.05-1.83-.41-.72-.26-1.43.4-1.92.4-.3.8-.59,1.21-.86.15-.11.22-.22.19-.41-.03-.23-.06-.47-.02-.69.08-.39-.06-.6-.39-.79-.36-.21-.69-.48-1.02-.73-.62-.47-.78-1.19-.39-1.87.35-.63.72-1.26,1.09-1.88.42-.7,1.12-.92,1.87-.59.45.2.91.4,1.35.61.17.08.3.09.45-.03.13-.11.28-.23.45-.28.52-.14.62-.52.64-.99.01-.41.06-.81.13-1.21.12-.67.64-1.12,1.31-1.13.79-.02,1.58-.02,2.38,0,.72.02,1.26.54,1.34,1.26.06.49.11.98.14,1.48.01.22.09.36.31.45.2.08.41.19.57.33.28.24.52.22.83.05.38-.2.77-.36,1.17-.53.72-.31,1.43-.09,1.83.58.38.63.75,1.27,1.1,1.91.12.22.17.47.21.59ZM16.68,21.74c.56.4,1.09.81,1.65,1.18.37.25.46.56.42.99-.04.49-.04.99,0,1.47.04.43-.06.74-.43.99-.56.37-1.09.78-1.64,1.18.38.66.75,1.29,1.12,1.94.67-.3,1.3-.58,1.93-.87.32-.15.6-.11.9.09.48.31.97.6,1.47.86.29.15.47.34.51.67.06.62.12,1.25.19,1.87.01.1.11.28.18.28.69.02,1.38.01,2.09.01.08-.72.16-1.41.21-2.1.03-.37.21-.59.55-.75.46-.22.92-.47,1.34-.77.36-.26.69-.33,1.09-.13.6.29,1.21.55,1.84.83.38-.66.75-1.29,1.12-1.94-.57-.41-1.11-.81-1.66-1.19-.35-.24-.48-.53-.4-.96.06-.33.09-.68.06-1.02-.12-1.17-.25-1.02.83-1.79.39-.28.78-.56,1.18-.85-.39-.67-.76-1.31-1.12-1.94-.68.3-1.32.59-1.96.88-.31.15-.58.1-.86-.1-.36-.25-.71-.56-1.11-.69-.73-.23-.94-.72-.93-1.39,0-.04,0-.09,0-.13-.05-.49-.1-.98-.16-1.46h-2.23c-.02.14-.04.27-.05.4-.06.58-.12,1.16-.18,1.74-.03.35-.23.54-.53.69-.48.24-.95.5-1.39.81-.34.23-.64.29-1.01.11-.61-.3-1.24-.56-1.87-.85-.38.65-.74,1.29-1.12,1.94Z"/>
      <path d="M12.67,14.08c-3.88,0-7.03-3.15-7.04-7.03C5.62,3.17,8.8,0,12.68,0c3.88,0,7.06,3.19,7.04,7.06-.02,3.88-3.18,7.02-7.05,7.01ZM7.05,7.05c0,3.11,2.52,5.62,5.62,5.62,3.1,0,5.62-2.52,5.62-5.62,0-3.12-2.54-5.66-5.64-5.64-3.1.01-5.61,2.54-5.61,5.64Z"/>
      <path d="M1.43,28.17h.43c3.29,0,6.58,0,9.87,0,.63,0,.95.24.95.7,0,.46-.34.71-.95.71-3.6,0-7.19,0-10.79,0-.7,0-.93-.23-.93-.93,0-1.77,0-3.54,0-5.31,0-3.64,2.79-6.43,6.44-6.44,2.74,0,5.48,0,8.22,0,.52,0,.85.29.84.72-.01.37-.29.66-.67.68-.41.02-.81,0-1.22,0-2.4,0-4.8,0-7.19,0-2.48.01-4.46,1.66-4.92,4.09-.05.27-.07.55-.08.82,0,1.56,0,3.12,0,4.69,0,.07.01.15.02.27Z"/>
      <path d="M27.46,24.65c0,1.93-1.62,3.54-3.54,3.51-1.93-.02-3.5-1.6-3.51-3.52,0-1.93,1.59-3.53,3.53-3.52,1.94,0,3.52,1.59,3.52,3.53ZM23.94,26.75c1.16,0,2.1-.93,2.12-2.08.02-1.15-.95-2.13-2.11-2.13-1.15,0-2.1.94-2.11,2.09,0,1.18.92,2.12,2.1,2.12Z"/>
    </g>
  </g>
</svg>