<?xml version="1.0" encoding="UTF-8"?>
<svg id="Layer_2" xmlns="http://www.w3.org/2000/svg" viewBox="0 0 113.65 113.64">
  <defs>
    <style>
      .cls-1 {
        fill: #f44336;
      }
    </style>
  </defs>
  <g id="Layer_1-2" data-name="Layer_1">
    <g>
      <path d="M14.22,35.85c0-.56,0-1.08,0-1.59.11-14.76-1.81-12.83,12.99-12.94,1.92-.01,3.85-.04,5.77.01.76.02,1.3-.2,1.84-.75,6.33-6.37,12.69-12.72,19.05-19.07,2.03-2.03,3.9-2.02,5.94.01,6.33,6.33,12.66,12.65,18.97,18.99.56.56,1.11.83,1.92.82,4.92-.04,9.84-.02,14.75-.02,2.56,0,3.97,1.42,3.98,3.98,0,3.11,0,6.21,0,9.32,0,.4,0,.8,0,1.23,3.97.92,7.28,2.81,9.89,5.86,2.77,3.24,4.28,6.99,4.29,11.25.04,14.38.06,28.77,0,43.15-.04,9.56-7.92,17.47-17.48,17.48-26.22.05-52.43.05-78.65,0-9.5-.02-17.41-7.92-17.45-17.4-.06-14.42-.05-28.84,0-43.26.03-7.37,5.06-14.94,14.18-17.09ZM74.53,79.42c-.4.5-.62.84-.91,1.13-4.62,4.63-9.25,9.26-13.88,13.89-1.94,1.93-3.86,1.94-5.78.03-4.66-4.65-9.31-9.31-13.97-13.96-.28-.28-.58-.55-.93-.88-1.97,1.98-3.9,3.91-5.83,5.84-4.24,4.24-8.48,8.47-12.71,12.71-1.02,1.02-2.19,1.51-3.62,1.14-2.79-.72-3.56-4-1.42-6.14,5.9-5.92,11.82-11.82,17.72-17.73.28-.28.54-.57.92-.96-.41-.34-.74-.58-1.03-.86-5.76-5.75-11.49-11.52-17.28-17.24-1.14-1.12-1.66-2.34-1.61-3.94.08-2.73.02-5.47.02-8.21,0-.27-.04-.54-.07-.83-4.08,1.32-7,5.36-7.01,9.78-.03,14.24-.04,28.47,0,42.71.02,5.96,4.69,10.62,10.66,10.63,26,.03,52,.03,77.99,0,6.04,0,10.7-4.66,10.71-10.69.04-14.2.05-28.4-.01-42.6-.02-4.29-2.15-7.43-5.93-9.44-.33-.18-.7-.28-1.14-.46,0,3.22-.04,6.25.02,9.28.03,1.47-.46,2.62-1.5,3.65-5.85,5.81-11.67,11.65-17.5,17.48-.27.27-.53.56-.85.9,1.67,1.65,3.26,3.21,4.83,4.77,4.58,4.57,9.15,9.16,13.73,13.72,1.02,1.02,1.51,2.19,1.15,3.61-.71,2.79-4,3.58-6.14,1.45-5.11-5.09-10.2-10.19-15.3-15.3-1.07-1.07-2.1-2.17-3.35-3.47ZM21.4,28.45c-.03.23-.06.37-.06.51,0,7.4-.01,14.79.02,22.19,0,.44.31.96.64,1.29,11.36,11.39,22.73,22.76,34.11,34.13.23.23.48.43.73.65.17-.14.28-.23.39-.33,11.53-11.53,23.07-23.06,34.58-34.61.31-.31.5-.9.5-1.35.03-7.17.02-14.35.02-21.52,0-.32-.04-.63-.06-.97H21.4ZM69.12,21.26c-4.12-4.11-8.28-8.27-12.3-12.28-4.04,4.04-8.19,8.18-12.28,12.28h24.58Z"/>
      <path d="M56.83,46.18c-5.32,0-10.64.01-15.96,0-1.87,0-3.36-1.38-3.55-3.16-.19-1.76.94-3.38,2.68-3.82.35-.09.73-.11,1.1-.11,10.49,0,20.98,0,31.47,0,2.04,0,3.57,1.31,3.78,3.16.19,1.78-1,3.46-2.79,3.85-.43.09-.88.09-1.32.09-5.13,0-10.27,0-15.4,0Z"/>
      <path class="cls-1" d="M56.84,60.38c-5.32,0-10.64.01-15.96,0-1.87,0-3.37-1.37-3.57-3.15-.2-1.76.92-3.38,2.66-3.83.28-.07.58-.11.87-.11,10.64,0,21.28-.01,31.91,0,1.87,0,3.37,1.37,3.57,3.14.2,1.78-.99,3.47-2.77,3.86-.43.09-.88.09-1.32.09-5.13,0-10.27,0-15.4,0Z"/>
    </g>
  </g>
</svg>