<?xml version="1.0" encoding="UTF-8"?>
<svg id="Layer_2" xmlns="http://www.w3.org/2000/svg" viewBox="0 0 33.13 38.14">
  <defs>
    <style>
      .cls-1 {
        fill: #f44336;
      }
    </style>
  </defs>
  <g id="Layer_1-2" data-name="Layer_1">
    <g>
      <path class="cls-1" d="M16.57,0c5.63,0,10.22,4.6,10.2,10.21-.02,5.63-4.61,10.2-10.24,10.19-5.6-.01-10.18-4.6-10.18-10.2C6.35,4.58,10.94,0,16.57,0ZM16.58,17.74c4.14,0,7.54-3.41,7.53-7.55,0-4.15-3.4-7.53-7.56-7.52-4.15,0-7.55,3.4-7.53,7.54.01,4.15,3.41,7.53,7.56,7.53Z"/>
      <path d="M15.99,23.04c4.83.07,8.74,1.21,12.1,3.91,2.61,2.09,4.35,4.74,4.9,8.08.09.56.12,1.13.13,1.7.02.79-.53,1.38-1.27,1.4-.75.02-1.32-.53-1.38-1.31-.04-.54-.05-1.08-.15-1.61-.54-2.85-2.16-5-4.48-6.65-3.1-2.19-6.59-3.02-10.34-2.8-2.98.17-5.74,1.04-8.19,2.79-2.33,1.66-3.97,3.81-4.51,6.68-.1.53-.1,1.07-.15,1.61-.07.78-.65,1.32-1.4,1.3-.74-.03-1.27-.62-1.26-1.42,0-.35.01-.69.05-1.04.32-3.05,1.68-5.59,3.85-7.72,2.53-2.48,5.6-3.93,9.06-4.56,1.18-.21,2.39-.29,3.03-.36Z"/>
    </g>
  </g>
</svg>