<?xml version="1.0" encoding="UTF-8"?>
<svg id="Layer_2" xmlns="http://www.w3.org/2000/svg" viewBox="0 0 43.82 43.86">
  <defs>
    <style>
      .cls-1 {
        fill: #f44336;
      }
    </style>
  </defs>
  <g id="Layer_1-2" data-name="Layer_1">
    <g>
      <path d="M19.7,5.3c.45.32.86.6,1.3.91.26-.24.54-.49.81-.73.23-.2.43-.46.69-.56.65-.26.67-.69.53-1.28-.17-.69-.26-1.4-.37-2.1-.12-.75.33-1.4,1.04-1.52.68-.12,1.33.33,1.47,1.05.17.88.33,1.77.47,2.65.04.26.15.33.39.4.64.18,1.28.39,1.9.64,2.73,1.11,5.44,2.29,8.2,3.33,2.22.83,3.32,2.35,3.7,4.67,1,6.09,2.12,12.16,3.19,18.24.25,1.43.53,2.86.74,4.3.39,2.62-1.29,4.93-3.91,5.39-5.81,1.03-11.63,2.03-17.43,3.09-2.59.47-5.31-1.09-5.73-4.21-.06-.47-.2-.92-.23-1.39-.03-.34-.21-.42-.48-.46-1.67-.29-3.34-.58-5.01-.88-2.32-.41-4.64-.8-6.95-1.22-2.82-.52-4.43-2.9-3.93-5.73,1-5.64,1.99-11.29,2.99-16.93.32-1.83,1.33-3.11,3.07-3.81,3.15-1.27,6.28-2.55,9.43-3.81.42-.17.88-.25,1.3-.41.13-.05.29-.21.32-.35.22-1.13.41-2.27.61-3.41.12-.69.6-1.14,1.23-1.17.59-.03,1.14.34,1.28.92.06.25.05.54,0,.8-.2,1.19-.41,2.39-.62,3.57ZM16.65,7.71c-.12.03-.18.05-.24.07-3.14,1.27-6.29,2.53-9.43,3.81-.78.32-1.2.92-1.35,1.74-1,5.7-2.01,11.4-3.01,17.1-.24,1.38.49,2.4,1.88,2.64,3.16.55,6.32,1.12,9.47,1.68,2.71.48,5.42.96,8.13,1.42,1.1.19,2.12-.52,2.37-1.61.12-.51.19-1.04.28-1.56.93-5.25,1.86-10.5,2.79-15.75.16-.9-.09-1.65-.78-2.27-2.41-2.17-4.8-4.35-7.2-6.53-.11-.1-.23-.19-.37-.31-.1.55-.18,1.05-.28,1.54-.16.75-.78,1.18-1.51,1.04-.68-.12-1.12-.77-1.01-1.5.08-.49.16-.98.25-1.51ZM19.08,38.28c.09.49.15.89.24,1.3.27,1.2,1.32,1.89,2.53,1.67,2.02-.36,4.04-.71,6.07-1.07,3.85-.68,7.69-1.35,11.54-2.05,1.26-.23,1.98-1.3,1.76-2.55-.3-1.67-.59-3.34-.89-5.01-1.06-6.04-2.12-12.08-3.19-18.11-.14-.77-.54-1.36-1.27-1.66-3.29-1.36-6.59-2.7-9.89-4.04-.62-.25-1.25-.21-1.81.15-.46.3-.86.69-1.3,1.06.21.19.36.34.52.48,1.71,1.55,3.43,3.11,5.14,4.66,1.37,1.24,1.87,2.78,1.54,4.6-.99,5.59-2.02,11.17-2.93,16.77-.52,3.15-3.25,4.8-5.86,4.18-.7-.16-1.42-.25-2.2-.39Z"/>
      <path class="cls-1" d="M17.34,14.79c.85.28,1.53.73,2.1,1.35.46.5.52.97.14,1.35-.38.38-.87.31-1.35-.13-.34-.31-.71-.59-1.17-.96-.09.49-.16.85-.22,1.2-.2,1.14-.39,2.28-.61,3.41-.06.29.04.4.26.53.42.24.85.48,1.22.78,2.19,1.76,2.05,5.06-.29,6.84-.72.55-1.53.89-2.44.93-.28.01-.4.11-.43.39-.03.31-.09.62-.17.92-.12.46-.53.71-.98.63-.42-.08-.72-.45-.68-.9.03-.4.12-.79.18-1.21-.08-.03-.17-.08-.26-.1-1.06-.25-1.94-.82-2.71-1.56-.38-.36-.41-.87-.1-1.23.33-.38.84-.41,1.25-.03.61.55,1.25,1.03,2.13,1.18.21-1.19.42-2.36.63-3.54.13-.72.23-1.44.38-2.15.05-.24-.02-.35-.2-.49-.45-.34-.9-.7-1.33-1.08-.82-.75-1.11-1.69-1-2.78.19-1.87,1.66-3.33,3.52-3.5.28-.02.45-.09.46-.41.01-.25.08-.51.14-.76.12-.48.55-.76.99-.67.47.1.75.5.69.98-.04.32-.1.64-.16,1.01ZM14.94,28.33c1.21-.01,2.38-1.15,2.58-2.45.18-1.17-.52-2.29-1.68-2.67-.3,1.7-.6,3.4-.9,5.11ZM15.3,16.38c-.89.05-1.68.81-1.87,1.73-.19.92.24,1.69,1.18,2.13.23-1.28.45-2.55.68-3.86Z"/>
    </g>
  </g>
</svg>