<?xml version="1.0" encoding="UTF-8"?>
<svg id="Layer_2" xmlns="http://www.w3.org/2000/svg" viewBox="0 0 37.03 38.67">
  <defs>
    <style>
      .cls-1 {
        fill: #fff;
      }

      .cls-2 {
        fill: #f44336;
      }
    </style>
  </defs>
  <g id="Layer_1-2" data-name="Layer_1">
    <g>
      <path class="cls-2" d="M30.28,36.24c-.99.67-1.97,1.32-2.94,1.99-.54.38-1.09.62-1.73.28-.63-.33-.73-.91-.72-1.56.01-2.62.01-5.25,0-7.87,0-.26-.09-.56-.23-.78-1.5-2.32-1.48-5.27.07-7.53,1.54-2.25,4.32-3.36,6.96-2.79,2.67.58,4.74,2.69,5.23,5.37.33,1.8-.04,3.46-1.03,4.99-.12.19-.2.44-.2.66-.01,2.69-.02,5.39,0,8.08,0,.62-.16,1.13-.73,1.42-.56.29-1.09.16-1.59-.2-1.01-.7-2.04-1.38-3.06-2.08ZM26.28,24.55c-.02,2.19,1.76,4,3.97,4.04,2.16.04,4.03-1.79,4.05-3.97.02-2.23-1.77-4.04-4-4.05-2.22,0-4,1.75-4.02,3.98ZM27.66,30.83v3.89c.58-.39,1.11-.74,1.63-1.1.76-.51,1.23-.51,1.98,0,.53.36,1.07.72,1.65,1.11v-3.88c-2.78.65-3.05.65-5.26-.01Z"/>
      <path d="M28.6,9.54c0,5.26-4.27,9.53-9.53,9.53-5.27,0-9.55-4.29-9.54-9.56C9.54,4.26,13.83,0,19.09,0c5.26,0,9.52,4.28,9.51,9.54ZM25.87,9.55c0-3.75-3.02-6.81-6.76-6.82-3.77-.01-6.84,3.03-6.85,6.79,0,3.76,3.05,6.82,6.81,6.83,3.75,0,6.79-3.04,6.8-6.79Z"/>
      <path d="M2.75,35.4c.19,0,.36,0,.52,0,4.85,0,9.7,0,14.55,0,1.07,0,1.76.91,1.41,1.84-.21.54-.7.88-1.33.88-1.5,0-3.01,0-4.51,0-3.93,0-7.86,0-11.78,0-1.09,0-1.62-.52-1.61-1.62.02-1.63-.07-3.26.24-4.88.98-5.17,5.5-9.35,10.75-9.75,2.34-.18,4.7-.09,7.06-.09.73,0,1.29.66,1.27,1.39-.02.74-.61,1.32-1.38,1.33-1.91,0-3.83,0-5.74,0-2.15.02-4.1.68-5.79,2.02-2.36,1.87-3.57,4.34-3.67,7.35-.02.44,0,.88,0,1.32,0,.04,0,.08.02.2Z"/>
      <path class="cls-1" d="M27.66,30.83c2.21.66,2.48.66,5.26.01v3.88c-.58-.39-1.11-.75-1.65-1.11-.76-.51-1.23-.51-1.98,0-.52.36-1.05.71-1.63,1.1v-3.89Z"/>
    </g>
  </g>
</svg>