<?xml version="1.0" encoding="UTF-8"?>
<svg id="Layer_2" xmlns="http://www.w3.org/2000/svg" viewBox="0 0 34.93 31.91">
  <defs>
    <style>
      .cls-1 {
        fill: #f44336;
      }
    </style>
  </defs>
  <g id="Layer_1-2" data-name="Layer_1">
    <g>
      <path d="M17.45,31.91c-3.68,0-7.36,0-11.04,0-2,0-3.7-.7-4.95-2.28-1.57-1.99-1.93-4.22-.82-6.51.93-1.91,2.08-3.72,3.14-5.57,2.74-4.75,5.48-9.49,8.22-14.24,1-1.73,2.44-2.82,4.42-3.21,2.25-.44,4.89.59,6.1,2.53,1.31,2.12,2.54,4.3,3.79,6.46,2.57,4.44,5.13,8.88,7.69,13.32.95,1.64,1.21,3.36.6,5.17-.9,2.67-3.18,4.31-6.01,4.32-1.71,0-3.43,0-5.15,0-2,0-4,0-6,0ZM17.42,29.09c3.68,0,7.36,0,11.04,0,1.03,0,1.95-.29,2.67-1.05,1.11-1.16,1.27-2.75.43-4.21-2.87-4.97-5.74-9.95-8.61-14.92-.89-1.54-1.75-3.11-2.7-4.61-.7-1.11-1.79-1.57-3.1-1.46-1.23.11-2.09.77-2.7,1.83-2.92,5.07-5.86,10.14-8.78,15.21-.83,1.43-1.69,2.85-2.46,4.32-.6,1.13-.49,2.29.21,3.36.7,1.09,1.75,1.53,3.02,1.52,3.66,0,7.31,0,10.97,0Z"/>
      <path class="cls-1" d="M19.24,12.33c-.12,2.04-.26,4.42-.4,6.8-.02.33,0,.66-.06.98-.11.65-.68,1.1-1.33,1.09-.65-.01-1.2-.44-1.28-1.1-.1-.88-.13-1.76-.19-2.65-.11-1.83-.22-3.67-.34-5.5-.1-1.53,1.27-2.6,2.56-2,.86.4,1.1,1.15,1.02,2.37Z"/>
      <path class="cls-1" d="M15.7,24.21c0-.98.82-1.79,1.8-1.78.98,0,1.73.79,1.74,1.81,0,.97-.81,1.78-1.78,1.77-.97-.01-1.76-.82-1.76-1.79Z"/>
    </g>
  </g>
</svg>