<?xml version="1.0" encoding="UTF-8"?>
<svg id="Layer_2" xmlns="http://www.w3.org/2000/svg" viewBox="0 0 44.41 39.85">
  <defs>
    <style>
      .cls-1 {
        fill: #f44336;
      }
    </style>
  </defs>
  <g id="Layer_1-2" data-name="Layer_1">
    <g>
      <path class="cls-1" d="M23.52,24.05c0,.19,0,.36,0,.53,0,4.53,0,9.07,0,13.6,0,.17,0,.35-.01.52-.08.66-.65,1.16-1.31,1.15-.64,0-1.19-.5-1.27-1.14-.02-.17-.01-.35-.01-.52,0-4.53,0-9.07,0-13.6,0-.17,0-.34,0-.54-1.94-.46-3.43-1.53-4.39-3.26-.76-1.37-1-2.85-.67-4.4.67-3.21,3.47-5.36,6.76-5.21,3.14.15,5.77,2.66,6.08,5.89.3,3.15-1.73,6.17-5.17,6.98ZM26.11,17.66c-.01-2.12-1.78-3.88-3.9-3.88-2.12,0-3.88,1.76-3.89,3.89,0,2.13,1.79,3.93,3.92,3.9,2.13-.02,3.88-1.79,3.87-3.91Z"/>
      <path d="M0,18.03C.19,10.65,2.89,4.87,8.29.39c.66-.55,1.43-.51,1.93.08.49.59.41,1.37-.25,1.91-2.5,2.05-4.44,4.53-5.71,7.5-1.47,3.44-1.95,7.01-1.38,10.71.76,4.96,3.11,9.03,6.96,12.23.46.38.79.81.66,1.45-.2.99-1.32,1.37-2.14.72-1.35-1.08-2.56-2.29-3.62-3.65-2.31-2.96-3.79-6.29-4.39-9.99-.2-1.22-.26-2.46-.35-3.32Z"/>
      <path d="M44.41,18.41c-.16,6.25-2.85,12.03-8.25,16.51-.66.55-1.43.52-1.93-.06-.51-.59-.42-1.38.27-1.94,2.81-2.3,4.94-5.11,6.1-8.56,2.37-7,1.28-13.45-3.36-19.23-.82-1.03-1.87-1.88-2.82-2.8-.38-.37-.59-.79-.47-1.31.12-.52.46-.86.98-.98.44-.11.82.04,1.17.31,2.62,2.12,4.68,4.69,6.13,7.73,1.45,3.03,2.15,6.23,2.17,10.32Z"/>
      <path d="M6.98,17.66c.09-4.8,1.94-8.78,5.65-11.86.63-.52,1.41-.48,1.9.07.49.56.44,1.34-.2,1.88-1.37,1.16-2.52,2.49-3.35,4.1-1.02,1.99-1.49,4.11-1.39,6.35.12,2.64.96,5.04,2.59,7.12.65.82,1.45,1.52,2.19,2.26.36.36.56.77.44,1.29-.12.51-.44.83-.94.97-.44.12-.83,0-1.17-.27-3.09-2.53-4.97-5.75-5.56-9.72-.07-.44-.11-.89-.15-1.33-.02-.29,0-.58,0-.87Z"/>
      <path d="M37.48,17.96c-.11,4.5-1.96,8.47-5.67,11.55-.64.53-1.4.5-1.9-.06-.5-.57-.44-1.36.21-1.91,1.36-1.15,2.5-2.47,3.32-4.06,1.03-1.99,1.5-4.11,1.4-6.35-.11-2.64-.96-5.03-2.58-7.12-.5-.65-1.11-1.21-1.68-1.8-.18-.19-.39-.34-.57-.53-.52-.52-.57-1.27-.11-1.8.46-.53,1.28-.63,1.82-.13.86.79,1.74,1.58,2.46,2.48,2.2,2.74,3.25,5.91,3.29,9.73Z"/>
    </g>
  </g>
</svg>