<?xml version="1.0" encoding="UTF-8"?>
<svg id="Layer_2" xmlns="http://www.w3.org/2000/svg" viewBox="0 0 37.49 34.13">
  <defs>
    <style>
      .cls-1 {
        fill: #f44336;
      }
    </style>
  </defs>
  <g id="Layer_1-2" data-name="Layer_1">
    <g>
      <path class="cls-1" d="M22.33,27.54c.79-.2,1.58-.41,2.36-.61,2.07-.55,4.13-1.12,6.2-1.65.8-.2,1.62-.23,2.43-.05,1.2.27,1.97,1.15,2.02,2.31.05,1.19-.68,2.25-1.84,2.6-4.2,1.26-8.41,2.51-12.61,3.77-1.42.42-2.76.24-4.03-.5-2.2-1.28-4.41-2.53-6.6-3.82-.38-.22-.72-.3-1.12-.13-.16.07-.33.1-.52.15.09.36.18.7.26,1.04.17.77-.23,1.53-.99,1.77-.73.23-1.47.43-2.23.58-.8.16-1.52-.35-1.74-1.2-.73-2.81-1.46-5.62-2.19-8.43-.14-.54-.28-1.07-.42-1.61-.23-.94.22-1.72,1.16-1.97.62-.17,1.24-.33,1.86-.48.86-.21,1.62.22,1.88,1.08.08.26.15.53.23.83,1.17-.31,2.31-.63,3.47-.93,1.06-.27,2.12-.55,3.19-.74,1.08-.2,2.09.06,3.02.67,1.52,1,3.05,1.99,4.59,2.98.23.15.49.26.74.38,1.46.73,1.87,2.36.93,3.69-.04.05-.07.1-.1.15.02.04.03.08.05.12ZM8.31,28.42c.39-.1.72-.17,1.04-.28.39-.14.72-.06,1.07.14,2.31,1.35,4.64,2.68,6.95,4.03,1.05.61,2.12.76,3.29.41,4.16-1.26,8.33-2.49,12.5-3.74.6-.18.98-.73.96-1.37-.01-.58-.36-1-1-1.17-.71-.19-1.43-.13-2.13.06-2.42.64-4.84,1.27-7.24,1.95-1.31.37-2.57.32-3.77-.31-1.41-.74-2.79-1.54-4.19-2.33-.41-.23-.52-.58-.33-.9.2-.33.53-.37.96-.13.74.43,1.47.88,2.21,1.3.47.27.94.54,1.44.75.65.27,1.22.04,1.5-.54.26-.55.05-1.26-.54-1.55-1.88-.92-3.6-2.12-5.3-3.33-.94-.67-1.95-.86-3.04-.58-1.94.49-3.87,1.02-5.8,1.53-.04.01-.08.04-.14.08.52,1.99,1.03,3.97,1.55,5.98ZM5.52,31.81c.63-.17,1.3-.33,1.96-.54.1-.03.21-.27.2-.41-.02-.25-.12-.49-.18-.73-.79-3.05-1.58-6.11-2.36-9.16-.13-.51-.2-.56-.71-.43-.49.12-.97.25-1.46.38-.51.13-.56.2-.43.71.45,1.73.89,3.45,1.34,5.18.4,1.53.8,3.06,1.19,4.6.06.22.13.42.45.4Z"/>
      <path d="M19.35,2.73c.4.17.77.3,1.1.49.42.24.78.23,1.21-.02.44-.26.96-.37,1.43-.58.16-.07.32-.22.4-.38.18-.36.31-.74.44-1.12.12-.33.34-.48.68-.48.93,0,1.86,0,2.8,0,.33,0,.54.15.66.46.17.46.25,1.02.56,1.34.31.32.87.39,1.32.57.03.01.07.03.1.05.62.47,1.24.4,1.86,0,.14-.09.3-.13.45-.2.27-.13.52-.09.73.12.69.68,1.37,1.37,2.06,2.06.21.21.23.46.12.73-.17.38-.36.75-.49,1.14-.06.16-.05.39,0,.55.22.59.46,1.17.72,1.74.07.16.22.33.37.4.37.18.77.31,1.16.46.3.12.46.33.45.67,0,.93,0,1.86,0,2.8,0,.33-.15.55-.45.67-.4.16-.8.29-1.19.47-.14.06-.26.21-.33.35-.26.58-.51,1.17-.74,1.77-.06.16-.07.38,0,.55.13.38.31.74.48,1.11.15.31.1.58-.15.82-.65.65-1.3,1.3-1.95,1.95-.26.26-.53.3-.86.15-.43-.2-.87-.53-1.31-.54-.42,0-.85.33-1.27.51-.03.01-.07.04-.1.04-.85.1-1.19.67-1.42,1.41-.26.83-.3.81-1.16.81-.78,0-1.56-.01-2.34,0-.42.01-.66-.17-.79-.55-.13-.37-.26-.74-.42-1.09-.06-.14-.21-.27-.35-.33-.6-.27-1.2-.52-1.81-.75-.14-.05-.34-.06-.48-.01-.39.14-.76.32-1.14.5-.31.15-.58.1-.82-.14-.66-.66-1.32-1.32-1.98-1.98-.23-.23-.27-.5-.14-.8.2-.45.55-.9.55-1.35,0-.44-.34-.89-.54-1.34-.03-.07-.07-.14-.08-.21-.09-.69-.55-.97-1.17-1.18-1.02-.34-1.01-.37-1.01-1.45,0-.71,0-1.41,0-2.12,0-.41.15-.69.55-.78.95-.21,1.62-.7,1.78-1.73.03-.19.13-.39.25-.55.31-.4.21-.75.02-1.17-.63-1.38-.66-1.13.4-2.2.44-.45.88-.9,1.34-1.33.14-.13.32-.21.5-.32ZM34,5.64s-.06-.11-.11-.16c-.41-.41-.81-.83-1.23-1.22-.07-.07-.25-.07-.36-.03-.36.14-.71.34-1.08.45-.22.06-.5.05-.71-.04-.81-.31-1.61-.64-2.39-.99-.21-.09-.42-.28-.53-.48-.18-.33-.3-.69-.42-1.05-.07-.2-.17-.28-.38-.27-.52.01-1.03.02-1.55,0-.23,0-.33.09-.4.3-.11.33-.26.66-.37.99-.1.28-.29.43-.58.54-.79.3-1.57.66-2.37.96-.22.08-.51.1-.74.03-.36-.1-.69-.31-1.04-.43-.12-.04-.32,0-.41.07-.39.35-.75.75-1.13,1.11-.16.15-.16.27-.07.46.17.34.35.68.45,1.04.06.22.05.5-.03.71-.31.81-.64,1.61-1,2.39-.1.22-.29.43-.5.55-.33.18-.71.26-1.05.43-.11.05-.24.22-.24.34-.03.53-.03,1.06,0,1.59,0,.12.12.29.23.35.35.17.74.26,1.08.44.2.11.38.32.47.53.36.79.69,1.59.99,2.39.08.21.1.49.04.71-.11.37-.29.72-.47,1.07-.09.18-.06.29.08.42.38.36.76.74,1.12,1.12.15.16.28.16.46.07.34-.16.68-.35,1.04-.45.22-.06.5-.05.71.04.81.31,1.61.64,2.39.99.21.09.42.28.52.48.19.34.28.73.44,1.08.05.1.21.22.32.22.5.02,1.01,0,1.51.02.3.02.43-.1.51-.37.09-.3.23-.59.33-.88.11-.32.32-.47.63-.59.76-.28,1.52-.59,2.26-.93.32-.15.58-.19.89-.03.33.16.66.31,1,.44.1.04.27,0,.35-.06.41-.38.8-.77,1.17-1.18.07-.08.1-.27.06-.38-.13-.35-.29-.7-.45-1.04-.14-.28-.09-.51.03-.79.35-.78.64-1.58.99-2.35.1-.22.3-.43.51-.55.33-.18.69-.29,1.05-.41.18-.06.25-.16.24-.36-.01-.53-.02-1.06,0-1.59,0-.22-.08-.31-.27-.38-.33-.11-.65-.26-.99-.37-.32-.11-.47-.32-.58-.63-.26-.73-.54-1.46-.89-2.16-.19-.39-.24-.71-.04-1.1.18-.33.31-.69.48-1.06Z"/>
      <path d="M13.83,3.31c-.13.31-.27.57-.36.86-.05.15-.01.33,0,.49,0,.07.07.13.09.21.15.65.51,1.07,1.18,1.24.17.04.36.36.38.57.05.6.02,1.21.02,1.81,0,.33-.16.57-.47.65-.57.13-.84.48-1.06,1.02-.19.48-.23.86.03,1.29.22.36.14.69-.17.98-.38.35-.74.72-1.1,1.09-.27.29-.58.37-.91.17-.46-.28-.86-.24-1.36-.04-.51.21-.84.47-.97,1.01-.09.38-.38.54-.77.53-.53-.01-1.06,0-1.59,0-.37,0-.66-.13-.74-.5-.13-.57-.49-.83-1.03-1.05-.46-.19-.82-.21-1.26.02-.46.25-.64.19-1-.17-.37-.36-.73-.74-1.1-1.09-.27-.26-.38-.55-.17-.88.32-.5.24-.94.02-1.46-.2-.46-.44-.73-.91-.87C.08,9,0,8.85,0,8.33c0-.52,0-1.03,0-1.55,0-.38.13-.65.5-.74.55-.13.82-.46,1.03-.99.2-.49.24-.88-.03-1.33-.22-.35-.14-.66.16-.94.38-.36.76-.74,1.12-1.12.26-.27.56-.37.88-.17.5.32.94.23,1.47.01.46-.19.73-.44.87-.91C6.16.09,6.32,0,6.87,0c.5,0,1.01,0,1.51,0,.38,0,.69.14.74.51.13.95.99.95,1.6,1.26.13.07.39-.12.58-.2.64-.28.7-.27,1.19.22.35.35.7.69,1.04,1.05.12.13.19.3.3.48ZM4.44,12.04c.16.07.31.13.45.19.37.16.72.37,1.11.47.48.12.79.36.89.85.07.36.29.44.63.41.32-.03.66.08.74-.4.09-.48.4-.74.89-.85.33-.07.65-.21.94-.39.42-.27.81-.3,1.23-.03.25.16.47.17.67-.1.2-.26.6-.42.3-.86-.28-.41-.24-.81.03-1.23.19-.29.32-.63.4-.97.11-.46.36-.73.8-.84.14-.04.37-.11.38-.2.05-.31.07-.63.01-.93-.02-.11-.26-.21-.41-.25-.44-.12-.67-.38-.78-.82-.09-.35-.22-.7-.41-1.01-.26-.41-.29-.8-.03-1.2.22-.33.08-.53-.17-.76-.24-.23-.43-.49-.81-.21-.39.28-.78.23-1.19-.03-.29-.18-.63-.33-.97-.4-.48-.1-.78-.36-.86-.82-.09-.5-.44-.39-.77-.43-.35-.04-.54.09-.61.43-.1.46-.39.71-.86.83-.38.09-.75.28-1.1.47-.3.16-.57.19-.89.04-.58-.27-.57-.24-1.03.18-.25.23-.28.42-.12.71.16.29.3.59.11.96-.24.48-.4,1-.64,1.48-.09.19-.28.33-.43.48-.02.02-.07.03-.1.04-.6.24-.58.24-.61.9-.01.3.07.47.37.53.51.11.77.42.89.94.09.38.3.75.48,1.1.14.27.16.51.04.79-.28.64-.26.63.23,1.15.19.2.34.19.55.08.21-.11.44-.18.67-.28Z"/>
      <path d="M4.08,21.58c.35,0,.61.29.61.63,0,.36-.3.63-.66.61-.34-.02-.61-.31-.59-.65.02-.35.3-.6.64-.6Z"/>
      <path d="M32.23,12.13c0,3.43-2.81,6.23-6.23,6.22-3.43,0-6.21-2.8-6.21-6.24,0-3.45,2.81-6.23,6.26-6.22,3.4.02,6.18,2.82,6.17,6.24ZM31.02,12.12c0-2.77-2.25-5.01-5.02-5.01-2.75,0-4.99,2.24-4.99,5,0,2.78,2.23,5.03,5,5.03,2.76,0,5.01-2.25,5.01-5.02Z"/>
      <path d="M3.69,7.59c0-2.16,1.73-3.89,3.89-3.89,2.14,0,3.9,1.75,3.9,3.89,0,2.13-1.76,3.9-3.9,3.9-2.15,0-3.89-1.74-3.89-3.89ZM4.9,7.57c0,1.49,1.19,2.7,2.67,2.7,1.47,0,2.7-1.22,2.69-2.69,0-1.46-1.21-2.67-2.66-2.67-1.5,0-2.69,1.17-2.7,2.66Z"/>
    </g>
  </g>
</svg>