<?xml version="1.0" encoding="UTF-8"?>
<svg id="Layer_2" xmlns="http://www.w3.org/2000/svg" viewBox="0 0 27.98 40.38">
  <defs>
    <style>
      .cls-1 {
        fill: #f44336;
      }
    </style>
  </defs>
  <g id="Layer_1-2" data-name="Layer_1">
    <g>
      <path d="M27.96,10.12s0-.1-.01-.15c-.07-1.59-1.21-2.94-2.77-3.36-.76-.2-1.51-.13-2.28.12,0-.74.03-1.44-.01-2.13-.08-1.51-.8-2.63-2.17-3.27-1.23-.58-2.45-.45-3.63.23C16.14.36,14.9-.19,13.38.06c-1.53.25-2.49,1.2-3,2.61-.06,0-.09,0-.11,0-2.6-.99-5.24.96-5.16,3.7.07,2.26.02,4.52.02,6.79v.47c-.11-.02-.16-.03-.21-.04C2.26,12.86.01,14.58.01,17.32c-.01,3,0,6-.01,9,0,1.24.14,2.46.46,3.66.51,1.88,1.36,3.56,2.47,5,3.08,3.99,8.16,6.09,13.53,5.19,6.36-1.06,11.37-6.76,11.47-13.2.08-5.62.04-11.23.03-16.85ZM25.56,26.33c-.08,5.02-2.43,8.7-7.01,10.73-5.16,2.28-10.85.4-13.92-3.78-1.11-1.5-1.87-3.3-2.15-5.31-.05-.36-.09-.73-.09-1.1-.01-3.23-.01-6.47-.01-9.7.01-.7.48-1.27,1.13-1.38.65-.11,1.3.25,1.51.86.08.23.1.49.1.74,0,1.92,0,3.84,0,5.76,0,.96.37,1.36,1.33,1.44,1.97.16,3.34,1.41,3.61,3.25.04.22.06.45.06.69.01.57,0,1.14.01,1.7.01.76.5,1.31,1.18,1.32.68.01,1.2-.53,1.2-1.29,0-.92.07-1.85-.08-2.75-.1-.57-.25-1.1-.45-1.59-.73-1.76-2.14-2.94-4.18-3.54-.09-.02-.17-.05-.3-.08V6.26c0-.95.61-1.54,1.51-1.46.6.05,1.08.48,1.19,1.08.03.19.03.39.03.59.01,3.44,0,6.89.01,10.33,0,.24,0,.48.07.7.16.49.67.82,1.16.79.51-.02.96-.37,1.09-.88.05-.2.06-.41.06-.62V3.85c0-1.05.86-1.71,1.82-1.4.59.19.94.7.94,1.4,0,1.31,0,2.63-.01,3.94,0,3,0,6-.02,9-.01.94.43,1.5,1.17,1.51.75.02,1.22-.56,1.22-1.51.01-4,.01-8,.02-12,0-.81.52-1.38,1.28-1.42.8-.05,1.42.5,1.47,1.31.01.14,0,.29,0,.43-.01,4.1-.02,8.21-.03,12.31v.87c0,.74.27,1.18.83,1.36.65.22,1.35-.16,1.51-.82.04-.19.05-.39.05-.59,0-1.07.01-2.14.01-3.21,0-1.59,0-3.17.01-4.76,0-.93.78-1.56,1.66-1.36.57.14,1,.64,1.02,1.25.02.39.01.79.01,1.18v.99c0,4.67.04,9.34-.03,14Z"/>
      <path class="cls-1" d="M10.13,28.53c0-.24-.02-.47-.06-.69l1.92-1.92c.2.49.35,1.02.45,1.59.15.9.08,1.83.08,2.75,0,.76-.52,1.3-1.2,1.29-.68,0-1.17-.56-1.18-1.32-.01-.56,0-1.13-.01-1.7Z"/>
      <path class="cls-1" d="M20.49,18.29v-.87l2.4-2.39c0,1.07-.01,2.14-.01,3.21,0,.2,0,.4-.05.59-.16.66-.86,1.04-1.51.82-.56-.18-.83-.62-.83-1.36Z"/>
      <path class="cls-1" d="M27.93,26.97c-.1,6.44-5.11,12.14-11.47,13.2-5.37.9-10.45-1.2-13.53-5.19l1.7-1.7c3.07,4.18,8.76,6.06,13.92,3.78,4.58-2.03,6.93-5.71,7.01-10.73.07-4.66.03-9.33.03-14l2.36-2.36s.01.1.01.15c.01,5.62.05,11.23-.03,16.85Z"/>
    </g>
  </g>
</svg>