<?xml version="1.0" encoding="UTF-8"?>
<svg id="Layer_2" xmlns="http://www.w3.org/2000/svg" viewBox="0 0 50.5 45.81">
  <defs>
    <style>
      .cls-1 {
        fill: #f44336;
      }
    </style>
  </defs>
  <g id="Layer_1-2" data-name="Layer_1">
    <g>
      <path d="M42.29,27.01c0,.31,0,.52,0,.74,0,3.82.01,7.63,0,11.45-.01,3.18-2,5.71-5.05,6.44-.49.12-1.02.16-1.53.17-6.97.01-13.94.01-20.92,0-3.74,0-6.58-2.84-6.59-6.59-.01-3.83,0-7.67,0-11.5,0-.21,0-.43,0-.71-.57,0-1.08,0-1.59,0C2.8,26.99.02,24.21,0,20.41c0-4.61-.01-9.21,0-13.82C.02,2.8,2.84,0,6.63,0,19.04,0,31.44,0,43.84,0c3.83,0,6.64,2.79,6.65,6.62.01,4.59.01,9.17,0,13.76,0,3.84-2.79,6.61-6.64,6.62-.49,0-.98,0-1.56,0ZM11.74,12.99v.67c0,4.15,0,8.29,0,12.44,0,4.29,0,8.59,0,12.88,0,2.12,1.18,3.31,3.3,3.31,6.79,0,13.58,0,20.36,0,2.19,0,3.36-1.16,3.36-3.36,0-4.92,0-9.83,0-14.75,0-3.5,0-7.01,0-10.51v-.68H11.74ZM42.31,23.48c.54,0,1.04,0,1.53,0,1.93-.01,3.12-1.2,3.12-3.13,0-4.57,0-9.14,0-13.71,0-.31-.02-.63-.1-.92-.36-1.38-1.49-2.19-3.05-2.19-11.95,0-23.89,0-35.84,0-.53,0-1.06-.01-1.6,0-1.55.05-2.83,1.25-2.83,2.8-.03,4.79-.02,9.58,0,14.37,0,1.33,1,2.51,2.31,2.71.75.11,1.52.02,2.3.02v-10.49c-.16,0-.27-.02-.37-.02-1.15-.04-1.91-.74-1.91-1.76,0-1.04.79-1.76,1.97-1.77.75,0,1.5-.02,2.26-.02,10.11,0,20.22,0,30.33,0,.88,0,1.76-.02,2.64.05.95.08,1.6.89,1.56,1.81-.04.91-.76,1.63-1.71,1.68-.19.01-.39.02-.6.03v10.54Z"/>
      <path class="cls-1" d="M27.01,32.75c1.4-1.4,2.68-2.69,3.97-3.97.53-.53,1.17-.68,1.87-.43.68.24,1.07.75,1.14,1.48.05.54-.11,1.02-.49,1.4-2.34,2.35-4.68,4.71-7.04,7.05-.71.7-1.76.68-2.47-.03-2.33-2.32-4.64-4.64-6.96-6.97-.73-.74-.74-1.82-.05-2.52.71-.72,1.79-.7,2.56.05,1.16,1.15,2.31,2.31,3.47,3.46.12.12.26.24.47.43v-.69c0-3.78,0-7.56,0-11.33,0-1.03.65-1.78,1.57-1.87,1.1-.1,1.95.67,1.96,1.81.01,2.51,0,5.03,0,7.54,0,1.48,0,2.96,0,4.59Z"/>
    </g>
  </g>
</svg>