<?xml version="1.0" encoding="UTF-8"?>
<svg id="Layer_2" xmlns="http://www.w3.org/2000/svg" viewBox="0 0 33.92 33.91">
  <g id="Layer_1-2" data-name="Layer_1">
    <path d="M14.7,16.97c-.2-.16-.32-.25-.42-.35C9.72,12.06,5.17,7.51.61,2.95-.05,2.29-.18,1.49.25.79.77-.05,1.89-.26,2.67.35c.13.1.25.22.36.34,4.54,4.54,9.09,9.08,13.63,13.63.09.09.15.22.22.33.05,0,.1,0,.15,0,.07-.11.13-.24.22-.33,4.56-4.57,9.13-9.13,13.69-13.7.47-.47,1-.72,1.67-.57,1.24.29,1.71,1.75.88,2.71-.09.11-.2.21-.3.31-4.53,4.53-9.05,9.05-13.58,13.58-.09.09-.2.17-.32.28.12.13.21.22.3.31,4.57,4.57,9.13,9.13,13.7,13.69.48.48.74,1.01.58,1.7-.29,1.21-1.71,1.68-2.67.89-.11-.09-.21-.2-.31-.3-4.54-4.54-9.08-9.08-13.62-13.63-.09-.09-.15-.22-.22-.33-.05,0-.1,0-.15,0-.07.11-.13.23-.23.32-4.56,4.57-9.13,9.13-13.69,13.7-.48.48-1.02.73-1.7.56-1.16-.29-1.64-1.65-.92-2.6.1-.13.22-.25.34-.36,4.54-4.54,9.08-9.08,13.63-13.63.09-.09.21-.16.39-.3Z"/>
  </g>
</svg>