<?xml version="1.0" encoding="UTF-8"?>
<svg id="Layer_2" xmlns="http://www.w3.org/2000/svg" viewBox="0 0 30.74 30.75">
  <g id="Layer_1-2" data-name="Layer_1">
    <path d="M21.08,22.64c-.43.29-.83.58-1.25.85-2.28,1.42-4.78,2.08-7.45,1.96-3.49-.15-6.47-1.51-8.89-4.04-1.83-1.9-2.96-4.16-3.34-6.77-.5-3.4.24-6.52,2.28-9.3C4.38,2.68,6.97.98,10.2.31c3.32-.7,6.47-.21,9.39,1.54,3.06,1.83,5.11,4.47,5.92,7.95.97,4.18,0,7.92-2.76,11.2-.07.08-.14.17-.22.27.08.09.16.17.23.24,2.52,2.48,5.03,4.96,7.55,7.43.29.28.49.58.42,1-.13.69-.92,1.03-1.52.65-.12-.08-.22-.18-.32-.27-2.53-2.49-5.06-4.98-7.59-7.47-.07-.07-.14-.13-.22-.2ZM23.9,12.51c-.08-.58-.14-1.4-.33-2.2-.65-2.78-2.21-4.97-4.59-6.53-2.34-1.54-4.93-2.08-7.7-1.67-2.75.41-5.04,1.68-6.8,3.81-2.13,2.57-2.92,5.56-2.28,8.84.65,3.35,2.54,5.89,5.56,7.45,3.65,1.89,7.36,1.81,10.9-.32,3.4-2.05,5.07-5.18,5.24-9.37Z"/>
  </g>
</svg>