<?xml version="1.0" encoding="UTF-8"?>
<svg id="Layer_2" xmlns="http://www.w3.org/2000/svg" viewBox="0 0 102.48 102.48">
  <defs>
    <style>
      .cls-1 {
        fill: #f44336;
      }
    </style>
  </defs>
  <g id="Layer_1-2" data-name="Layer_1">
    <g>
      <path d="M0,51.21C.01,22.88,22.98-.04,51.32,0c28.29.04,51.18,22.98,51.16,51.27-.01,28.32-23,51.26-51.32,51.21C22.87,102.43-.01,79.5,0,51.21ZM95.3,51.26c.02-24.3-19.64-44-43.99-44.08-24.3-.08-44.11,19.68-44.13,44.04-.03,24.29,19.64,44,43.99,44.09,24.3.08,44.11-19.69,44.14-44.04Z"/>
      <path class="cls-1" d="M50.03,25.52c3.34.02,6.01.46,8.53,1.66,6.05,2.88,8.1,9.1,4.93,15.01-1.4,2.61-3.42,4.66-5.69,6.5-.6.48-1.19.97-1.75,1.49-1.52,1.41-2.29,3.16-2.37,5.23-.03.67-.01,1.33-.04,2-.05,1.29-.6,2.03-1.82,2.46-.22.08-.45.14-.67.18-3.73.66-5.1-.45-5.18-4.22-.09-4.41,1.43-8.07,4.98-10.82,1.19-.92,2.36-1.86,3.45-2.88,1.22-1.15,2.04-2.54,2.06-4.3.01-1.73-.76-3-2.28-3.81-3.46-1.84-7.69-.82-9.91,2.38-1.61,2.31-3.81,2.68-5.73.93-1.33-1.2-1.44-2.74-.95-4.33.96-3.11,3.25-4.95,6.11-6.19,2.2-.96,4.54-1.29,6.35-1.29Z"/>
      <path d="M44.62,70.02c0-2.87,2.3-5.18,5.12-5.17,2.87,0,5.19,2.37,5.16,5.25-.03,2.81-2.39,5.16-5.19,5.14-2.8-.01-5.1-2.37-5.09-5.22Z"/>
    </g>
  </g>
</svg>