<?xml version="1.0" encoding="UTF-8"?>
<svg id="Layer_2" xmlns="http://www.w3.org/2000/svg" viewBox="0 0 54.64 54.61">
  <defs>
    <style>
      .cls-1 {
        fill: #fff;
      }
    </style>
  </defs>
  <g id="Layer_1-2" data-name="Layer_1">
    <g>
      <path d="M0,27.27C.02,12.19,12.28-.03,27.38,0c15.06.03,27.28,12.28,27.26,27.34-.02,15.08-12.32,27.33-27.38,27.27C12.17,54.56-.02,42.32,0,27.27ZM41.73,33.12c-3-1.42-4.55-3.74-4.82-6.9-.28-3.24,1.36-5.56,3.75-7.47-1.71-2.56-4.93-3.98-7.89-3.42-1.33.25-2.63.67-3.92,1.06-1.02.3-2.01.33-3.03.04-1.02-.29-2.05-.56-3.09-.79-3.91-.86-6.99.52-8.99,3.97-1.11,1.93-1.54,4.03-1.6,6.22-.1,3.36.76,6.51,2.22,9.5.96,1.97,2.06,3.86,3.63,5.42.91.91,1.95,1.63,3.28,1.77,1.1.12,2.12-.23,3.09-.67,2.07-.92,4.12-.92,6.2-.1.44.17.91.28,1.36.44,1.97.66,3.64.12,5.09-1.28,1.46-1.41,2.52-3.1,3.44-4.89.49-.95.88-1.96,1.3-2.92ZM26.7,15.78c2.64,0,4.42-1.4,5.72-3.49.95-1.53,1.49-3.19,1.21-5.05-5.15,1-7,4.84-6.92,8.54Z"/>
      <path class="cls-1" d="M41.73,33.12c-.43.96-.82,1.97-1.3,2.92-.92,1.79-1.98,3.48-3.44,4.89-1.45,1.4-3.12,1.94-5.09,1.28-.45-.15-.92-.26-1.36-.44-2.08-.82-4.14-.82-6.2.1-.97.43-1.99.78-3.09.67-1.33-.14-2.36-.86-3.28-1.77-1.56-1.57-2.67-3.45-3.63-5.42-1.46-2.99-2.32-6.14-2.22-9.5.07-2.19.49-4.3,1.6-6.22,2-3.46,5.09-4.83,8.99-3.97,1.04.23,2.07.5,3.09.79,1.02.29,2.02.26,3.03-.04,1.3-.38,2.6-.81,3.92-1.06,2.96-.56,6.18.87,7.89,3.42-2.38,1.91-4.03,4.23-3.75,7.47.27,3.15,1.82,5.47,4.82,6.9Z"/>
      <path class="cls-1" d="M26.7,15.78c-.07-3.69,1.78-7.53,6.92-8.54.28,1.86-.26,3.52-1.21,5.05-1.3,2.09-3.07,3.49-5.72,3.49Z"/>
    </g>
  </g>
</svg>