<?xml version="1.0" encoding="UTF-8"?>
<svg id="Layer_2" xmlns="http://www.w3.org/2000/svg" viewBox="0 0 34.11 34.09">
  <defs>
    <style>
      .cls-1 {
        fill: #f44336;
      }
    </style>
  </defs>
  <g id="Layer_1-2" data-name="Layer_1">
    <g>
      <path d="M12.82,34.04c0-.11,0-.22,0-.34,0-2.42,0-4.84,0-7.25,0-2.97-2.17-5.14-5.15-5.14-2.41,0-4.81,0-7.22,0-.12,0-.24,0-.4,0,0-.73-.05-1.46,0-2.17.33-3.96,2.2-6.97,5.68-8.9,1.94-1.07,4.06-1.57,6.27-1.69.2-.01.34-.07.47-.23C15.84,4.15,20.14,1.52,25.37.43,26.88.11,28.42-.02,29.97,0c2.24.04,4.15,1.91,4.15,4.16,0,6.51-2.39,12-7.12,16.47-.38.36-.8.67-1.18,1.02-.11.11-.21.28-.22.44-.16,2.38-.69,4.67-1.95,6.7-2.1,3.43-5.22,5.17-9.24,5.28-.5.01-1,0-1.5,0-.02,0-.04-.02-.09-.04ZM15.55,24.82c.06-.03.12-.04.16-.06,2.51-1.22,4.91-2.62,7.11-4.34,2.1-1.64,3.99-3.48,5.46-5.73,2.07-3.17,2.9-6.7,2.98-10.44.02-.79-.62-1.42-1.43-1.39-.89.04-1.77.1-2.65.2-4.03.48-7.51,2.13-10.47,4.91-2.35,2.22-4.25,4.79-5.84,7.59-.56.98-1.07,1.98-1.62,3,3.4.83,5.47,2.91,6.29,6.26ZM9.86,11.74c-3.31.39-6.95,3.97-6.81,6.7.1,0,.19.02.29.02.85,0,1.71,0,2.56,0,.24,0,.34-.08.45-.29.66-1.31,1.31-2.63,2.01-3.93.46-.85.99-1.67,1.5-2.5ZM22.38,24.25c-.07.04-.11.05-.15.08-2.03,1.32-4.14,2.48-6.34,3.47-.18.08-.24.18-.24.37.01.71,0,1.42,0,2.13,0,.26,0,.52,0,.79,2.98-.1,6.17-3.36,6.72-6.84Z"/>
      <path class="cls-1" d="M0,34.09c.13-.74.24-1.42.37-2.11.34-1.77.76-3.52,1.45-5.2,1.15-2.83,4.69-3.32,6.75-1.54,2.1,1.82,1.79,5.36-.61,6.75-1.19.69-2.51,1.05-3.84,1.35-1.24.28-2.5.49-3.75.73-.09.02-.19.01-.36.02ZM3.6,30.5c.12,0,.19,0,.25-.02.96-.21,1.87-.54,2.73-1,.09-.05.17-.11.23-.19.35-.45.42-.95.19-1.47-.24-.53-.68-.83-1.26-.84-.55,0-.97.21-1.22.74-.41.87-.75,1.76-.93,2.76Z"/>
      <path class="cls-1" d="M25.6,12.07c0,1.96-1.61,3.57-3.56,3.56-1.95,0-3.56-1.63-3.55-3.57.02-1.95,1.6-3.53,3.54-3.54,1.96,0,3.56,1.59,3.56,3.55Z"/>
    </g>
  </g>
</svg>