<?xml version="1.0" encoding="UTF-8"?>
<svg id="Layer_2" xmlns="http://www.w3.org/2000/svg" viewBox="0 0 44.08 46.73">
  <defs>
    <style>
      .cls-1 {
        fill: #f44336;
      }
    </style>
  </defs>
  <g id="Layer_1-2" data-name="Layer_1">
    <g>
      <path d="M11.46,3.53c0-.62,0-1.17,0-1.72C11.48.78,12.23,0,13.22,0c.98,0,1.75.77,1.77,1.79.01.55,0,1.1,0,1.69h14.1c0-.54,0-1.08,0-1.63C29.11.78,29.86,0,30.86,0c1,0,1.75.79,1.76,1.86,0,.53,0,1.06,0,1.67.78,0,1.52,0,2.27,0,2.6.03,4.79,1,6.54,2.91,1.51,1.64,2.18,3.61,2.3,5.81.4,7.54.47,15.09.1,22.63-.07,1.56-.11,3.14-.43,4.65-.8,3.82-4.12,6.54-8.02,6.78-6.86.43-13.72.54-20.59.29-2.4-.09-4.82-.13-7.2-.45-3.86-.53-6.93-4.07-7.18-7.97C-.08,30.29-.13,22.4.24,14.51c.07-1.44.11-2.92.43-4.32.89-3.89,4.42-6.62,8.41-6.66.77,0,1.54,0,2.38,0ZM3.68,17.65c-.02.13-.03.2-.03.27-.21,6.67-.13,13.33.31,19.99.17,2.6,2.26,4.68,4.85,4.86,1.61.11,3.23.17,4.84.24,7.2.32,14.4.23,21.59-.24,2.64-.17,4.72-2.24,4.9-4.87.44-6.64.52-13.29.31-19.94,0-.1-.03-.21-.05-.32H3.68ZM14.99,7.08c0,.57,0,1.1,0,1.63-.01,1.08-.76,1.86-1.76,1.87-1,0-1.76-.78-1.77-1.85,0-.54,0-1.09,0-1.67-.69,0-1.31.01-1.93,0-3.54-.08-6.2,2.57-5.62,7.01h36.36c-.05-.8-.05-1.55-.14-2.3-.22-1.97-1.28-3.36-3.04-4.22-1.42-.69-2.93-.45-4.47-.48,0,.6,0,1.15,0,1.69-.02,1.04-.76,1.81-1.74,1.82-1,.01-1.77-.77-1.78-1.84,0-.55,0-1.09,0-1.66h-14.1Z"/>
      <path class="cls-1" d="M15.87,25.56c0,1.47-1.2,2.66-2.67,2.65-1.44,0-2.62-1.19-2.62-2.64,0-1.47,1.2-2.66,2.67-2.65,1.44,0,2.62,1.19,2.62,2.64Z"/>
      <path d="M22.06,22.92c1.47,0,2.65,1.22,2.63,2.69-.02,1.44-1.22,2.61-2.66,2.6-1.46,0-2.65-1.22-2.63-2.69.02-1.44,1.22-2.61,2.67-2.6Z"/>
      <path class="cls-1" d="M33.5,25.54c.01,1.47-1.18,2.67-2.65,2.67-1.44,0-2.63-1.18-2.64-2.62-.01-1.47,1.18-2.67,2.65-2.67,1.45,0,2.63,1.18,2.64,2.62Z"/>
      <path d="M13.24,31.74c1.47,0,2.65,1.22,2.63,2.69-.02,1.44-1.21,2.61-2.66,2.6-1.47,0-2.65-1.22-2.63-2.69.02-1.44,1.21-2.61,2.66-2.6Z"/>
      <path class="cls-1" d="M22.07,31.74c1.47.01,2.65,1.22,2.62,2.7-.02,1.44-1.22,2.61-2.67,2.6-1.46-.01-2.64-1.22-2.62-2.7.02-1.44,1.22-2.61,2.67-2.59Z"/>
      <path d="M30.86,31.74c1.47,0,2.66,1.2,2.64,2.67-.01,1.44-1.2,2.62-2.65,2.62-1.47,0-2.66-1.21-2.64-2.67.01-1.44,1.2-2.62,2.65-2.62Z"/>
    </g>
  </g>
</svg>