<?xml version="1.0" encoding="UTF-8"?>
<svg id="Layer_2" xmlns="http://www.w3.org/2000/svg" viewBox="0 0 28.71 28.72">
  <defs>
    <style>
      .cls-1 {
        fill: #f44336;
      }
    </style>
  </defs>
  <g id="Layer_1-2" data-name="Layer_1">
    <g>
      <path class="cls-1" d="M14.53,7.87c3.78.16,6.44,3.28,6.31,6.75-.14,3.6-3.14,6.4-6.73,6.26-3.71-.14-6.43-3.22-6.28-6.78.16-3.67,3.19-6.32,6.7-6.24ZM10.43,14.35c0,2.17,1.74,3.92,3.9,3.93,2.15,0,3.9-1.74,3.91-3.89,0-2.14-1.75-3.91-3.89-3.92-2.16,0-3.92,1.74-3.92,3.88Z"/>
      <path d="M28.71,20.42c-.05.97-.03,1.96-.17,2.92-.41,2.82-2.95,5.16-5.79,5.32-1.5.09-3.01.05-4.51.04-.77,0-1.3-.6-1.29-1.34.01-.73.58-1.26,1.36-1.27,1.25,0,2.5,0,3.75,0,2.28,0,3.99-1.72,3.99-3.99,0-1.28,0-2.56,0-3.84,0-.62.47-1.15,1.05-1.25.62-.11,1.22.2,1.44.77.08.2.11.43.11.65.01.66,0,1.32,0,1.98.02,0,.03,0,.05,0Z"/>
      <path d="M8.37,2.71c-.81,0-1.63-.08-2.44.02-1.89.23-3.3,1.88-3.32,3.78-.01,1.32,0,2.64,0,3.97,0,.53-.26.94-.74,1.17-.46.22-.91.17-1.33-.12-.35-.25-.53-.6-.53-1.02,0-1.51-.04-3.03.05-4.54C.22,3.11,2.57.6,5.39.16c.44-.07.89-.1,1.34-.11,1.22-.01,2.44-.01,3.66,0,.61,0,1.08.34,1.27.87.18.51.05,1.11-.4,1.42-.24.17-.57.28-.87.3-.67.04-1.34.01-2.01.01,0,.02,0,.03,0,.05Z"/>
      <path d="M20.35,0c.97.05,1.96.03,2.92.17,2.84.41,5.18,2.94,5.34,5.81.09,1.5.05,3.01.04,4.51,0,.77-.6,1.3-1.35,1.28-.72-.02-1.25-.59-1.26-1.34,0-1.26,0-2.52,0-3.78,0-2.27-1.71-3.98-3.97-3.98-1.28,0-2.56,0-3.84,0-.6,0-1.11-.41-1.25-.97-.14-.56.09-1.17.6-1.44.22-.12.5-.18.76-.19.67-.03,1.34,0,2.01,0,0-.02,0-.03,0-.05Z"/>
      <path d="M2.67,20.33c0,.82-.08,1.66.02,2.47.22,1.85,1.87,3.27,3.74,3.3,1.33.02,2.66,0,4,0,.63,0,1.16.43,1.28,1.02.13.6-.17,1.22-.73,1.46-.16.07-.35.12-.53.12-1.5,0-3.01.04-4.51-.04-2.85-.16-5.37-2.5-5.8-5.32-.1-.66-.1-1.34-.11-2.01-.02-1-.01-1.99,0-2.99,0-.62.33-1.09.86-1.28.51-.19,1.11-.06,1.43.39.17.24.29.57.31.86.04.67.01,1.34.01,2.01.02,0,.03,0,.05,0Z"/>
    </g>
  </g>
</svg>