<?xml version="1.0" encoding="UTF-8"?>
<svg id="Layer_2" xmlns="http://www.w3.org/2000/svg" viewBox="0 0 34.13 31.94">
  <defs>
    <style>
      .cls-1 {
        fill: #f44336;
      }
    </style>
  </defs>
  <g id="Layer_1-2" data-name="Layer_1">
    <g>
      <path d="M20.76,3.66c3.26,0,6.53,0,9.79,0,1.95,0,3.47,1.35,3.58,3.28.04.65-.15,1.33-.3,1.98-.82,3.57-1.65,7.13-2.48,10.7-.41,1.74-1.75,2.8-3.54,2.8-5.57,0-11.15,0-16.72,0-1.75,0-3.11-1.05-3.51-2.76-1.15-4.96-2.29-9.93-3.41-14.9-.12-.52-.35-.84-.85-1.05-.83-.34-1.63-.74-2.44-1.12C.11,2.23-.2,1.47.13.77.46.06,1.24-.2,2.02.16c.94.43,1.87.86,2.8,1.3,1,.48,1.64,1.27,1.89,2.35,1.15,5.02,2.3,10.04,3.45,15.06.15.67.38.86,1.07.86,5.49,0,10.99,0,16.48,0,.66,0,.89-.18,1.04-.81.89-3.81,1.77-7.61,2.66-11.42.17-.73-.18-1.15-.93-1.15-6.48,0-12.96,0-19.45,0-.22,0-.45,0-.67-.05-.65-.17-1.04-.77-.97-1.46.07-.65.61-1.15,1.3-1.18.39-.02.78,0,1.18,0,2.96,0,5.92,0,8.88,0Z"/>
      <path class="cls-1" d="M25.39,31.94c-1.9,0-3.41-1.54-3.41-3.43,0-1.89,1.53-3.42,3.42-3.43,1.89,0,3.46,1.57,3.44,3.45-.02,1.89-1.56,3.41-3.45,3.4ZM24.14,28.5c0,.72.55,1.28,1.27,1.28.7,0,1.26-.56,1.27-1.26,0-.7-.58-1.29-1.29-1.28-.7,0-1.26.56-1.26,1.26Z"/>
      <path class="cls-1" d="M16.9,28.52c0,1.89-1.53,3.42-3.42,3.42-1.9,0-3.45-1.55-3.43-3.45.02-1.89,1.56-3.42,3.44-3.41,1.89.01,3.42,1.54,3.41,3.43ZM13.43,29.78c.72.02,1.3-.52,1.31-1.24.01-.7-.52-1.27-1.22-1.3-.71-.03-1.3.53-1.32,1.24-.02.7.53,1.28,1.22,1.3Z"/>
    </g>
  </g>
</svg>