<?xml version="1.0" encoding="UTF-8"?>
<svg id="Layer_2" xmlns="http://www.w3.org/2000/svg" viewBox="0 0 133.34 133.32">
  <defs>
    <style>
      .cls-1 {
        fill: #fff;
      }
    </style>
  </defs>
  <g id="Layer_1-2" data-name="Layer_1">
    <g>
      <path d="M66.72,133.32C30.3,133.49.14,103.57,0,67.14-.14,30.1,29.48.25,66.61,0c36.42-.24,66.59,29.82,66.73,66.49.14,36.78-29.65,66.66-66.63,66.83ZM66.52,58.2c-.47-.58-.8-1.05-1.2-1.45-5.18-5.19-10.38-10.37-15.56-15.57-1.62-1.62-3.51-2.41-5.79-1.92-2.31.5-3.88,1.91-4.57,4.19-.73,2.41-.03,4.47,1.72,6.22,5.28,5.29,10.57,10.58,15.86,15.87.36.36.7.73,1.13,1.18-1.88,1.86-3.66,3.62-5.43,5.39-3.85,3.85-7.73,7.67-11.54,11.56-2.99,3.06-2.24,7.84,1.44,9.72,2.42,1.23,5.16.76,7.27-1.35,5.23-5.21,10.45-10.44,15.67-15.66.36-.36.74-.69,1.16-1.08.42.39.76.7,1.09,1.03,4.08,4.08,8.17,8.17,12.25,12.25,1.34,1.34,2.63,2.73,4.03,4,3.59,3.23,9.12,1.4,10.05-3.31.45-2.28-.41-4.16-2.02-5.76-5.23-5.21-10.45-10.44-15.67-15.66-.36-.36-.7-.74-1.11-1.18.41-.44.75-.82,1.11-1.18,5.22-5.22,10.43-10.45,15.66-15.66,1.61-1.61,2.47-3.48,2.01-5.76-.46-2.32-1.85-3.92-4.12-4.64-2.39-.76-4.49-.13-6.24,1.62-5.3,5.28-10.58,10.57-15.87,15.86-.36.36-.74.71-1.36,1.3Z"/>
      <path class="cls-1" d="M66.52,58.2c.62-.59,1-.93,1.36-1.3,5.29-5.29,10.57-10.58,15.87-15.86,1.75-1.75,3.85-2.38,6.24-1.62,2.27.72,3.66,2.32,4.12,4.64.45,2.28-.4,4.16-2.01,5.76-5.23,5.21-10.45,10.44-15.66,15.66-.36.36-.7.74-1.11,1.18.41.43.75.82,1.11,1.18,5.22,5.22,10.43,10.45,15.67,15.66,1.61,1.61,2.47,3.48,2.02,5.76-.93,4.72-6.46,6.54-10.05,3.31-1.41-1.26-2.7-2.66-4.03-4-4.08-4.08-8.16-8.17-12.25-12.25-.33-.33-.68-.64-1.09-1.03-.42.39-.8.72-1.16,1.08-5.22,5.22-10.43,10.45-15.67,15.66-2.11,2.1-4.86,2.58-7.27,1.35-3.69-1.88-4.44-6.67-1.44-9.72,3.81-3.89,7.68-7.71,11.54-11.56,1.77-1.77,3.55-3.52,5.43-5.39-.43-.46-.77-.83-1.13-1.18-5.29-5.29-10.58-10.58-15.86-15.87-1.74-1.74-2.44-3.81-1.72-6.22.69-2.28,2.26-3.7,4.57-4.19,2.27-.49,4.17.3,5.79,1.92,5.18,5.2,10.38,10.37,15.56,15.57.4.4.73.87,1.2,1.45Z"/>
    </g>
  </g>
</svg>