<?xml version="1.0" encoding="UTF-8"?>
<svg id="Layer_2" xmlns="http://www.w3.org/2000/svg" viewBox="0 0 25.38 25.39">
  <g id="Layer_1-2" data-name="Layer_1">
    <path d="M11.47,12.7c-.16-.13-.25-.19-.33-.27C7.56,8.85,3.99,5.27.41,1.7.13,1.42-.02,1.12.08.73.25.09,1.01-.16,1.53.26c.08.06.15.14.22.22,3.57,3.56,7.13,7.13,10.7,10.69.07.07.13.16.29.34.09-.14.13-.26.2-.34,3.59-3.6,7.19-7.2,10.79-10.8.29-.29.6-.45,1.01-.32.61.19.84.92.44,1.42-.07.1-.17.18-.25.27-3.56,3.57-7.13,7.13-10.69,10.7-.08.08-.17.14-.32.34.1.06.22.09.29.17,3.6,3.59,7.19,7.18,10.78,10.77.21.21.38.42.39.73,0,.37-.15.66-.48.84-.34.18-.67.14-.98-.08-.09-.07-.17-.15-.25-.23-3.57-3.57-7.14-7.14-10.72-10.71-.08-.08-.15-.17-.24-.28-.11.11-.19.18-.27.26-3.6,3.6-7.2,7.2-10.79,10.8-.28.28-.58.45-.99.33-.64-.18-.88-.94-.45-1.45.07-.08.14-.15.22-.22,3.58-3.58,7.16-7.16,10.73-10.73.07-.07.16-.13.31-.24Z"/>
  </g>
</svg>