<?xml version="1.0" encoding="utf-8"?>
<!-- Generator: Adobe Illustrator 28.0.0, SVG Export Plug-In . SVG Version: 6.00 Build 0)  -->
<svg version="1.1" id="Layer_1" xmlns="http://www.w3.org/2000/svg" xmlns:xlink="http://www.w3.org/1999/xlink" x="0px" y="0px"
	 viewBox="0 0 91 90.9" style="enable-background:new 0 0 91 90.9;" xml:space="preserve">
<style type="text/css">
	.st0{fill:#FFFFFF;}
</style>
<path class="st0" d="M63,61c-0.6,1.5-1.8,2.3-3.9,2.3c-1-0.1-2-0.7-2.6-1.5c-3.3-3.3-6.7-6.6-9.9-9.9c-0.9-0.9-1.4-0.9-2.2,0
	c-3.2,3.3-6.5,6.6-9.8,9.8c-1.9,1.9-4.4,2-5.9,0.4c-1.5-1.6-1.3-3.9,0.6-5.8c3.2-3.3,6.5-6.6,9.8-9.8c0.8-0.8,0.9-1.3,0-2.2
	c-3.5-3.3-6.8-6.7-10.2-10.1c-1-0.9-1.5-2.3-1.2-3.6c0.4-2,2.4-3.3,4.5-2.9c0.9,0.2,1.8,0.7,2.4,1.5c3.3,3.3,6.6,6.6,9.9,9.9
	c0.8,0.9,1.3,0.8,2.1,0c3.3-3.4,6.7-6.8,10.2-10.2c0.9-1,2.3-1.5,3.6-1.2c2,0.4,3.4,2.4,3,4.5c-0.2,1-0.8,1.9-1.6,2.5
	c-3.2,3.2-6.4,6.5-9.7,9.6c-0.9,0.9-1.1,1.3-0.1,2.3c3.5,3.3,6.8,6.7,10.2,10.1C63.3,57.8,63.7,59.5,63,61z"/>
<g id="Layer_2_00000003105311734664951940000007746156825165213848_">
	<g id="Layer_1-2">
		<path d="M45.5,0C20.4,0,0,20.4,0,45.5C0,70.6,20.3,90.9,45.4,91h0.1C70.6,91,91,70.6,91,45.5S70.6,0,45.5,0z M63,61
			c-0.6,1.5-1.8,2.3-3.9,2.3c-1-0.1-2-0.7-2.6-1.5c-3.3-3.3-6.7-6.6-9.9-9.9c-0.9-0.9-1.4-0.9-2.2,0c-3.2,3.3-6.5,6.6-9.8,9.8
			c-1.9,1.9-4.4,2-5.9,0.4c-1.5-1.6-1.3-3.9,0.6-5.8c3.2-3.3,6.5-6.6,9.8-9.8c0.8-0.8,0.9-1.3,0-2.2c-3.5-3.3-6.8-6.7-10.2-10.1
			c-1-0.9-1.5-2.3-1.2-3.6c0.4-2,2.4-3.3,4.5-2.9c0.9,0.2,1.8,0.7,2.4,1.5c3.3,3.3,6.6,6.6,9.9,9.9c0.8,0.9,1.3,0.8,2.1,0
			c3.3-3.4,6.7-6.8,10.2-10.2c0.9-1,2.3-1.5,3.6-1.2c2,0.4,3.4,2.4,3,4.5c-0.2,1-0.8,1.9-1.6,2.5c-3.2,3.2-6.4,6.5-9.7,9.6
			c-0.9,0.9-1.1,1.3-0.1,2.3c3.5,3.3,6.8,6.7,10.2,10.1C63.3,57.8,63.7,59.5,63,61z"/>
	</g>
</g>
</svg>
