<?xml version="1.0" encoding="UTF-8"?>
<svg id="Layer_2" xmlns="http://www.w3.org/2000/svg" viewBox="0 0 34.27 44.91">
  <defs>
    <style>
      .cls-1 {
        fill: #f44336;
      }
    </style>
  </defs>
  <g id="Layer_1-2" data-name="Layer_1">
    <g>
      <path d="M0,17.23C0,9.4,5.26,2.54,12.78.56c7.68-2.02,15.93,1.59,19.46,8.71,3.16,6.36,2.63,12.54-1.55,18.29-4.05,5.56-8.21,11.04-12.33,16.55-.03.05-.07.09-.11.14-.67.88-1.63.89-2.3,0-1.94-2.6-3.88-5.19-5.82-7.79-2.2-2.95-4.4-5.9-6.6-8.85C1.18,24.46,0,20.99,0,17.23ZM17.09,41.37c.11-.14.19-.23.26-.32,3.76-5.03,7.52-10.06,11.27-15.1,2.6-3.5,3.51-7.42,2.65-11.68C29.68,6.49,22.21,1.48,14.49,2.88c-6.55,1.18-11.69,7.1-11.85,13.77-.09,3.47.9,6.59,2.99,9.36,2.66,3.54,5.3,7.09,7.94,10.64,1.16,1.56,2.32,3.11,3.52,4.72Z"/>
      <path class="cls-1" d="M7.94,18.51c-.43,0-.87,0-1.3,0-.8-.01-1.39-.58-1.38-1.34.01-.73.59-1.28,1.37-1.29.44,0,.87,0,1.3,0,.91-4.32,3.51-6.92,7.84-7.84,0-.41,0-.85,0-1.29.01-.81.57-1.39,1.32-1.39.75,0,1.3.59,1.31,1.41,0,.42,0,.85,0,1.27,4.31.91,6.91,3.51,7.84,7.84.41,0,.84,0,1.28,0,.81,0,1.4.56,1.4,1.31,0,.75-.58,1.31-1.39,1.32-.42,0-.85,0-1.28,0-.91,4.3-3.49,6.91-7.84,7.84,0,.4,0,.83,0,1.27,0,.82-.55,1.4-1.3,1.41-.77,0-1.32-.59-1.33-1.43,0-.42,0-.84,0-1.25-4.32-.92-6.93-3.52-7.84-7.84ZM18.42,23.59c2.69-.42,4.83-2.95,5.07-5.08-.31,0-.61,0-.92,0-.92,0-1.52-.53-1.52-1.33,0-.78.61-1.3,1.5-1.3.32,0,.63,0,.95,0-.21-2.27-2.88-4.94-5.08-5.07,0,.36,0,.73,0,1.09-.02.78-.58,1.35-1.32,1.35-.74,0-1.3-.58-1.31-1.36,0-.36,0-.72,0-1.09-2.54.34-4.89,2.91-5.04,5.08.35,0,.7,0,1.05,0,.78.01,1.36.57,1.36,1.3,0,.74-.57,1.31-1.34,1.33-.36,0-.73,0-1.09,0,.27,2.35,2.7,4.81,5.07,5.06,0-.37,0-.73,0-1.09.02-.75.58-1.32,1.29-1.33.74-.01,1.32.56,1.34,1.33,0,.36,0,.73,0,1.12Z"/>
      <path d="M17.12,15.88c.71,0,1.3.61,1.3,1.32,0,.73-.63,1.33-1.35,1.31-.71-.02-1.29-.63-1.28-1.34.01-.71.62-1.3,1.33-1.29Z"/>
    </g>
  </g>
</svg>