<?xml version="1.0" encoding="UTF-8"?>
<svg id="Layer_2" xmlns="http://www.w3.org/2000/svg" viewBox="0 0 34.81 42.84">
  <defs>
    <style>
      .cls-1 {
        fill: #f44336;
      }
    </style>
  </defs>
  <g id="Layer_1-2" data-name="Layer_1">
    <g>
      <path d="M2.06,14.73c-.25,0-.49,0-.72,0-.73-.03-1.31-.57-1.32-1.3-.01-1.63-.03-3.26,0-4.89.04-1.75,1.52-3.16,3.31-3.17,2.3-.02,4.6,0,6.9,0,.15,0,.3,0,.45,0,.04-.71.02-1.38.12-2.03C11.09,1.47,12.72.05,14.6.02c1.87-.03,3.74-.03,5.6,0,2.11.03,3.83,1.77,3.89,3.88.01.47,0,.94,0,1.47.18,0,.33,0,.48,0,2.23,0,4.46,0,6.69,0,2.12,0,3.54,1.42,3.54,3.54,0,1.42,0,2.84,0,4.26,0,1.06-.51,1.56-1.56,1.57-.15,0-.3,0-.5,0-.03.53-.07,1.04-.09,1.55-.18,3.79-.35,7.57-.53,11.36-.19,3.86-.35,7.71-.58,11.57-.12,2.01-1.84,3.59-3.86,3.62-1.64.03-3.29,0-4.93,0-5.12,0-10.23,0-15.35,0-2.09,0-3.75-1.3-4.09-3.28-.14-.85-.14-1.72-.18-2.58-.18-3.79-.36-7.57-.53-11.36-.17-3.56-.34-7.13-.51-10.69,0-.04-.01-.08-.03-.19ZM4.77,14.75c.04.97.08,1.89.13,2.8.21,4.48.43,8.97.64,13.45.12,2.53.23,5.07.36,7.6.06,1.11.54,1.55,1.63,1.55,6.61,0,13.21,0,19.82,0,.99,0,1.49-.46,1.56-1.45.06-.85.08-1.7.12-2.55.15-3.16.3-6.32.45-9.48.18-3.81.37-7.63.55-11.44,0-.16,0-.32,0-.48H4.77ZM32.13,12.04c0-.13,0-.26,0-.39,0-.85,0-1.7,0-2.55,0-.89-.16-1.05-1.04-1.05-8.42,0-16.84,0-25.26,0-.77,0-1.53,0-2.3,0-.61,0-.84.23-.84.83,0,.78,0,1.56,0,2.34,0,.27,0,.55,0,.83h29.44ZM21.42,5.35c0-.49.02-.93,0-1.38-.03-.71-.58-1.27-1.3-1.27-1.81-.01-3.62-.01-5.43,0-.63,0-1.18.46-1.26,1.08-.06.52-.01,1.04-.01,1.58h8Z"/>
      <path class="cls-1" d="M12.06,27.44c0,2.87,0,5.74,0,8.61,0,1.02-.91,1.7-1.8,1.34-.54-.21-.84-.62-.87-1.21,0-.1,0-.19,0-.29,0-5.63,0-11.25,0-16.88,0-.17,0-.34.02-.5.12-.67.74-1.15,1.42-1.1.66.05,1.19.59,1.24,1.26,0,.14,0,.28,0,.42,0,2.79,0,5.57,0,8.36Z"/>
      <path d="M18.75,27.46c0,2.87,0,5.74,0,8.61,0,.63-.32,1.12-.84,1.32-.53.2-1.02.09-1.43-.29-.31-.3-.41-.67-.41-1.1,0-2.45,0-4.9,0-7.35,0-3.27,0-6.55,0-9.82,0-1.02.91-1.67,1.82-1.32.54.21.85.7.86,1.35,0,2.55,0,5.1,0,7.65,0,.32,0,.64,0,.96Z"/>
      <path class="cls-1" d="M25.44,27.49c0,2.86,0,5.71,0,8.57,0,1.04-.95,1.72-1.85,1.32-.56-.25-.83-.71-.83-1.33,0-1.69,0-3.37,0-5.06,0-4.05,0-8.11,0-12.16,0-1.04.94-1.71,1.85-1.32.59.25.83.73.83,1.37,0,2.87,0,5.74,0,8.61Z"/>
    </g>
  </g>
</svg>