<?xml version="1.0" encoding="UTF-8"?>
<svg id="Layer_2" xmlns="http://www.w3.org/2000/svg" viewBox="0 0 25.25 30.31">
  <defs>
    <style>
      .cls-1 {
        fill: #f44336;
      }
    </style>
  </defs>
  <g id="Layer_1-2" data-name="Layer_1">
    <g>
      <path d="M0,15.12c0-2.88,0-5.76,0-8.64C0,2.77,2.76,0,6.48,0,8.85,0,11.21.01,13.58,0c.58,0,1.02.18,1.43.6,3.21,3.24,6.44,6.46,9.67,9.68.39.39.56.82.56,1.37,0,4.1,0,8.2,0,12.31,0,3.54-2.79,6.34-6.33,6.35-4.19.01-8.39.01-12.58,0C2.8,30.29.01,27.5,0,23.96c0-2.95,0-5.89,0-8.84ZM12.62,2.53c-.18,0-.31,0-.44,0-1.89,0-3.79,0-5.68,0-2.34,0-3.97,1.62-3.97,3.96,0,5.77,0,11.55,0,17.32,0,2.34,1.63,3.96,3.97,3.96,4.07,0,8.15,0,12.22,0,2.37,0,3.99-1.61,3.99-3.98,0-3.58,0-7.15,0-10.73,0-.14,0-.28,0-.43-1.11,0-2.16.01-3.21,0-.6-.01-1.22,0-1.8-.13-3.03-.62-5.08-3.16-5.08-6.25,0-1.22,0-2.44,0-3.71ZM15.15,4.45c0,.6-.03,1.23,0,1.85.02.43.09.86.22,1.27.31.97.97,1.67,1.86,2.13,1.15.6,2.39.36,3.56.4-1.89-1.89-3.77-3.77-5.65-5.65Z"/>
      <path d="M12.63,18.94c-1.68,0-3.36,0-5.04,0-.67,0-1.2-.49-1.27-1.12-.07-.63.33-1.2.95-1.36.11-.03.23-.04.35-.04,3.33,0,6.67,0,10,0,.69,0,1.23.47,1.31,1.12.07.63-.35,1.23-.99,1.37-.15.03-.31.03-.47.03-1.61,0-3.23,0-4.84,0Z"/>
      <path d="M12.67,21.47c1.61,0,3.23,0,4.84,0,.84,0,1.41.51,1.42,1.25,0,.76-.57,1.28-1.43,1.28-3.26,0-6.51,0-9.77,0-.84,0-1.41-.51-1.42-1.25,0-.76.57-1.28,1.43-1.28,1.64,0,3.28,0,4.92,0Z"/>
      <path class="cls-1" d="M8.84,13.89c-.42,0-.84,0-1.26,0-.73-.02-1.28-.58-1.27-1.28,0-.69.55-1.23,1.26-1.24.84-.01,1.68-.01,2.52,0,.71,0,1.26.56,1.27,1.24.01.7-.54,1.26-1.26,1.28-.42.01-.84,0-1.26,0Z"/>
    </g>
  </g>
</svg>