<?xml version="1.0" encoding="UTF-8"?>
<svg id="Layer_2" xmlns="http://www.w3.org/2000/svg" viewBox="0 0 122.43 69.3">
  <g id="Layer_1-2" data-name="Layer_1">
    <path d="M61.1,50.61c1.23-1.51,1.79-2.34,2.5-3.05,14.92-14.95,29.87-29.88,44.8-44.83,2.55-2.55,5.51-3.37,8.88-2.17,3.11,1.11,4.79,3.49,5.12,6.75.3,2.98-1.12,5.22-3.16,7.26-11.55,11.5-23.07,23.04-34.59,34.56-5.65,5.65-11.27,11.31-16.94,16.93-4.37,4.34-8.63,4.31-13.02-.08C37.5,48.82,20.34,31.64,3.15,14.49,1.16,12.51-.2,10.33.03,7.46.28,4.31,1.86,1.93,4.8.7,7.69-.51,10.5-.16,13.01,1.81c.72.56,1.34,1.24,1.99,1.89,14.7,14.7,29.41,29.39,44.1,44.11.64.64,1.07,1.48,2,2.8Z"/>
  </g>
</svg>