<?xml version="1.0" encoding="UTF-8"?>
<svg id="Layer_2" xmlns="http://www.w3.org/2000/svg" viewBox="0 0 70.29 70.29">
  <defs>
    <style>
      .cls-1 {
        fill: #f44336;
      }

      .cls-2 {
        fill: #f2f2f2;
      }
    </style>
  </defs>
  <g id="Layer_1-2" data-name="Layer_1">
    <g>
      <circle class="cls-2" cx="35.14" cy="35.14" r="35.14"/>
      <g>
        <path d="M25.16,27.34c.58-5.1,5-8.96,10.11-8.89,4.98.07,9.23,3.84,9.83,8.79.88.18,1.76.28,2.59.55,3.32,1.1,5.51,4.43,5.24,7.88-.28,3.59-2.9,6.51-6.4,7.12-.42.07-.85.12-1.28.13-1.87.01-3.73.01-5.6,0-.89,0-1.45-.85-1.06-1.61.22-.44.6-.62,1.08-.62,1.81,0,3.62,0,5.42,0,2.72,0,4.95-1.83,5.51-4.49.69-3.3-1.9-6.55-5.27-6.62-.41,0-.81,0-1.22,0-.72,0-1.17-.45-1.19-1.16-.11-3.91-2.71-6.94-6.55-7.64-4.03-.73-8.17,2.17-8.88,6.22-.08.47-.12.94-.14,1.41-.04.72-.47,1.17-1.19,1.17-.86,0-1.71-.03-2.55.21-2.52.71-4.24,3.15-4.04,5.76.2,2.61,2.22,4.77,4.8,5.09.56.07,1.13.06,1.7.06,1.5,0,2.99,0,4.49,0,.74,0,1.24.45,1.25,1.11,0,.66-.5,1.12-1.24,1.12-1.83,0-3.66.01-5.49,0-4.46-.04-7.98-3.8-7.72-8.25.23-4,3.55-7.21,7.55-7.32.09,0,.18-.01.27-.02Z"/>
        <path class="cls-1" d="M36.26,48.01c.14-.13.22-.2.3-.28.75-.74,1.49-1.5,2.24-2.23.47-.46,1.15-.45,1.59,0,.43.43.44,1.11,0,1.56-1.48,1.49-2.96,2.97-4.45,4.45-.47.46-1.12.46-1.59,0-1.48-1.47-2.95-2.94-4.42-4.42-.46-.47-.46-1.15-.01-1.59.44-.44,1.12-.44,1.59.02.82.81,1.63,1.64,2.53,2.54,0-.21,0-.33,0-.45,0-4.45,0-8.9,0-13.34,0-.19,0-.4.07-.58.15-.5.64-.8,1.16-.75.52.05.95.48,1,1,.01.13,0,.25,0,.38,0,4.41,0,8.83,0,13.24,0,.13,0,.25,0,.47Z"/>
      </g>
    </g>
  </g>
</svg>