<?xml version="1.0" encoding="UTF-8"?>
<svg id="Layer_2" xmlns="http://www.w3.org/2000/svg" viewBox="0 0 92.83 69.56">
  <defs>
    <style>
      .cls-1 {
        fill: #fff;
      }
    </style>
  </defs>
  <g id="Layer_1-2" data-name="Layer_1">
    <path class="cls-1" d="M46.44,69.56c-12.48,0-24.95,0-37.43,0-4.32,0-7.69-2.46-8.7-6.39-.2-.78-.29-1.61-.29-2.41C0,43.44,0,26.13,0,8.82,0,3.77,3.68.02,8.74.02c25.1-.02,50.21-.02,75.31,0,5.1,0,8.77,3.73,8.78,8.85,0,17.25,0,34.5,0,51.75,0,5.27-3.67,8.94-8.96,8.94-12.48.01-24.95,0-37.43,0ZM87.38,16.61c-.46.29-.78.49-1.1.7-11.58,7.72-23.16,15.44-34.74,23.15-3.47,2.31-6.83,2.28-10.31-.04-11.63-7.75-23.26-15.51-34.89-23.26-.26-.17-.53-.34-.9-.57v1.07c0,14.26,0,28.52,0,42.78,0,2.48,1.18,3.68,3.65,3.68,24.86,0,49.73,0,74.59,0,2.53,0,3.69-1.18,3.69-3.73,0-13.93,0-27.85,0-41.78v-2ZM46.51,5.45c-12.35,0-24.71,0-37.06,0-.33,0-.67-.01-1,.01-1.45.1-2.53.97-2.9,2.33-.35,1.28.11,2.37,1.4,3.23,12.38,8.26,24.76,16.51,37.14,24.77,1.85,1.23,2.8,1.24,4.63.02,9.27-6.18,18.54-12.36,27.8-18.54,3.16-2.11,6.33-4.22,9.49-6.33,1.06-.71,1.56-1.69,1.3-2.95-.27-1.29-1.07-2.15-2.39-2.42-.44-.09-.9-.1-1.35-.1-12.35,0-24.71,0-37.06,0Z"/>
  </g>
</svg>