<?xml version="1.0" encoding="UTF-8"?>
<svg id="Layer_2" xmlns="http://www.w3.org/2000/svg" viewBox="0 0 90.58 93.52">
  <defs>
    <style>
      .cls-1 {
        fill: #f44336;
      }
    </style>
  </defs>
  <g id="Layer_1-2" data-name="Layer_1">
    <g>
      <path d="M74.56,30.82c0,.33,0,.66,0,.99,0,4.02,0,8.04.01,12.05,0,.51.08,1.03.24,1.51,2.15,6.59,4.33,13.16,6.47,19.75.2.61.45.87,1.13.85,1.61-.06,3.22-.02,4.95-.02-.13-.43-.23-.77-.34-1.1-1.78-5.4-3.56-10.79-5.33-16.19-.1-.32-.21-.64-.23-.97-.03-.69.31-1.28.98-1.31.49-.03,1.03.29,1.49.55.19.11.23.48.31.74,2,6.06,4.01,12.12,5.98,18.19.22.68.33,1.43.34,2.14.02,7.09.02,14.18.01,21.28,0,2.77-1.46,4.24-4.2,4.24-27.4,0-54.79,0-82.19,0-2.69,0-4.17-1.48-4.17-4.18,0-1.67,0-3.35,0-5.02,0-1.11.55-1.77,1.42-1.74.83.03,1.31.66,1.32,1.74,0,1.61,0,3.23,0,4.84,0,1.41.22,1.62,1.65,1.62,26.36,0,52.72,0,79.08,0,1.03,0,2.07-.01,3.1,0,.84.01,1.24-.38,1.24-1.21,0-6.54,0-13.09,0-19.63,0-.83-.41-1.23-1.23-1.23-5.54,0-11.08,0-16.62,0-.69,0-1.03.37-1.31.94-.97,2.03-1.99,4.04-2.94,6.07-.81,1.73-2.12,2.52-4.05,2.52-10.93-.03-21.86-.03-32.78,0-1.94,0-3.23-.8-4.04-2.53-.94-2.01-1.96-3.98-2.9-5.99-.35-.74-.83-1.01-1.63-1.01-5.36.02-10.71.01-16.07.01-1.22,0-1.49.28-1.49,1.51,0,2.22,0,4.44,0,6.67,0,1.05-.54,1.68-1.39,1.66-.82-.02-1.35-.62-1.35-1.62-.01-3.14-.02-6.27.01-9.41,0-.59.17-1.21.36-1.78,3.8-11.58,7.62-23.15,11.43-34.72.72-2.2,1.89-3.04,4.19-3.04,6.39,0,12.78,0,19.18-.02.49,0,1.02-.16,1.45-.39,5.75-3.1,11.49-3.14,17.25-.04.48.26,1.08.43,1.62.43,6.3.03,12.6.02,18.9.02,2.53,0,3.64.81,4.44,3.22,1.01,3.06,2.02,6.12,3,9.19.13.41.26,1,.08,1.3-.24.4-.83.85-1.23.82-.45-.03-1.09-.49-1.26-.91-.63-1.55-1.09-3.16-1.62-4.74-.56-1.7-1.12-3.41-1.67-5.11-.24-.73-.65-1.14-1.57-.92ZM78.58,65.96c-.03-.23-.03-.38-.08-.52-2.17-6.61-4.36-13.21-6.53-19.82-.21-.65-.63-.89-1.3-.88-2.5.02-4.99.03-7.49,0-.61,0-.81.19-.93.79-1.26,6.34-4.9,10.73-10.9,13.14-.87.35-1.79.58-2.72.73-.71.12-1.23-.31-1.37-1.04-.14-.72.14-1.25.82-1.54.19-.08.41-.13.61-.18,7.53-1.89,12.2-9.13,10.83-16.83-1.3-7.37-8.29-12.5-15.9-11.69-10.39,1.11-16.23,12.86-10.84,21.81,2.03,3.36,4.94,5.55,8.71,6.62.12.03.23.06.35.1,1.03.3,1.47.92,1.25,1.77-.21.78-.93,1.13-1.9.91-6.46-1.46-11.84-7.14-12.89-13.68-.12-.76-.41-.91-1.11-.9-2.31.04-4.63.06-6.94,0-1.03-.03-1.53.33-1.84,1.31-1.48,4.63-3.03,9.24-4.54,13.86-.65,1.99-1.3,3.98-1.98,6.08.41,0,.71,0,1,0,2.53,0,5.05,0,7.58,0,1.79,0,3.07.77,3.84,2.41.97,2.06,2.02,4.09,2.99,6.15.31.66.71.97,1.46.97,10.99-.02,21.97-.02,32.96,0,.75,0,1.16-.29,1.48-.95.97-2.06,2.02-4.09,2.99-6.15.79-1.68,2.1-2.44,3.92-2.43,2.4.02,4.81,0,7.21,0,.39,0,.78,0,1.22,0ZM3.2,65.96c1.75,0,3.33-.04,4.91.02.7.03.99-.2,1.21-.87,2.14-6.58,4.32-13.16,6.47-19.74.15-.45.23-.95.23-1.42.02-4.08.01-8.15.01-12.23,0-.3,0-.59,0-.9-1.04-.24-1.37.33-1.62,1.1-2.91,8.86-5.83,17.71-8.74,26.56-.81,2.45-1.61,4.89-2.46,7.48ZM57.95,30.77c2.93,3.28,4.4,6.99,4.62,11.18h9.17v-11.18h-13.79ZM18.84,30.78v11.18h9.17c.2-4.23,1.71-7.91,4.59-11.18h-13.76Z"/>
      <path class="cls-1" d="M16.93,14.51c.01-3.46,2.85-6.28,6.28-6.25,3.45.03,6.23,2.87,6.2,6.33-.02,3.4-2.84,6.2-6.24,6.2-3.44,0-6.25-2.83-6.24-6.29ZM19.67,14.5c-.01,1.96,1.57,3.56,3.51,3.55,1.9-.01,3.47-1.58,3.48-3.49.01-1.95-1.58-3.56-3.51-3.55-1.91.01-3.46,1.57-3.48,3.49Z"/>
      <path class="cls-1" d="M63.03,6.95c.01,2.93-2.33,5.29-5.24,5.29-2.88,0-5.21-2.33-5.23-5.21-.02-2.94,2.31-5.28,5.24-5.28,2.89,0,5.21,2.31,5.23,5.2ZM55.31,6.94c-.02,1.39,1.06,2.52,2.43,2.55,1.37.03,2.51-1.08,2.53-2.45.02-1.4-1.04-2.51-2.44-2.53-1.4-.02-2.51,1.04-2.53,2.43Z"/>
      <path d="M35.83,1.55c1.98-1.66,2.51-1.83,3.2-1.11.68.72.5,1.25-1.28,3.26.4.28.89.51,1.24.87.6.62.56,1.41-.02,1.95-.54.51-1.28.52-1.89-.03-.36-.32-.65-.71-1.16-1.28-.39.48-.66.89-1,1.22-.67.64-1.47.62-2.02.03-.53-.57-.51-1.31.11-1.95.31-.33.7-.58,1.25-1.04-.55-.47-.98-.76-1.32-1.13-.58-.63-.55-1.41.03-1.95.54-.51,1.28-.52,1.89.03.36.33.64.73.99,1.13Z"/>
      <path d="M66.95,18.89c-1.71,1.52-2.33,1.73-3.02,1.05-.7-.68-.51-1.27,1.01-3.04-.6-.93-2.36-1.7-.95-3.04,1.29-1.23,2.04.37,2.94,1.02.95-.6,1.72-2.35,3.06-.94,1.22,1.28-.38,2.04-1.04,2.94.63.95,2.36,1.74.94,3.06-1.29,1.21-2.04-.39-2.95-1.05Z"/>
      <path class="cls-1" d="M10.9,82.92c-.82,0-1.64.02-2.46,0-.85-.03-1.42-.59-1.43-1.35-.01-.76.55-1.36,1.4-1.38,1.64-.03,3.28-.03,4.92,0,.85.01,1.43.59,1.44,1.34.01.78-.59,1.36-1.49,1.39-.79.02-1.58,0-2.37,0Z"/>
      <path class="cls-1" d="M10.91,87.19c-.82,0-1.64.02-2.46,0-.88-.03-1.42-.56-1.44-1.33-.01-.75.53-1.37,1.39-1.39,1.67-.04,3.34-.04,5.01,0,.83.02,1.42.69,1.35,1.42-.09.8-.56,1.25-1.38,1.29-.06,0-.12,0-.18,0-.76,0-1.52,0-2.28,0,0,0,0,0,0,0Z"/>
      <path d="M37.28,15.18c.21.17.69.4.95.79.73,1.08,1.38,2.21,2.02,3.34.44.78.24,1.59-.44,1.97-.65.37-1.43.17-1.88-.54-.71-1.13-1.41-2.26-2.05-3.43-.55-.99.06-2.09,1.4-2.12Z"/>
      <path d="M51.51,21.53c-1.2,0-1.92-1.04-1.44-1.93.7-1.31,1.48-2.57,2.31-3.8.43-.64,1.13-.71,1.77-.3.65.41.86,1.06.48,1.73-.71,1.27-1.46,2.51-2.27,3.72-.21.31-.66.46-.85.58Z"/>
      <path class="cls-1" d="M46.58,16.3c0,.7.03,1.39,0,2.09-.04.78-.61,1.33-1.33,1.34-.72.01-1.35-.52-1.38-1.29-.05-1.39-.04-2.79,0-4.18.03-.84.65-1.35,1.43-1.32.75.03,1.25.54,1.29,1.36.03.67,0,1.33,0,2h0Z"/>
      <path d="M45.11,44.72c1.47-.01,2.81.4,3.98,1.3.79.61.95,1.37.44,2.04-.47.63-1.23.72-2.01.2-1.61-1.09-3.22-1.08-4.84-.02-.8.52-1.53.45-2.01-.2-.5-.67-.35-1.45.44-2.04,1.18-.89,2.52-1.3,3.99-1.28Z"/>
      <path class="cls-1" d="M54.23,40.94c0,.76-.66,1.38-1.42,1.35-.74-.03-1.31-.63-1.31-1.37,0-.75.57-1.32,1.32-1.34.78-.02,1.42.59,1.41,1.35Z"/>
      <path class="cls-1" d="M37.71,39.58c.75-.01,1.35.54,1.38,1.28.04.78-.56,1.42-1.34,1.43-.76,0-1.41-.63-1.4-1.38.01-.72.62-1.31,1.35-1.32Z"/>
    </g>
  </g>
</svg>