<?xml version="1.0" encoding="UTF-8"?>
<svg id="Layer_2" xmlns="http://www.w3.org/2000/svg" viewBox="0 0 34.67 34.67">
  <defs>
    <style>
      .cls-1 {
        fill: #f44336;
      }
    </style>
  </defs>
  <g id="Layer_1-2" data-name="Layer_1">
    <g>
      <path d="M0,17.33C0,7.73,7.78-.01,17.4,0c9.52.01,17.27,7.8,17.27,17.34,0,9.53-7.78,17.34-17.25,17.32C7.75,34.65,0,26.93,0,17.33ZM32.21,17.33c-.02-8.19-6.66-14.86-14.8-14.84-8.27.01-14.95,6.68-14.91,14.89.03,8.21,6.69,14.83,14.9,14.82,8.18-.01,14.82-6.68,14.81-14.86Z"/>
      <path class="cls-1" d="M17.39,19.15c-.85.82-1.69,1.62-2.51,2.43-.62.61-1.21,1.23-1.82,1.84-.58.58-1.33.62-1.85.1-.51-.51-.48-1.25.09-1.82,1.42-1.44,2.84-2.88,4.29-4.36-.1-.11-.19-.21-.29-.3-1.33-1.33-2.66-2.66-3.99-3.99-.41-.41-.5-.93-.27-1.42.22-.47.72-.8,1.22-.69.31.06.64.23.86.45,1.31,1.28,2.6,2.58,3.89,3.87.1.1.18.22.28.36.16-.15.26-.24.36-.33,1.35-1.35,2.7-2.7,4.05-4.05.39-.39.86-.52,1.38-.33.49.18.76.56.8,1.08.03.44-.16.79-.47,1.09-1.34,1.31-2.66,2.62-4,3.93-.09.09-.19.17-.33.28.12.13.21.23.31.32,1.38,1.36,2.75,2.71,4.13,4.07.37.37.51.8.34,1.31-.17.5-.52.79-1.04.86-.46.07-.82-.13-1.14-.45-1.34-1.34-2.68-2.68-4.02-4.02-.1-.1-.2-.19-.26-.25Z"/>
    </g>
  </g>
</svg>