<?xml version="1.0" encoding="UTF-8"?>
<svg id="Layer_2" xmlns="http://www.w3.org/2000/svg" viewBox="0 0 82.89 82.92">
  <defs>
    <style>
      .cls-1 {
        fill: #fff;
      }
    </style>
  </defs>
  <g id="Layer_1-2" data-name="Layer_1">
    <g>
      <path class="cls-1" d="M41.47,0c22.89.03,41.44,18.61,41.42,41.49-.02,22.9-18.61,41.46-41.47,41.44C18.53,82.9-.03,64.31,0,41.43.03,18.54,18.6-.03,41.47,0ZM41.43,78.85c20.58,0,37.4-16.81,37.39-37.4,0-20.56-16.75-37.34-37.31-37.37-20.59-.04-37.4,16.73-37.44,37.34-.04,20.57,16.77,37.41,37.36,37.42Z"/>
      <path class="cls-1" d="M34.91,33.01c0-1.63-.09-3.19.02-4.74.12-1.65.27-3.32.69-4.91.96-3.6,3.49-5.7,7.13-6,3.75-.32,7.53-.19,11.3-.24.75-.01.85.5.85,1.11-.01,2.84-.03,5.69,0,8.53.01.88-.32,1.19-1.18,1.18-2.65-.03-5.3,0-7.96,0-.34,0-.69,0-1.08,0v5.1c.35.02.68.05,1.02.05,2.65,0,5.31.02,7.96,0,.9-.01,1.25.3,1.24,1.23-.04,2.84-.04,5.69,0,8.53.01.92-.32,1.26-1.22,1.24-2.4-.03-4.79-.01-7.19-.01-.35,0-.7,0-1.19,0v1.18c0,6.39,0,12.78,0,19.17,0,1.29-.09,1.38-1.34,1.38-2.62,0-5.24-.02-7.86.01-.93.01-1.22-.34-1.22-1.25.02-6.42.01-12.85.01-19.27,0-.37,0-.75,0-1.24-1.03,0-1.95.03-2.87,0-1.26-.04-2.53-.13-3.79-.2-.08-1.29-.2-2.57-.23-3.86-.04-1.92.02-3.84-.02-5.75-.02-.88.34-1.2,1.19-1.19,1.57.03,3.13.01,4.7,0,.31,0,.62-.03,1.04-.05Z"/>
    </g>
  </g>
</svg>