<?xml version="1.0" encoding="UTF-8"?>
<svg id="Layer_2" xmlns="http://www.w3.org/2000/svg" viewBox="0 0 34.57 41.03">
  <defs>
    <style>
      .cls-1 {
        fill: #f44336;
      }
    </style>
  </defs>
  <g id="Layer_1-2" data-name="Layer_1">
    <g>
      <path d="M17.29,34.55c-2.36,1.77-4.66,3.53-7.01,5.23-2.62,1.9-6.07,1.61-8.37-.66C.63,37.86.01,36.31.01,34.53,0,25.17-.01,15.82.02,6.46.03,2.83,2.86.03,6.5.02c7.18-.02,14.36-.02,21.55,0,3.72.01,6.51,2.85,6.52,6.61.01,5.77,0,11.53,0,17.3,0,3.49.01,6.98,0,10.47-.01,3.22-1.99,5.74-5.06,6.46-2.02.47-3.83-.02-5.47-1.25-2.06-1.55-4.12-3.1-6.19-4.64-.17-.13-.35-.26-.56-.41ZM3.25,20.51c0,4.57,0,9.14,0,13.71,0,.4.03.82.13,1.2.6,2.2,3.2,3.06,5.08,1.68,2.22-1.64,4.43-3.31,6.64-4.97,1.48-1.11,2.87-1.12,4.35,0,2.17,1.62,4.35,3.25,6.51,4.89,1.11.84,2.3,1.04,3.55.42,1.25-.62,1.81-1.7,1.81-3.09,0-9.21,0-18.41,0-27.62,0-2.13-1.34-3.46-3.48-3.47-7.03,0-14.06,0-21.09,0-.32,0-.65,0-.95.07-1.57.35-2.54,1.64-2.54,3.38,0,4.6,0,9.21,0,13.81Z"/>
      <path class="cls-1" d="M17.28,12.41c-2.14,0-4.28.01-6.42,0-1.27-.01-2.05-1.23-1.5-2.32.34-.68.93-.92,1.67-.92,2.91,0,5.83,0,8.74,0,1.31,0,2.63-.01,3.94,0,.81.01,1.4.47,1.61,1.21.19.65-.06,1.41-.68,1.75-.32.18-.73.26-1.1.27-2.09.02-4.18.01-6.27.01Z"/>
    </g>
  </g>
</svg>