<?xml version="1.0" encoding="UTF-8"?>
<svg id="Layer_2" xmlns="http://www.w3.org/2000/svg" viewBox="0 0 35.85 44.02">
  <defs>
    <style>
      .cls-1 {
        fill: #f44336;
      }
    </style>
  </defs>
  <g id="Layer_1-2" data-name="Layer_1">
    <g>
      <path d="M0,21.99c0-5.37,0-10.75,0-16.12C0,3.2,1.45,1.1,3.88.3,4.5.1,5.17.02,5.81.02,11.56,0,17.3.01,23.04,0c1.12,0,2.05.38,2.84,1.17,2.92,2.93,5.85,5.87,8.79,8.79.81.8,1.19,1.76,1.19,2.88,0,8.45,0,16.89,0,25.34,0,3-1.91,5.29-4.78,5.77-.36.06-.73.06-1.1.06-8.03,0-16.06,0-24.09,0-2.93,0-5.16-1.76-5.74-4.52-.1-.48-.12-.98-.13-1.48C0,32.68,0,27.34,0,21.99ZM22.53,3.08h-.57c-5.33,0-10.65.03-15.98-.02-1.77-.02-2.93,1.18-2.92,2.91.03,10.68.03,21.37,0,32.05,0,1.79,1.19,2.94,2.9,2.93,7.98-.04,15.96-.02,23.94-.02,1.85,0,2.87-1.02,2.87-2.88,0-8.06,0-16.12,0-24.18,0-.17,0-.34,0-.57-.23,0-.4,0-.57,0-1.98,0-3.97,0-5.95,0-2.22-.01-3.71-1.53-3.72-3.76,0-1.97,0-3.93,0-5.9,0-.17,0-.34,0-.56ZM25.6,5.32c0,1.42,0,2.79,0,4.16,0,.6.14.74.73.74,1.26,0,2.52,0,3.79,0,.12,0,.23-.03.35-.04-1.62-1.62-3.21-3.21-4.86-4.86Z"/>
      <path class="cls-1" d="M17.92,24.58c2.69,0,5.37,0,8.06,0,.92,0,1.57.54,1.65,1.34.09.87-.45,1.57-1.31,1.71-.14.02-.29.03-.43.03-5.31,0-10.61,0-15.92,0-1.02,0-1.71-.58-1.75-1.45-.05-.93.59-1.61,1.56-1.62,1.47-.01,2.94,0,4.41,0,1.25,0,2.49,0,3.74,0Z"/>
      <path d="M17.93,20.48c-2.7,0-5.4,0-8.11,0-1.1,0-1.85-.95-1.56-1.96.18-.65.78-1.1,1.51-1.11,1.21,0,2.43,0,3.64,0,4.19,0,8.38,0,12.57,0,.9,0,1.57.55,1.65,1.34.1.98-.58,1.73-1.6,1.73-2.7,0-5.4,0-8.11,0Z"/>
      <path d="M14.33,34.8c-1.54,0-3.07,0-4.61,0-.69,0-1.25-.43-1.45-1.06-.19-.61,0-1.32.53-1.67.28-.18.65-.33.97-.33,3.04-.02,6.08-.02,9.12-.01.79,0,1.38.48,1.54,1.19.16.68-.14,1.4-.77,1.69-.28.13-.61.18-.92.18-1.47.02-2.94,0-4.41,0h0Z"/>
    </g>
  </g>
</svg>