<?xml version="1.0" encoding="UTF-8"?>
<svg id="Layer_2" xmlns="http://www.w3.org/2000/svg" viewBox="0 0 31.36 39.51">
  <defs>
    <style>
      .cls-1 {
        fill: #f44336;
      }
    </style>
  </defs>
  <g id="Layer_1-2" data-name="Layer_1">
    <g>
      <path d="M0,19.7c0-4.83,0-9.66,0-14.49C0,2.69,1.65.63,4.08.07c.2-.05.41-.05.61-.05C9.97,0,15.25.01,20.53,0c.41,0,.7.13.98.42,2.55,2.68,5.1,5.35,7.65,8.03.58.61,1.15,1.22,1.73,1.82.33.33.48.7.48,1.17,0,7.55,0,15.09,0,22.64,0,3.17-2.27,5.43-5.43,5.43-6.82,0-13.65,0-20.47,0-3.2,0-5.45-2.25-5.45-5.44,0-4.79,0-9.58,0-14.37ZM19.69,1.85c-.17,0-.29,0-.42,0-4.62,0-9.25,0-13.87,0-2.09,0-3.48,1.4-3.48,3.49,0,9.58,0,19.16,0,28.74,0,2.09,1.39,3.49,3.48,3.49,6.85,0,13.7,0,20.55,0,.34,0,.7-.03,1.03-.12,1.55-.44,2.45-1.69,2.45-3.38,0-7.2,0-14.4,0-21.6,0-.13,0-.25,0-.42-.18,0-.32,0-.45,0-1.64,0-3.27,0-4.91,0-2.61,0-4.38-1.77-4.39-4.39,0-1.79,0-3.58,0-5.37,0-.14,0-.28,0-.46ZM28.1,10.13c-2.18-2.29-4.3-4.51-6.46-6.78,0,1.7-.04,3.29.02,4.88.03.97.99,1.86,1.98,1.89,1.45.04,2.91.01,4.46.01Z"/>
      <path class="cls-1" d="M16.75,24.45c.08-.11.14-.24.23-.34,1.16-1.25,2.32-2.48,3.47-3.73.24-.26.51-.44.87-.41.36.02.65.19.79.53.16.37.14.74-.14,1.05-.43.48-.87.95-1.31,1.42-1.35,1.45-2.7,2.9-4.05,4.35-.72.77-1.17.77-1.89,0-1.75-1.87-3.49-3.75-5.23-5.63-.46-.49-.47-1.05-.04-1.47.39-.38.98-.32,1.43.17,1.16,1.24,2.32,2.49,3.47,3.73.09.09.18.19.35.37,0-.24,0-.38,0-.53,0-3.21,0-6.41,0-9.62,0-.42.06-.79.44-1.05.58-.4,1.38-.05,1.47.65.02.15.01.31.01.46,0,3.18,0,6.36,0,9.54v.42s.08.07.13.1Z"/>
      <path d="M15.69,31c2.54,0,5.07,0,7.61,0,.18,0,.37,0,.53.06.43.14.7.55.66.98-.03.42-.38.78-.81.86-.08.01-.15.02-.23.02-5.18,0-10.35,0-15.53,0-.56,0-.97-.33-1.05-.79-.1-.61.34-1.12,1.01-1.12,1.65,0,3.3,0,4.95,0,.95,0,1.91,0,2.86,0Z"/>
    </g>
  </g>
</svg>