<?xml version="1.0" encoding="UTF-8"?>
<svg id="Layer_2" xmlns="http://www.w3.org/2000/svg" viewBox="0 0 24.69 24.69">
  <defs>
    <style>
      .cls-1 {
        fill: #f44336;
      }
    </style>
  </defs>
  <g id="Layer_1-2" data-name="Layer_1">
    <g>
      <path class="cls-1" d="M5.13,11.58c.53-2.03,2.24-2.83,3.56-2.82,1.44.01,3,.95,3.49,2.82h.28c3.79,0,7.58,0,11.37,0,.61,0,1,.51.8,1.04-.12.31-.36.48-.7.5-.18,0-.37,0-.55,0-3.64,0-7.28,0-10.92,0-.1,0-.19,0-.28,0-.5,1.9-2.07,2.81-3.47,2.82-.85,0-1.61-.25-2.28-.78-.67-.53-1.08-1.21-1.29-2.04-.36,0-.72,0-1.07,0-1.08,0-2.15,0-3.23,0-.49,0-.84-.32-.85-.76,0-.46.34-.78.85-.78,1.34,0,2.68,0,4.02,0,.09,0,.18,0,.26,0ZM8.65,10.31c-1.14,0-2.05.94-2.04,2.07.01,1.12.94,2.03,2.06,2.02,1.14,0,2.04-.93,2.03-2.07,0-1.12-.93-2.03-2.06-2.02Z"/>
      <path d="M19.56,20.35c.26,0,.53,0,.79,0,1.16,0,2.31,0,3.47,0,.52,0,.86.31.86.77,0,.45-.35.78-.86.78-1.33,0-2.65,0-3.98,0-.1,0-.19,0-.29,0-.61,1.87-1.86,2.93-3.85,2.78-1.69-.12-2.72-1.16-3.21-2.78h-.3c-3.74,0-7.49,0-11.23,0-.13,0-.26,0-.38-.03-.38-.09-.62-.45-.58-.83.04-.37.35-.66.73-.68.1,0,.19,0,.29,0,3.73,0,7.46,0,11.18,0,.1,0,.19,0,.29,0,.55-1.76,1.7-2.81,3.56-2.81,1.84,0,2.97,1.07,3.51,2.81ZM16.03,23.16c1.12,0,2.04-.92,2.04-2.04,0-1.13-.93-2.06-2.06-2.06-1.13,0-2.04.93-2.04,2.07,0,1.12.92,2.03,2.05,2.03Z"/>
      <path d="M12.51,2.81C12.97,1.03,14.41.11,15.75.01c1.68-.13,3.34.94,3.81,2.8.22,0,.44,0,.67,0,1.21,0,2.43,0,3.64,0,.4,0,.68.2.79.55.1.32,0,.67-.29.84-.16.09-.36.14-.54.14-1.33.01-2.65,0-3.98,0-.1,0-.19,0-.29,0-.17.67-.46,1.25-.94,1.73-.97.96-2.13,1.31-3.44.98-1.32-.33-2.18-1.18-2.58-2.49-.06-.18-.13-.23-.32-.23-3.77,0-7.54,0-11.3,0-.14,0-.28,0-.41-.03C.22,4.24,0,3.92,0,3.57c0-.35.25-.65.59-.72.12-.03.24-.03.36-.03,3.74,0,7.49,0,11.23,0h.32ZM16.03,1.55c-1.13,0-2.04.91-2.05,2.03,0,1.13.92,2.06,2.05,2.06,1.12,0,2.04-.92,2.05-2.04,0-1.13-.92-2.06-2.05-2.06Z"/>
    </g>
  </g>
</svg>