<?xml version="1.0" encoding="UTF-8"?>
<svg id="Layer_2" xmlns="http://www.w3.org/2000/svg" viewBox="0 0 25.64 25.64">
  <defs>
    <style>
      .cls-1 {
        fill: #fff;
      }

      .cls-2 {
        fill: #f44336;
      }
    </style>
  </defs>
  <g id="Layer_1-2" data-name="Layer_1">
    <g>
      <circle class="cls-2" cx="12.82" cy="12.82" r="12.82"/>
      <g>
        <path class="cls-1" d="M12.82,15.46c-1.5,0-3.01,0-4.51,0-.98,0-1.63-.65-1.63-1.63,0-1.64,0-3.28,0-4.92,0-.98.65-1.63,1.64-1.63.45,0,.9,0,1.34,0,.09,0,.13-.03.17-.11.2-.42.41-.83.62-1.24.24-.47.62-.7,1.14-.7.82,0,1.64,0,2.46,0,.53,0,.91.23,1.14.7.2.4.41.8.6,1.2.05.12.12.15.24.15.45,0,.9,0,1.34,0,.92,0,1.58.66,1.58,1.58,0,1.67,0,3.35,0,5.02,0,.92-.67,1.58-1.58,1.58-1.52,0-3.04,0-4.56,0ZM12.82,14.44c1.51,0,3.03,0,4.54,0,.38,0,.58-.2.58-.58,0-1.66,0-3.31,0-4.97,0-.38-.2-.58-.58-.58-.56,0-1.13,0-1.69,0-.31,0-.5-.12-.63-.39-.24-.49-.49-.98-.73-1.47-.06-.13-.15-.19-.3-.19-.79,0-1.59,0-2.38,0-.14,0-.22.05-.28.18-.25.51-.51,1.02-.76,1.53-.12.24-.3.35-.56.34-.57,0-1.14,0-1.71,0-.42,0-.61.19-.61.61,0,1.64,0,3.28,0,4.92,0,.42.19.61.62.61,1.5,0,3,0,4.49,0Z"/>
        <path class="cls-1" d="M11.38,17.9c-.13-.1-.25-.2-.38-.31-.26-.21-.3-.51-.12-.75.18-.23.5-.26.75-.06.56.44,1.11.88,1.66,1.32.27.22.28.6.01.82-.56.46-1.13.91-1.7,1.35-.18.14-.38.17-.58.05-.18-.1-.29-.27-.25-.48.03-.13.11-.28.21-.38.18-.17.38-.32.6-.49-.39-.05-.75-.09-1.11-.15-1.38-.22-2.7-.59-3.91-1.32-.68-.41-1.27-.92-1.65-1.63-.41-.77-.44-2.02.33-2.8.23-.23.53-.26.75-.06.22.2.24.52.01.74-.48.47-.43,1.29-.12,1.78.34.54.83.91,1.38,1.21,1.01.57,2.11.87,3.25,1.05.28.05.56.08.85.12,0-.01.01-.03.02-.04Z"/>
        <path class="cls-1" d="M21.01,14.76c0,.86-.32,1.43-.81,1.93-.68.7-1.53,1.14-2.43,1.49-1.05.41-2.15.64-3.27.77-.29.03-.49-.08-.59-.31-.09-.21-.04-.45.15-.59.09-.07.22-.11.34-.12,1.38-.17,2.72-.49,3.96-1.16.48-.26.93-.56,1.28-.99.42-.51.47-1.13.15-1.71-.08-.13-.17-.26-.24-.39-.13-.24-.06-.53.17-.67.23-.15.52-.1.68.12.39.53.64,1.1.62,1.64Z"/>
        <path class="cls-1" d="M12.81,13.42c-1.31,0-2.39-1.08-2.38-2.4,0-1.32,1.08-2.38,2.4-2.38,1.32,0,2.39,1.08,2.38,2.39,0,1.32-1.08,2.38-2.4,2.38ZM12.83,9.67c-.75,0-1.37.61-1.37,1.36,0,.75.61,1.37,1.36,1.37.75,0,1.37-.61,1.37-1.36,0-.75-.61-1.36-1.36-1.36Z"/>
      </g>
    </g>
  </g>
</svg>