<?xml version="1.0" encoding="UTF-8"?>
<svg id="Layer_2" xmlns="http://www.w3.org/2000/svg" viewBox="0 0 42.77 42.77">
  <defs>
    <style>
      .cls-1 {
        fill: #f44336;
      }
    </style>
  </defs>
  <g id="Layer_1-2" data-name="Layer_1">
    <g>
      <path d="M42.77,21.44c0,5.17,0,10.35,0,15.52,0,2.77-1.76,5.01-4.41,5.65-.48.11-.98.16-1.47.16-10.33,0-20.66.01-30.99,0-3.39,0-5.88-2.49-5.88-5.86,0-10.35,0-20.69,0-31.04C0,2.51,2.49,0,5.84,0c10.36,0,20.73,0,31.09,0,3.35,0,5.83,2.5,5.83,5.86,0,5.19,0,10.38,0,15.57ZM3.3,31.15c2.83-2.39,5.55-4.68,8.27-6.98,2.09-1.77,4.48-1.68,6.43.27,1.59,1.58,3.17,3.17,4.76,4.76.74.74,1.13.77,1.96.17,1.64-1.18,3.27-2.37,4.91-3.56,1.84-1.33,3.86-1.27,5.63.14,1.29,1.02,2.57,2.05,3.86,3.07.1.08.21.14.36.24,0-.24,0-.41,0-.58,0-7.54,0-15.08,0-22.61,0-1.8-.96-2.76-2.75-2.76-10.21,0-20.42,0-30.63,0-1.84,0-2.79.95-2.79,2.77,0,8.15,0,16.31,0,24.46,0,.17,0,.33,0,.61ZM21.39,39.48c5.17,0,10.34,0,15.51,0,1.55,0,2.57-1.03,2.57-2.58,0-.99.02-1.99-.01-2.98,0-.2-.13-.46-.28-.59-1.99-1.62-4-3.22-6-4.83-.63-.51-1.06-.51-1.7-.02-1.59,1.22-3.16,2.46-4.75,3.68-2.05,1.58-4.39,1.42-6.19-.42-1.62-1.65-3.24-3.3-4.85-4.95-.69-.7-1.17-.73-1.91-.11-3.16,2.65-6.3,5.33-9.5,7.93-.74.6-1.05,1.19-1,2.14.09,1.76,1,2.73,2.76,2.73,5.12,0,10.24,0,15.36,0Z"/>
      <path class="cls-1" d="M27.98,8.77c3.31,0,6.04,2.76,6.02,6.08-.02,3.27-2.73,5.98-6,6-3.32.01-6.07-2.71-6.07-6.03,0-3.32,2.73-6.05,6.05-6.05ZM30.71,14.83c.01-1.5-1.23-2.75-2.73-2.76-1.5,0-2.75,1.25-2.75,2.75,0,1.49,1.21,2.71,2.7,2.73,1.49.03,2.76-1.22,2.78-2.72Z"/>
    </g>
  </g>
</svg>