<?xml version="1.0" encoding="UTF-8"?>
<svg id="Layer_2" xmlns="http://www.w3.org/2000/svg" viewBox="0 0 108.66 108.67">
  <defs>
    <style>
      .cls-1 {
        fill: #f44336;
      }
    </style>
  </defs>
  <g id="Layer_1-2" data-name="Layer_1">
    <g>
      <path d="M7.67,74.09c3.63-4.38,7.04-8.52,10.49-12.63,5.86-7.01,15.86-7.04,21.77-.06,1.53,1.81,3.02,3.65,4.6,5.57,1.6-1.82,3.16-3.59,4.71-5.37,3.12-3.56,6.23-7.14,9.36-10.69,5.94-6.72,15.84-6.76,21.77-.03,6.37,7.22,12.69,14.5,19.03,21.75.46.53.94,1.06,1.67,1.88,0-.77,0-1.21,0-1.65,0-9.28,0-18.56.01-27.83,0-.7.06-1.44.29-2.09.55-1.62,2.34-2.69,3.91-2.45,1.87.28,3.28,1.75,3.32,3.61.06,2.37.02,4.74.02,7.11,0,11.02,0,22.03,0,33.05,0,12.67-8.65,22.57-21.23,24.29-1.01.14-2.05.14-3.07.14-19.98,0-39.96.03-59.94,0-11.97-.02-21.57-7.83-23.92-19.43-.3-1.5-.42-3.05-.43-4.58C0,64.51-.01,44.37.02,24.24.04,13.76,6.26,4.78,15.95,1.46,18.41.62,21.11.12,23.7.1c13.5-.14,27.01-.08,40.51-.06,2.78,0,4.58,2.27,3.87,4.79-.38,1.35-1.29,2.26-2.65,2.61-.6.15-1.25.18-1.88.18-13.07,0-26.14,0-39.21.01-8.52.01-15.13,5.6-16.56,13.97-.15.89-.17,1.81-.17,2.71,0,16.15,0,32.3,0,48.44,0,.34.03.69.06,1.34ZM54.26,101.07c9.99,0,19.98.02,29.97,0,8.57-.02,15.34-6.01,16.41-14.5.06-.44-.11-1.03-.39-1.36-8.63-9.87-17.26-19.73-25.97-29.52-.8-.9-1.98-1.64-3.12-2-2.91-.91-5.29.13-7.26,2.4-5.42,6.27-10.89,12.5-16.35,18.74-2.13,2.44-4.55,2.42-6.6-.04-2.25-2.7-4.49-5.4-6.73-8.11-3.08-3.73-7.66-3.71-10.73.04-4.86,5.92-9.68,11.87-14.62,17.72-1.02,1.21-1.2,2.29-.86,3.74,1.78,7.63,8.25,12.85,16.17,12.88,10.03.04,20.06,0,30.09,0Z"/>
      <path class="cls-1" d="M85.9,22.78c-1.35,0-2.56,0-3.78,0-2.37,0-4.74.01-7.11,0-2.49-.02-4.25-1.6-4.27-3.79-.02-2.22,1.7-3.79,4.22-3.8,3.16-.01,6.32,0,9.47,0,.43,0,.85,0,1.39,0,.03-.52.06-.94.06-1.35,0-3.28-.01-6.55.01-9.83.01-1.68.72-3,2.31-3.67,1.47-.62,2.87-.39,4.07.7.87.79,1.22,1.8,1.21,2.97-.02,3.32.03,6.63-.03,9.95-.02.99.27,1.27,1.26,1.26,3.43-.05,6.87-.05,10.3,0,1.81.03,3.29,1.36,3.57,3.05.29,1.79-.57,3.5-2.21,4.14-.64.25-1.38.35-2.07.36-3.12.04-6.24.02-9.35.02-.43,0-.86,0-1.46,0,0,.51,0,.93,0,1.35,0,3.12-.09,6.24.03,9.35.11,3.03-1.99,4.44-3.84,4.44-2.26,0-3.77-1.82-3.78-4.52,0-3.47,0-6.94,0-10.63Z"/>
      <path class="cls-1" d="M15.18,29.16c-.08-7.64,6.09-13.92,13.74-13.97,7.69-.05,13.97,6.07,14.04,13.68.07,7.69-6.05,14.01-13.63,14.1-7.81.09-14.06-6.01-14.14-13.81ZM22.78,29.03c-.02,3.52,2.77,6.34,6.27,6.35,3.44,0,6.28-2.78,6.32-6.2.05-3.51-2.75-6.37-6.23-6.39-3.56-.02-6.34,2.71-6.35,6.24Z"/>
    </g>
  </g>
</svg>