<?xml version="1.0" encoding="UTF-8"?>
<svg id="Layer_2" xmlns="http://www.w3.org/2000/svg" viewBox="0 0 67.27 67.27">
  <defs>
    <style>
      .cls-1 {
        fill: #2d2d2d;
      }

      .cls-2 {
        fill: #e8e8e8;
      }
    </style>
  </defs>
  <g id="Layer_1-2" data-name="Layer_1">
    <g>
      <g id="Layer_1-2">
        <circle class="cls-2" cx="33.63" cy="33.63" r="33.63"/>
      </g>
      <g>
        <path class="cls-1" d="M17.96,34.33c0-.32-.04-.65,0-.96.11-.67.72-1.13,1.39-1.08.67.04,1.22.57,1.24,1.25.05,1.48.21,2.94.74,4.33,1.76,4.68,5.06,7.64,9.98,8.54,6.76,1.24,13.08-2.8,14.88-9.42.3-1.11.34-2.29.47-3.45.07-.61.48-1.11,1.08-1.24.55-.11,1.17.15,1.42.67.12.24.18.54.18.81-.09,7.76-5.77,14.26-13.43,15.41-8.43,1.26-16.43-4.57-17.79-12.97-.1-.62-.15-1.25-.23-1.88.01,0,.03,0,.04,0Z"/>
        <path class="cls-1" d="M32.29,33.94c0-.23,0-.37,0-.52,0-4.67,0-9.34,0-14.02,0-1.02.78-1.68,1.69-1.44.62.16,1,.68,1,1.38,0,1.84,0,3.68,0,5.51,0,2.85,0,5.7,0,8.54,0,.15,0,.3,0,.53.14-.12.23-.2.32-.28.88-.88,1.77-1.77,2.65-2.65.63-.63,1.46-.68,2.02-.13.58.57.54,1.39-.12,2.05-1.7,1.71-3.41,3.41-5.12,5.12-.71.71-1.47.71-2.17.01-1.72-1.71-3.43-3.43-5.15-5.15-.38-.38-.59-.82-.47-1.36.11-.5.43-.86.93-1,.5-.14.97-.03,1.36.35.9.9,1.81,1.81,2.71,2.71.1.1.2.18.36.34Z"/>
      </g>
    </g>
  </g>
</svg>