<?xml version="1.0" encoding="UTF-8"?>
<svg id="Layer_2" xmlns="http://www.w3.org/2000/svg" viewBox="0 0 95.42 95.08">
  <defs>
    <style>
      .cls-1 {
        fill: #fff;
      }
    </style>
  </defs>
  <g id="Layer_1-2" data-name="Layer_1">
    <g>
      <path class="cls-1" d="M47.77,0c26.32.03,47.68,21.35,47.65,47.57-.02,26.26-21.48,47.58-47.82,47.51C21.28,95.01-.03,73.69,0,47.46.03,21.24,21.45-.03,47.77,0ZM5.97,47.5c-.02,22.93,18.65,41.58,41.66,41.63,23.05.05,41.81-18.59,41.83-41.55.02-22.94-18.65-41.59-41.66-41.63-23.06-.04-41.81,18.59-41.83,41.55Z"/>
      <path class="cls-1" d="M49.2,63.84h-7.39v-22.16h7.35v3.84c.72-1.89,2.12-2.94,3.97-3.45,1.75-.49,3.54-.67,5.34-.24,3.35.8,5.63,3.78,5.64,7.38.02,4.64,0,9.28,0,13.92,0,.21,0,.42,0,.69h-7.45c0-.37,0-.7,0-1.03,0-4.42-.02-8.85.02-13.27,0-1.08-.45-1.74-1.37-2.2-2.44-1.23-4.64-.43-5.54,2.13-.33.94-.52,1.98-.54,2.98-.06,3.77-.02,7.54-.02,11.41Z"/>
      <path class="cls-1" d="M31.38,41.64h7.33v22.19h-7.33v-22.19Z"/>
      <path class="cls-1" d="M30.58,34.17c0-2.46,2.04-4.47,4.51-4.44,2.43.02,4.41,2.02,4.42,4.45,0,2.41-2,4.43-4.42,4.44-2.48.01-4.51-1.99-4.51-4.45Z"/>
    </g>
  </g>
</svg>