<?xml version="1.0" encoding="UTF-8"?>
<svg id="Layer_2" xmlns="http://www.w3.org/2000/svg" viewBox="0 0 34.09 46.15">
  <defs>
    <style>
      .cls-1 {
        fill: #f44336;
      }
    </style>
  </defs>
  <g id="Layer_1-2" data-name="Layer_1">
    <g>
      <path d="M17.26,0c6.04.24,10.95,2.88,14.32,8.21,1.84,2.91,2.67,6.13,2.48,9.57-.15,2.83-.99,5.5-2.44,7.93-1.42,2.38-2.97,4.69-4.49,7.01-2.63,4.01-5.31,7.97-7.9,12-1.22,1.89-3.13,1.91-4.37,0-3.73-5.74-7.53-11.44-11.3-17.15-1.6-2.43-2.76-5.05-3.3-7.92C-.24,17.01,0,14.43.81,11.91c.93-2.94,2.56-5.44,4.86-7.5C8.25,2.09,11.25.69,14.67.2c.22-.03.44-.08.67-.09.57-.04,1.14-.07,1.92-.11ZM17.05,44.27c.18-.24.31-.39.42-.57,3.79-5.74,7.59-11.47,11.36-17.22,1.09-1.66,1.98-3.42,2.57-5.33,1.22-3.94.79-7.71-1.17-11.27-3.05-5.56-9-8.52-15.27-7.68-2.43.32-4.64,1.21-6.62,2.64-2.68,1.92-4.56,4.46-5.59,7.6-.66,2-.92,4.07-.62,6.17.4,2.87,1.54,5.45,3.11,7.84,3.79,5.77,7.61,11.53,11.41,17.3.11.16.23.31.4.53Z"/>
      <path class="cls-1" d="M17.04,26.1c-4.99,0-9.03-4.05-9.02-9.04,0-4.98,4.09-9.04,9.05-9.01,4.96.02,8.99,4.07,9,9.02,0,4.98-4.05,9.03-9.03,9.03ZM17.05,10.05c-3.85,0-7.04,3.18-7.02,7.03.01,3.85,3.15,6.99,7,7.01,3.86.01,7.03-3.14,7.05-7.01.01-3.85-3.17-7.04-7.02-7.04Z"/>
    </g>
  </g>
</svg>