<?xml version="1.0" encoding="UTF-8"?>
<svg id="Layer_2" xmlns="http://www.w3.org/2000/svg" viewBox="0 0 51.94 45.82">
  <defs>
    <style>
      .cls-1 {
        fill: #f44336;
      }
    </style>
  </defs>
  <g id="Layer_1-2" data-name="Layer_1">
    <g>
      <path d="M25.87,4.88c.66-.6,1.21-1.15,1.82-1.63,8.19-6.43,20.3-2.49,23.4,7.65,1.58,5.16.85,10.18-1.4,14.99-3.5,7.46-9.12,12.94-16.27,16.88-2.04,1.13-4.25,1.98-6.41,2.86-.54.22-1.3.26-1.84.06-10.4-3.76-18.49-10.2-23.14-20.43C-.18,20.38-.77,15.24,1.19,10.13,3.55,4,8.11.51,14.7.04c4.24-.3,7.83,1.37,10.81,4.37.14.14.24.31.36.48ZM47.31,16.24c-.15-1.06-.23-2.14-.47-3.18-1.35-5.74-6.76-9.22-12.37-7.95-2.72.61-4.78,2.17-6.18,4.57-.39.68-.85,1.25-1.66,1.45-1.15.28-2.07-.14-2.83-1.31-1.87-2.9-4.41-4.8-7.93-5-5.32-.3-9.94,3.57-10.86,8.94-.64,3.76.11,7.31,1.8,10.66,4.05,8.01,10.58,13.23,18.81,16.48.26.1.63.07.9-.04,6.97-2.74,12.73-7.02,16.9-13.31,2.26-3.42,3.8-7.11,3.9-11.31Z"/>
      <path class="cls-1" d="M39.4,21.05c-.27.79-.59,2.08-1.14,3.26-2.03,4.34-5.52,7.07-9.96,8.64-1.35.48-2.64-.2-3.06-1.49-.4-1.25.25-2.5,1.57-2.96,4.12-1.44,6.91-4.12,7.98-8.44.31-1.24,1.41-1.97,2.56-1.81,1.2.17,2.04,1.12,2.05,2.81Z"/>
    </g>
  </g>
</svg>