<?xml version="1.0" encoding="UTF-8"?>
<svg id="Layer_2" xmlns="http://www.w3.org/2000/svg" viewBox="0 0 40.25 44.84">
  <defs>
    <style>
      .cls-1 {
        fill: #f44336;
      }
    </style>
  </defs>
  <g id="Layer_1-2" data-name="Layer_1">
    <g>
      <path d="M20.08,35.65c-4.65,0-9.3,0-13.95,0-3.06,0-5.36-1.88-5.98-4.87-.34-1.66-.14-3.31.95-4.6,1.58-1.88,2.01-4.04,2.25-6.37.26-2.55.47-5.13,1.1-7.6C6.09,5.73,11.64.93,18.07.13c6.89-.86,13.54,2.76,16.63,9.02,1.07,2.17,1.59,4.48,1.82,6.87.19,1.98.42,3.96.67,5.94.18,1.45.82,2.68,1.72,3.82,2.09,2.65,1.69,6.41-.88,8.55-1.14.95-2.48,1.32-3.95,1.32-4.67,0-9.34,0-14.01,0ZM20.15,32.2c4.63,0,9.27,0,13.9,0,1.35,0,2.3-.68,2.65-1.86.29-.98.01-1.83-.62-2.6-1.15-1.38-1.9-2.97-2.2-4.73-.22-1.29-.31-2.6-.48-3.9-.24-1.87-.37-3.76-.77-5.59-1.15-5.21-5.65-9.3-10.74-9.94-5.44-.68-10.53,2.01-13.1,6.89-1.12,2.12-1.44,4.41-1.68,6.74-.19,1.89-.39,3.79-.67,5.67-.27,1.83-1.05,3.46-2.23,4.89-.5.61-.81,1.28-.71,2.08.18,1.48,1.22,2.37,2.77,2.37,4.63,0,9.27,0,13.9,0Z"/>
      <path class="cls-1" d="M20.69,44.84c-4.28,0-7.63-2.19-8.98-5.53-.41-1.02-.05-2,.87-2.39.93-.39,1.85.04,2.31,1.06,1.02,2.25,2.82,3.38,5.24,3.38,2.44,0,4.25-1.13,5.28-3.4.42-.93,1.23-1.36,2.12-1.1.82.23,1.38,1.08,1.22,1.91-.08.38-.24.76-.42,1.1-1.73,3.28-4.53,4.81-7.63,4.97Z"/>
    </g>
  </g>
</svg>