<?xml version="1.0" encoding="UTF-8"?>
<svg id="Layer_2" xmlns="http://www.w3.org/2000/svg" viewBox="0 0 37.18 37.18">
  <defs>
    <style>
      .cls-1 {
        fill: #f44336;
      }
    </style>
  </defs>
  <g id="Layer_1-2" data-name="Layer_1">
    <g>
      <path d="M18.59,28.69c-5.07,1.23-9.65.3-13.6-3.1C1.83,22.85.15,19.32,0,15.15-.28,6.51,6.7-.4,15.31.02c4.65.23,8.42,2.29,11.14,6.08,2.71,3.77,3.36,7.97,2.22,12.5,3.18.39,5.64,1.89,7.26,4.66,1.09,1.87,1.47,3.9,1.14,6.03-.69,4.4-4.42,7.71-8.77,7.89-4.69.2-9.23-3.3-9.71-8.49ZM2.56,14.62c.14.93.21,1.87.42,2.78,1.57,6.8,8.94,10.83,15.49,8.5.25-.09.36-.22.44-.47,1-3.34,3.18-5.52,6.53-6.51.24-.07.37-.18.45-.41.61-1.78.81-3.61.55-5.48-.9-6.56-6.83-11.11-13.38-10.28C7.13,3.49,2.64,8.6,2.56,14.62ZM34.51,27.91c.02-3.62-2.94-6.64-6.55-6.66-3.69-.02-6.71,2.92-6.73,6.57-.02,3.67,2.92,6.68,6.55,6.71,3.71.03,6.7-2.91,6.73-6.61Z"/>
      <path class="cls-1" d="M15.95,21.03c-.09,1.44-.48,2.03-1.35,1.98-.28-.01-.61-.13-.83-.31-.22-.18-.39-.47-.47-.75-.08-.28-.02-.6-.02-.91-1.28-.53-2.17-1.4-2.53-2.74-.1-.35-.13-.73-.13-1.1,0-.7.56-1.26,1.25-1.28.76-.02,1.35.5,1.4,1.22.05.75.38,1.19.99,1.36.7.19,1.38-.2,1.58-.89.2-.69-.17-1.42-.86-1.6-.37-.1-.77-.08-1.14-.16-1.75-.36-3.06-1.77-3.23-3.44-.18-1.81.74-3.4,2.41-4.15.07-.03.15-.07.24-.11.02-.57-.11-1.2.42-1.61.25-.19.59-.33.89-.36.5-.05.96.19,1.15.65.17.41.19.87.28,1.35,1.37.56,2.25,1.59,2.53,3.11.1.53.13,1.08-.29,1.53-.39.42-.86.54-1.39.39-.54-.16-.89-.63-.93-1.19-.06-.91-.74-1.53-1.5-1.39-.69.13-1.19.72-1.15,1.36.05.74.62,1.24,1.43,1.27,1.72.05,3.21,1.18,3.71,2.81.62,2.05-.37,4.05-2.47,4.95Z"/>
      <path class="cls-1" d="M26.94,28.01c.94-.94,1.77-1.81,2.63-2.65.77-.75,1.97-.43,2.24.58.13.48,0,.92-.33,1.26-1.18,1.19-2.36,2.38-3.55,3.55-.56.55-1.33.53-1.9-.02-.59-.57-1.16-1.14-1.73-1.73-.53-.55-.53-1.34-.02-1.87.52-.53,1.34-.54,1.89,0,.27.26.49.56.76.87Z"/>
    </g>
  </g>
</svg>