<?xml version="1.0" encoding="UTF-8"?>
<svg id="Layer_2" xmlns="http://www.w3.org/2000/svg" viewBox="0 0 83.17 83.09">
  <defs>
    <style>
      .cls-1 {
        fill: #f44336;
      }
    </style>
  </defs>
  <g id="Layer_1-2" data-name="Layer_1">
    <g>
      <path d="M76.65,19.12c0-3.07-.03-5.96,0-8.86.03-2.29,2.14-3.8,4.26-3.1,1.26.41,2.19,1.55,2.2,2.92.03,3.49.12,6.98-.04,10.47-.24,5.16-4.46,9.35-9.68,9.6-3.56.17-7.14.08-10.71.04-1.76-.02-3.09-1.5-3.09-3.23,0-1.77,1.37-3.2,3.18-3.23,2.65-.04,5.3-.01,7.95-.02.29,0,.58,0,1.1,0-.99-1.4-1.81-2.7-2.77-3.89-5.34-6.63-12.17-10.93-20.51-12.58-10-1.98-19.25-.02-27.52,6-7.27,5.29-11.96,12.36-13.75,21.19-2.04,10.05-.09,19.36,5.97,27.68,5.29,7.27,12.38,11.87,21.19,13.77,3.05.66,6.15.88,9.27.67.67-.04,1.36-.06,2.01.07,1.56.31,2.6,1.76,2.5,3.33-.1,1.56-1.33,2.89-2.9,3.01-12.14.91-22.82-2.58-31.83-10.79-6.77-6.16-11-13.81-12.74-22.81C-3.43,27.77,10.26,6.17,31.65,1.26c16.58-3.8,30.62,1.07,41.91,13.79,1.09,1.22,1.99,2.61,3.08,4.07Z"/>
      <path class="cls-1" d="M44.83,28.61c0,4.22,0,8.44,0,12.66,0,1.06-.32,1.97-1.07,2.71-4.21,4.21-8.4,8.43-12.64,12.62-1.92,1.9-4.86,1.15-5.54-1.36-.34-1.26.06-2.34.97-3.25,1.11-1.11,2.22-2.22,3.33-3.33,2.64-2.64,5.27-5.29,7.93-7.91.38-.37.52-.75.52-1.28-.01-7.85-.01-15.69,0-23.54,0-1.68.78-2.9,2.14-3.39,2.16-.77,4.33.78,4.35,3.16.03,3.84,0,7.68,0,11.53,0,.46,0,.92,0,1.38Z"/>
      <path class="cls-1" d="M57.45,79.78c-1.48-.1-2.7-1.07-3.09-2.5-.37-1.36.21-2.83,1.48-3.55,1.08-.61,2.19-1.18,3.33-1.67,1.55-.67,3.31,0,4.09,1.46.78,1.48.35,3.32-1.1,4.2-1.11.67-2.29,1.22-3.46,1.77-.38.18-.83.2-1.25.29Z"/>
      <path class="cls-1" d="M75.13,52.34c.31-1.04.64-2.66,1.27-4.17.59-1.42,2.33-1.97,3.81-1.48,1.45.48,2.42,1.89,2.15,3.4-.24,1.38-.59,2.75-1.05,4.07-.52,1.47-2.07,2.18-3.71,1.87-1.41-.27-2.46-1.6-2.47-3.68Z"/>
      <path d="M70.91,70.18c-1.73-.04-2.7-.61-3.3-1.72-.6-1.11-.58-2.27.16-3.3.75-1.05,1.57-2.07,2.45-3.02,1.12-1.21,2.99-1.29,4.27-.28,1.29,1.02,1.68,2.86.75,4.21-.76,1.11-1.6,2.19-2.56,3.13-.55.54-1.41.78-1.78.97Z"/>
    </g>
  </g>
</svg>