<?xml version="1.0" encoding="UTF-8"?>
<svg id="Layer_2" xmlns="http://www.w3.org/2000/svg" viewBox="0 0 49.59 49.08">
  <defs>
    <style>
      .cls-1 {
        fill: #f9434d;
      }

      .cls-2 {
        fill: #09de74;
      }

      .cls-3 {
        fill: #fefefe;
      }

      .cls-4 {
        fill: #fcb922;
      }

      .cls-5 {
        fill: #46bbfe;
      }
    </style>
  </defs>
  <g id="Layer_1-2" data-name="Layer_1">
    <g>
      <path class="cls-3" d="M.09,0S.03.06,0,.09C-.01.02.02-.01.09,0Z"/>
      <path class="cls-3" d="M49.59.09s-.06-.06-.08-.08c.07-.02.1.01.08.08Z"/>
      <path class="cls-3" d="M0,48.99s.06.06.08.08c-.07.02-.1-.01-.08-.08Z"/>
      <path class="cls-5" d="M7.25,45.12c-.56-.09-.85-.47-.97-.98-.05-.23-.06-.48-.06-.71,0-12.73,0-25.47,0-38.2,0-1.01.28-1.48,1-1.69.98,1.04,1.96,2.07,2.93,3.11,3.47,3.74,6.94,7.49,10.42,11.23,2,2.15,3.99,4.3,5.99,6.45-2.26,2.44-4.53,4.89-6.79,7.33-4.17,4.49-8.34,8.98-12.51,13.47Z"/>
      <path class="cls-1" d="M7.25,45.12c4.17-4.49,8.34-8.98,12.51-13.47,2.27-2.44,4.53-4.89,6.79-7.33.02,0,.04,0,.05,0,.05.07.1.13.16.2.96,1.04,1.9,2.09,2.87,3.1,1.04,1.08,2,2.23,3.08,3.25-1.06.7-2.18,1.3-3.28,1.93-6.91,4-13.82,7.99-20.74,11.98-.45.26-.89.57-1.46.33Z"/>
      <path class="cls-2" d="M26.61,24.33s-.04,0-.05,0c-2-2.15-3.99-4.3-5.99-6.45-3.47-3.74-6.94-7.49-10.42-11.23-.97-1.04-1.95-2.08-2.93-3.11.45-.19.85-.04,1.24.19,2.89,1.67,5.78,3.34,8.68,5.01,5.05,2.92,10.11,5.83,15.16,8.75.13.08.25.17.38.26-1.01,1.1-2.03,2.19-3.04,3.29-1.01,1.1-2.02,2.2-3.02,3.3Z"/>
      <path class="cls-4" d="M26.61,24.33c1.01-1.1,2.01-2.2,3.02-3.3,1.01-1.1,2.03-2.19,3.04-3.29,1.47.84,2.94,1.67,4.4,2.51,1.61.93,3.22,1.86,4.83,2.79,1.16.67,1.17,1.89.02,2.57-2.96,1.72-5.93,3.42-8.9,5.13-.1.06-.2.09-.31.14-1.09-1.03-2.05-2.18-3.08-3.25-.98-1.02-1.92-2.07-2.87-3.1-.06-.06-.11-.13-.16-.2Z"/>
    </g>
  </g>
</svg>