<?xml version="1.0" encoding="UTF-8"?>
<svg id="Layer_2" xmlns="http://www.w3.org/2000/svg" viewBox="0 0 38.06 42.23">
  <defs>
    <style>
      .cls-1 {
        fill: #f44336;
      }
    </style>
  </defs>
  <g id="Layer_1-2" data-name="Layer_1">
    <g>
      <path d="M9.35,42.2c-.72-2.11-1.43-4.19-2.15-6.29-1.23.24-2.43.47-3.63.71-.87.17-1.75.34-2.62.53-.33.07-.62.04-.82-.25-.2-.29-.13-.57.04-.86,1.91-3.31,3.82-6.61,5.73-9.92.08-.14.16-.29.25-.44-1.03-1.41-1.82-2.92-2.37-4.56C1.29,13.75,4.63,5.44,11.54,1.86c8.91-4.63,19.72-.26,22.79,9.31,1.61,5.01.83,9.75-2.13,14.11-.22.32-.21.52-.03.84,1.9,3.26,3.79,6.54,5.67,9.81.1.17.19.35.21.54.06.49-.35.8-.89.69-1.44-.28-2.87-.57-4.31-.85-.65-.13-1.31-.26-1.99-.39-.43,1.26-.85,2.5-1.28,3.73-.25.74-.52,1.47-.75,2.22-.09.28-.23.33-.5.36-.61.07-.92-.17-1.22-.7-1.73-3.07-3.52-6.11-5.27-9.17-.18-.31-.37-.39-.7-.34-1.4.21-2.81.22-4.21,0-.36-.06-.57.02-.76.37-1.78,3.12-3.59,6.23-5.37,9.36-.2.36-.42.55-.84.48-.19-.03-.39,0-.63,0ZM19.06,1.34c-8.13-.01-14.73,6.56-14.76,14.69-.03,8.14,6.56,14.76,14.71,14.78,8.13.02,14.73-6.55,14.76-14.69.03-8.14-6.56-14.77-14.71-14.78ZM15.06,31.66c-3.15-.84-5.8-2.46-8.01-4.87-1.69,2.93-3.35,5.81-5.04,8.73.19-.02.3-.02.4-.04,1.6-.32,3.2-.63,4.79-.96.73-.15.94-.03,1.18.68.43,1.25.85,2.5,1.28,3.76.14.4.28.8.44,1.27,1.67-2.89,3.3-5.71,4.95-8.58ZM27.96,40.23c.06-.17.1-.26.13-.35.54-1.58,1.08-3.16,1.62-4.74.21-.61.44-.75,1.07-.62,1.19.23,2.38.48,3.56.71.55.11,1.1.21,1.73.32-1.71-2.96-3.37-5.84-5.06-8.75-2.22,2.42-4.86,4.03-8.01,4.87,1.65,2.86,3.28,5.68,4.95,8.57Z"/>
      <path d="M19.03,4.02c6.65,0,12.06,5.41,12.06,12.06,0,6.65-5.41,12.06-12.06,12.06-6.65,0-12.06-5.41-12.05-12.06,0-6.65,5.41-12.06,12.06-12.06ZM8.32,16.08c0,5.92,4.8,10.72,10.73,10.71,5.91,0,10.69-4.79,10.7-10.7,0-5.93-4.78-10.73-10.71-10.73-5.93,0-10.72,4.79-10.72,10.72Z"/>
      <path class="cls-1" d="M14.37,19.94c.05-.75.12-1.5.15-2.25,0-.18-.07-.41-.18-.55-.67-.87-1.4-1.71-2.05-2.59-.49-.66-.29-1.23.51-1.48,1.01-.31,2.04-.57,3.06-.84.29-.07.48-.2.64-.46.55-.89,1.15-1.75,1.7-2.63.44-.71,1.26-.67,1.66,0,.55.89,1.15,1.75,1.7,2.63.17.28.38.4.68.47,1.01.26,2.02.52,3.02.83.79.25.99.93.47,1.6-.64.83-1.33,1.61-1.98,2.43-.13.16-.21.42-.2.63.03,1.09.11,2.17.13,3.26,0,.26-.14.56-.3.78-.18.24-.49.31-.8.19-1.04-.39-2.09-.77-3.13-1.17-.29-.11-.54-.11-.83,0-.98.39-1.97.78-2.97,1.12-.75.25-1.22-.09-1.27-.88-.02-.36,0-.72,0-1.09ZM15.69,20.49c.15-.05.25-.08.36-.12.79-.31,1.58-.61,2.37-.94.35-.15.69-.17,1.05-.04.51.2,1.02.38,1.52.57.45.17.89.35,1.38.55-.04-.63-.08-1.19-.11-1.74-.12-2.17-.3-1.6,1.01-3.19.38-.46.75-.91,1.17-1.42-.75-.19-1.41-.41-2.1-.52-1.02-.16-1.72-.67-2.17-1.6-.3-.61-.72-1.17-1.13-1.82-.52.82-1.01,1.56-1.46,2.33-.3.52-.71.81-1.3.94-.87.18-1.72.43-2.64.66.65.78,1.24,1.52,1.85,2.24.31.36.43.76.39,1.23-.08.94-.12,1.88-.18,2.86Z"/>
    </g>
  </g>
</svg>