<?xml version="1.0" encoding="UTF-8"?>
<svg id="Layer_2" xmlns="http://www.w3.org/2000/svg" viewBox="0 0 37.6 37.59">
  <defs>
    <style>
      .cls-1 {
        fill: #f44336;
      }
    </style>
  </defs>
  <g id="Layer_1-2" data-name="Layer_1">
    <g>
      <path class="cls-1" d="M19.63,10.31c5.87.15,11.82,2.29,16.82,6.87.26.24.51.5.75.76.53.58.54,1.14,0,1.72-1.32,1.41-2.82,2.6-4.47,3.61-4.7,2.88-9.8,4.28-15.31,3.95-6.2-.36-11.67-2.58-16.27-6.81-.26-.24-.51-.5-.75-.76-.54-.57-.54-1.14,0-1.72,1.73-1.85,3.76-3.31,5.99-4.49,3.87-2.05,8-3.1,13.24-3.13ZM25.06,18.81c0-3.47-2.8-6.28-6.27-6.28-3.45,0-6.25,2.78-6.27,6.24-.02,3.46,2.77,6.28,6.25,6.3,3.46.02,6.28-2.79,6.29-6.26ZM25.5,13.54c2.39,3.51,2.39,7.01-.05,10.58,3.59-1.08,6.76-2.78,9.47-5.3-1.62-1.91-7.41-5.14-9.43-5.29ZM12.15,24.12c-2.44-3.57-2.44-7.08,0-10.64-3.59,1.08-6.75,2.78-9.49,5.32,2.74,2.54,5.91,4.24,9.5,5.32Z"/>
      <path d="M2.21,2.21c0,.18,0,.31,0,.45,0,1.91,0,3.82,0,5.73,0,.74-.45,1.24-1.1,1.24-.65,0-1.1-.5-1.1-1.25,0-2.37,0-4.75,0-7.12C0,.44.44,0,1.25,0c2.37,0,4.75,0,7.12,0,.75,0,1.25.44,1.25,1.09,0,.66-.5,1.11-1.24,1.11-1.91,0-3.82,0-5.73,0-.13,0-.27,0-.45,0Z"/>
      <path d="M35.39,2.21c-2.13,0-4.19,0-6.26,0-.84,0-1.38-.77-1.08-1.5.18-.44.52-.69.99-.69,2.49,0,4.99-.01,7.48,0,.59,0,1.06.47,1.06,1.05.01,2.49.01,4.99,0,7.48,0,.62-.52,1.09-1.12,1.08-.61-.01-1.08-.49-1.08-1.15,0-1.94,0-3.89,0-5.83,0-.13,0-.26,0-.43Z"/>
      <path d="M2.21,35.38c1.89,0,3.72,0,5.55,0,.27,0,.54-.01.81,0,.6.03,1.06.52,1.06,1.1,0,.59-.46,1.09-1.06,1.09-2.49.01-4.99.01-7.48,0-.6,0-1.07-.48-1.07-1.08,0-2.48,0-4.96,0-7.44,0-.62.51-1.09,1.11-1.09.61,0,1.09.49,1.09,1.14,0,1.94,0,3.89,0,5.83,0,.13,0,.26,0,.44Z"/>
      <path d="M35.39,35.38c0-.5,0-.95,0-1.4,0-1.63,0-3.25,0-4.88,0-.65.49-1.13,1.1-1.13.62,0,1.1.48,1.1,1.13,0,2.44,0,4.89,0,7.33,0,.69-.47,1.15-1.16,1.15-2.43,0-4.86,0-7.3,0-.68,0-1.17-.48-1.16-1.11,0-.63.5-1.09,1.18-1.09,1.93,0,3.86,0,5.79,0,.13,0,.26,0,.44,0Z"/>
      <path d="M18.81,15.02c2.1.01,3.78,1.71,3.76,3.8-.02,2.1-1.73,3.78-3.81,3.75-2.09-.03-3.75-1.71-3.74-3.78,0-2.09,1.7-3.78,3.79-3.77ZM20.37,18.79c0-.87-.69-1.56-1.56-1.56-.88,0-1.58.69-1.58,1.58,0,.88.71,1.58,1.59,1.56.87-.01,1.55-.71,1.54-1.58Z"/>
    </g>
  </g>
</svg>