<?xml version="1.0" encoding="UTF-8"?>
<svg id="Layer_2" xmlns="http://www.w3.org/2000/svg" viewBox="0 0 50.45 58.12">
  <defs>
    <style>
      .cls-1 {
        fill: #f44336;
      }
    </style>
  </defs>
  <g id="Layer_1-2" data-name="Layer_1">
    <g>
      <path class="cls-1" d="M25.28,0c8.59.05,15.58,7.08,15.5,15.61-.08,8.6-7.07,15.51-15.64,15.47-8.53-.04-15.5-7.07-15.47-15.59C9.7,6.91,16.71-.05,25.28,0ZM25.24,27.02c6.31,0,11.49-5.2,11.47-11.51-.01-6.32-5.19-11.47-11.51-11.45-6.33.01-11.49,5.19-11.47,11.49.02,6.32,5.2,11.47,11.51,11.47Z"/>
      <path d="M24.35,35.11c7.38.11,13.33,1.86,18.46,5.97,3.97,3.19,6.62,7.22,7.45,12.33.14.85.18,1.72.2,2.58.03,1.17-.8,2.06-1.9,2.11-1.14.05-2.04-.77-2.14-1.96-.07-.82-.07-1.65-.22-2.45-.81-4.35-3.27-7.63-6.8-10.14-4.73-3.36-10.07-4.62-15.81-4.29-4.51.26-8.7,1.58-12.41,4.22-3.55,2.52-6.05,5.79-6.89,10.16-.15.8-.16,1.63-.23,2.45-.07.94-.63,1.69-1.46,1.95-.82.25-1.77-.05-2.22-.81C.13,56.83,0,56.31,0,55.86c.04-4.45,1.64-8.33,4.48-11.69,4-4.72,9.2-7.37,15.21-8.5,1.82-.34,3.68-.45,4.66-.56Z"/>
    </g>
  </g>
</svg>