<?xml version="1.0" encoding="UTF-8"?>
<svg id="Layer_2" xmlns="http://www.w3.org/2000/svg" viewBox="0 0 83.71 83.72">
  <defs>
    <style>
      .cls-1 {
        fill: #fff;
      }

      .cls-2 {
        fill: #f44336;
      }
    </style>
  </defs>
  <g id="Layer_1-2" data-name="Layer_1">
    <g>
      <path d="M64.61,71.13c-2.93,2.07-5.91,3.55-9.16,4.47-5.34,1.51-10.69,1.5-16.04.02-.57-.16-1.17-.25-1.76-.25-10.95-.01-21.9-.01-32.85-.01C1.66,75.35,0,73.7,0,70.57,0,48.64,0,26.71,0,4.78,0,1.64,1.64.01,4.79.01,17.7.01,30.61.02,43.53,0c1.18,0,2.08.37,2.9,1.2,2.73,2.78,5.49,5.53,8.26,8.27.77.76,1.13,1.61,1.11,2.69-.04,2.15,0,4.3-.02,6.46,0,.55.14.8.68.99,10.81,3.81,17.52,11.31,19.75,22.55,1.54,7.74-.13,14.98-4.47,21.58-.13.2-.28.4-.41.61-.03.04-.04.1-.24.34.25.16.55.29.76.5,3.49,3.48,6.98,6.97,10.46,10.45,1.88,1.88,1.87,3.9,0,5.78-.31.31-.62.62-.93.92-1.85,1.84-3.88,1.85-5.72.02-3.49-3.48-6.98-6.97-10.46-10.46-.21-.21-.37-.47-.59-.77ZM73.91,47.49c0-14.69-11.84-26.53-26.55-26.54-14.55,0-26.44,11.91-26.43,26.5,0,14.57,11.83,26.46,26.35,26.49,14.75.02,26.63-11.77,26.63-26.44ZM43.24,2.8h-.93c-12.53,0-25.06,0-37.59,0-1.5,0-1.93.44-1.93,1.95,0,21.96,0,43.91,0,65.87,0,1.46.45,1.93,1.89,1.93,8.94,0,17.87,0,26.81,0,.2,0,.4-.04.79-.07-6.13-3.86-10.35-9.05-12.6-15.75-2.25-6.7-1.99-13.36.46-19.99,3.7-10.02,15.93-21.11,32.79-18.12v-6.03c-1.67,0-3.28,0-4.88,0-3.15,0-4.79-1.64-4.8-4.77,0-1.63,0-3.26,0-5.01ZM66.79,69.49c.16.17.34.37.53.56,1.75,1.75,3.5,3.5,5.25,5.25,1.65,1.65,3.31,3.31,4.96,4.96.88.88,1.08.88,1.99-.03.25-.25.5-.5.75-.75.85-.86.85-1.08,0-1.93-3.44-3.45-6.88-6.89-10.33-10.33-.16-.16-.35-.3-.45-.39-.93.91-1.8,1.77-2.71,2.66ZM50.61,9.78c-1.51-1.51-3.07-3.07-4.56-4.55,0,.95-.02,2.06,0,3.17.02.81.52,1.33,1.33,1.37,1.13.05,2.27.01,3.22.01Z"/>
      <path class="cls-1" d="M50.61,9.78c-.95,0-2.09.04-3.22-.01-.81-.04-1.3-.56-1.33-1.37-.03-1.11,0-2.23,0-3.17,1.49,1.49,3.04,3.04,4.56,4.55Z"/>
      <path class="cls-2" d="M71.13,45.97c0,13.59-8.99,23.63-21.08,25.03-12.58,1.46-24.13-7.39-26.05-19.94-2.02-13.19,7.25-25.5,20.45-27.14.89-.11,1.79-.16,2.69-.18,1.02-.03,1.67.53,1.69,1.37.01.83-.63,1.38-1.65,1.41-6.56.2-11.99,2.78-16.1,7.9-9.91,12.34-2.89,30.88,12.69,33.62,11.64,2.05,22.61-5.85,24.37-17.53,1.47-9.8-4.25-19.36-13.58-22.72-.18-.06-.36-.12-.54-.2-.84-.36-1.2-1.07-.91-1.82.28-.76,1.01-1.08,1.88-.79,2.77.91,5.3,2.29,7.52,4.17,5.66,4.78,8.48,10.91,8.62,16.82Z"/>
      <path d="M43.06,53.72c2.16-2.87,4.23-5.64,6.3-8.4,1.73-2.31,3.46-4.62,5.19-6.92.39-.52.91-.92,1.53-.64.44.2.93.66,1.03,1.09.1.41-.18,1-.46,1.39-2.88,3.89-5.8,7.76-8.71,11.64-1.11,1.48-2.21,2.97-3.33,4.44-.88,1.17-1.63,1.21-2.68.16-1.14-1.14-2.27-2.27-3.41-3.41-.94-.94-1.08-1.73-.44-2.39.67-.68,1.45-.56,2.39.39.84.85,1.67,1.71,2.59,2.66Z"/>
      <path d="M23.76,7c4.41,0,8.82,0,13.23,0,.3,0,.6-.01.9.03.68.1,1.07.54,1.15,1.19.08.66-.22,1.19-.85,1.42-.34.13-.75.14-1.12.14-8.9,0-17.81,0-26.71,0-.14,0-.27,0-.41,0-.95-.04-1.58-.61-1.58-1.41,0-.82.62-1.38,1.59-1.38,2.48-.01,4.96,0,7.43,0,2.12,0,4.25,0,6.37,0Z"/>
      <path d="M23.7,16.75c-4.41,0-8.82,0-13.23,0-.33,0-.66.01-.98-.05-.68-.12-1.05-.58-1.11-1.24-.05-.66.26-1.17.91-1.39.3-.1.64-.12.96-.12,8.98,0,17.97,0,26.95,0,.3,0,.61.02.88.11.65.2.99.69.95,1.36-.04.7-.43,1.17-1.14,1.29-.29.05-.6.04-.9.04-4.44,0-8.88,0-13.31,0Z"/>
      <path class="cls-2" d="M17.33,23.73c-2.42,0-4.84,0-7.26,0-1.03,0-1.67-.53-1.7-1.36-.02-.86.65-1.43,1.71-1.43,4.9,0,9.79,0,14.69,0,1.1,0,1.73.52,1.72,1.4,0,.88-.62,1.38-1.74,1.38-2.48,0-4.95,0-7.43,0Z"/>
      <path d="M13.95,30.72c-1.31,0-2.61.01-3.92,0-1.01-.01-1.66-.58-1.67-1.41,0-.84.63-1.38,1.66-1.38,2.61,0,5.22,0,7.83,0,1.05,0,1.65.52,1.65,1.38,0,.86-.61,1.4-1.64,1.41-1.31.01-2.61,0-3.92,0Z"/>
      <path d="M13.95,62.78c1.33,0,2.67-.01,4,0,.97.01,1.56.56,1.56,1.4,0,.84-.6,1.38-1.57,1.38-2.67.01-5.33.01-8,0-.94,0-1.58-.59-1.58-1.4,0-.8.65-1.38,1.59-1.39,1.33-.01,2.67,0,4,0Z"/>
      <path d="M12.53,37.67c-.9,0-1.79.02-2.69,0-.87-.03-1.44-.56-1.47-1.32-.03-.78.56-1.43,1.44-1.45,1.82-.04,3.64-.04,5.46,0,.91.02,1.46.61,1.45,1.42-.01.82-.56,1.33-1.5,1.36-.9.02-1.79,0-2.69,0,0,0,0,0,0,0Z"/>
      <path class="cls-2" d="M12.55,58.59c-.9,0-1.79.02-2.69,0-.91-.03-1.5-.6-1.49-1.39,0-.75.58-1.37,1.42-1.38,1.85-.04,3.69-.04,5.54,0,.86.02,1.39.62,1.39,1.4,0,.79-.53,1.34-1.4,1.37-.92.03-1.85,0-2.77,0,0,0,0,0,0,0Z"/>
      <path d="M11.86,48.85c.71,0,1.41-.03,2.12,0,.8.04,1.35.6,1.37,1.33.02.71-.52,1.39-1.29,1.42-1.46.06-2.93.06-4.39,0-.78-.03-1.32-.71-1.29-1.42.02-.73.58-1.27,1.37-1.34.05,0,.11,0,.16,0,.65,0,1.3,0,1.95,0,0,0,0,0,0,0Z"/>
      <path class="cls-2" d="M11.89,41.86c.68,0,1.36-.02,2.04,0,.82.03,1.42.63,1.43,1.38,0,.75-.59,1.38-1.4,1.39-1.38.03-2.77.03-4.15,0-.83-.01-1.42-.62-1.43-1.37,0-.75.59-1.36,1.41-1.4.7-.03,1.41,0,2.12,0Z"/>
    </g>
  </g>
</svg>