<?xml version="1.0" encoding="UTF-8"?>
<svg id="Layer_2" xmlns="http://www.w3.org/2000/svg" viewBox="0 0 36.12 31.95">
  <defs>
    <style>
      .cls-1 {
        fill: #f44336;
      }
    </style>
  </defs>
  <g id="Layer_1-2" data-name="Layer_1">
    <g>
      <path d="M18.09,0c3.4,0,6.8-.01,10.2,0,3.92.01,7.01,2.61,7.71,6.46.07.41.11.83.11,1.25.01,2.01.01,4.03,0,6.04,0,1.16-.89,1.89-1.93,1.63-.7-.17-1.14-.75-1.14-1.54,0-2.01,0-4.03,0-6.04-.01-2.17-1.35-3.99-3.37-4.55-.46-.13-.95-.18-1.43-.18-6.78-.01-13.57-.01-20.35,0-2.78,0-4.79,2.01-4.79,4.79,0,5.4,0,10.8,0,16.2,0,2.78,2,4.79,4.78,4.8,4.01.01,8.03,0,12.04,0,1.1,0,1.78.65,1.74,1.63-.03.76-.61,1.37-1.37,1.44-.11,0-.23,0-.34,0-4.05,0-8.09.01-12.14,0C3.43,31.92.05,28.58.02,24.2c-.03-5.48-.03-10.96,0-16.44C.05,3.35,3.43.02,7.84,0c3.42-.01,6.83,0,10.25,0Z"/>
      <path d="M18,17.35c-.53-.24-1.13-.39-1.58-.74-3.22-2.53-6.4-5.09-9.59-7.65-.72-.58-.83-1.51-.29-2.19.54-.69,1.49-.78,2.24-.19,2.95,2.35,5.89,4.7,8.82,7.07.36.29.56.29.92,0,2.9-2.35,5.83-4.68,8.74-7.01.8-.64,1.75-.58,2.31.13.56.7.42,1.62-.37,2.25-3.14,2.52-6.29,5.03-9.43,7.55-.51.4-1.07.65-1.73.65l-.06.13Z"/>
      <path class="cls-1" d="M26.85,26.71c0-.33,0-.5,0-.67,0-2.66,0-5.31,0-7.97,0-.82.49-1.39,1.26-1.54.7-.13,1.42.24,1.67.92.1.28.13.6.13.9.01,2.56,0,5.12,0,7.68,0,.17,0,.34,0,.51.05.03.1.06.15.09.46-.49.89-.99,1.37-1.45.61-.59,1.55-.56,2.14.01.58.58.6,1.5.04,2.14-.05.06-.11.12-.17.17-1.04,1.04-2.07,2.08-3.11,3.11-1.22,1.21-2.71,1.22-3.93.02-1.07-1.05-2.12-2.11-3.18-3.18-.68-.69-.71-1.6-.09-2.24.62-.64,1.57-.61,2.28.07.44.43.88.87,1.42,1.41Z"/>
    </g>
  </g>
</svg>