<?xml version="1.0" encoding="UTF-8"?>
<svg id="Layer_2" xmlns="http://www.w3.org/2000/svg" viewBox="0 0 44.48 39.84">
  <defs>
    <style>
      .cls-1 {
        fill: #f44336;
      }
    </style>
  </defs>
  <g id="Layer_1-2" data-name="Layer_1">
    <g>
      <path d="M38.91,32.43c0,.93,0,1.78,0,2.63-.01,2.76-2.01,4.77-4.77,4.77-7.94,0-15.89,0-23.83,0-2.73,0-4.73-2.02-4.75-4.74,0-.87,0-1.73,0-2.66-.87,0-1.7.02-2.53,0-.4-.01-.82-.05-1.19-.18C.76,31.88.02,30.85.01,29.7c-.01-2.81-.02-5.61,0-8.42,0-1.51,1.18-2.69,2.69-2.73.94-.03,1.87,0,2.86,0,0-.97-.02-1.89,0-2.81.03-1.56.69-2.82,1.94-3.74.87-.64,1.87-.88,2.94-.88,3.43,0,6.86,0,10.29,0,.17,0,.34,0,.54,0,0-.18.02-.32.02-.47,0-.87-.03-1.74.01-2.6.03-.53-.1-.79-.63-1.01-1.61-.68-2.46-2.48-2.06-4.16C19.03,1.17,20.58-.04,22.29,0c1.77.04,3.3,1.33,3.59,3.02.31,1.78-.62,3.48-2.3,4.11-.34.13-.42.28-.42.62.02,1.1,0,2.19,0,3.36.2,0,.37,0,.54,0,3.46,0,6.92,0,10.38,0,2.34,0,4.17,1.39,4.69,3.56.1.4.13.83.13,1.24.02.85,0,1.7,0,2.62.69,0,1.35-.01,2.01,0,.49.01.99-.01,1.46.1,1.22.28,2.07,1.36,2.08,2.61.01,2.81.02,5.61,0,8.42,0,1.57-1.24,2.73-2.86,2.76-.88.01-1.76,0-2.69,0ZM22.25,12.98c-3.92,0-7.84,0-11.76,0-.3,0-.61,0-.9.07-1.35.31-2.17,1.41-2.17,2.91,0,6.31,0,12.62,0,18.92,0,1.96,1.14,3.1,3.1,3.1,7.83,0,15.65,0,23.48,0,1.93,0,3.07-1.15,3.07-3.08,0-6.28-.02-12.56.01-18.84.01-1.87-1.3-3.13-3.11-3.11-3.91.06-7.81.02-11.72.02ZM5.54,20.39c-.84,0-1.65,0-2.46,0-.91,0-1.23.31-1.23,1.22,0,2.59,0,5.17,0,7.76,0,.19.01.38.06.56.1.35.35.6.71.61.96.03,1.93,0,2.92,0v-10.16ZM38.94,30.56c.86,0,1.69,0,2.53,0,.83,0,1.16-.32,1.16-1.16,0-1.23,0-2.46,0-3.69,0-1.4,0-2.81,0-4.21,0-.77-.35-1.11-1.11-1.12-.45,0-.9,0-1.35,0-.41,0-.82,0-1.23,0v10.18ZM24.08,3.73c0-1.03-.79-1.85-1.82-1.86-1.04,0-1.85.79-1.86,1.82,0,1.03.79,1.85,1.82,1.86,1.03,0,1.85-.79,1.86-1.82Z"/>
      <path class="cls-1" d="M16.66,18.54c1.55,0,2.8,1.23,2.8,2.76,0,1.53-1.26,2.79-2.78,2.79-1.51,0-2.76-1.25-2.78-2.76-.01-1.54,1.22-2.79,2.76-2.8ZM16.67,22.22c.52,0,.94-.41.93-.92,0-.49-.42-.9-.91-.91-.51,0-.94.42-.93.93,0,.5.41.9.91.9Z"/>
      <path class="cls-1" d="M27.77,18.54c1.55,0,2.8,1.22,2.8,2.76,0,1.53-1.25,2.79-2.78,2.8-1.51,0-2.77-1.25-2.78-2.75-.01-1.54,1.22-2.79,2.76-2.8ZM27.81,22.22c.5,0,.91-.4.91-.9,0-.51-.42-.94-.93-.93-.49,0-.91.42-.91.91,0,.51.41.93.93.92Z"/>
      <path d="M22.23,32.43c-1.71-.02-3.36-.38-4.91-1.16-.57-.28-.78-.78-.55-1.27.23-.5.76-.67,1.33-.41,2.76,1.3,5.52,1.3,8.29,0,.55-.26,1.07-.1,1.31.37.25.49.05,1.01-.5,1.29-1.55.79-3.2,1.14-4.96,1.17Z"/>
    </g>
  </g>
</svg>