<?xml version="1.0" encoding="UTF-8"?>
<svg id="Layer_2" xmlns="http://www.w3.org/2000/svg" viewBox="0 0 70.45 70.63">
  <defs>
    <style>
      .cls-1 {
        fill: #f44336;
      }
    </style>
  </defs>
  <g id="Layer_1-2" data-name="Layer_1">
    <g>
      <path d="M62.18,0c5.74.17,9.73,5.82,7.76,11.21-1.69,4.62-3.51,9.19-5.27,13.78-4.68,12.17-9.37,24.34-14.04,36.52-1.24,3.23-3.48,5.22-6.96,5.66-4.02.5-7.77-1.99-8.86-5.92-1.64-5.95-3.24-11.92-4.79-17.9-.4-1.53-1.24-2.37-2.76-2.77-5.85-1.52-11.68-3.1-17.51-4.66-3.79-1.01-6.2-3.97-6.38-7.82-.17-3.5,2.03-6.67,5.55-8.03C25.63,13.63,42.35,7.19,59.08.78c.99-.38,2.07-.53,3.1-.78ZM64.98,8.52c-.05-.32-.07-.53-.11-.72-.43-1.78-2.12-2.55-4.01-1.82-8.2,3.15-16.4,6.31-24.6,9.46-8.48,3.26-16.96,6.52-25.43,9.78-1.28.49-2.03,1.57-1.95,2.77.08,1.25.88,2.21,2.15,2.55,5.7,1.53,11.39,3.12,17.12,4.55,3.92.98,6.34,3.21,7.32,7.19,1.42,5.75,3.04,11.46,4.58,17.18.38,1.4,1.3,2.2,2.58,2.28,1.23.08,2.27-.68,2.79-2.03,6.41-16.66,12.82-33.32,19.22-49.98.16-.42.25-.87.35-1.21Z"/>
      <path d="M2.64,70.59c-1.01-.06-1.86-.55-2.35-1.58-.5-1.05-.34-2.06.39-2.95.27-.34.6-.63.91-.94,3.56-3.57,7.13-7.13,10.69-10.7.8-.8,1.71-1.22,2.85-.92,1.86.49,2.66,2.63,1.57,4.21-.16.22-.35.43-.54.62-3.74,3.74-7.49,7.48-11.22,11.23-.61.61-1.3,1.01-2.29,1.02Z"/>
      <path class="cls-1" d="M18.68,70.63c-1.52-.1-2.39-.62-2.86-1.69-.49-1.1-.29-2.12.52-2.99.97-1.03,2-2.02,3-3.02,1.6-1.6,3.2-3.22,4.82-4.81.8-.79,1.78-1.02,2.85-.66,1.07.37,1.68,1.16,1.83,2.28.12.87-.17,1.64-.78,2.25-2.59,2.6-5.16,5.21-7.79,7.76-.49.47-1.24.68-1.59.87Z"/>
      <path class="cls-1" d="M0,52.38c.01-.86.28-1.52.83-2.07,2.57-2.58,5.14-5.16,7.73-7.72,1.14-1.13,2.79-1.14,3.89-.08,1.11,1.07,1.16,2.78.02,3.94-2.57,2.61-5.17,5.2-7.78,7.77-.86.85-1.92,1.06-3.04.56-1.06-.47-1.58-1.34-1.65-2.4Z"/>
      <path class="cls-1" d="M50.86,17.34c.75.03,1.58.5,2.08,1.44.5.94.45,1.9-.13,2.8-.15.23-.34.43-.53.63-3.77,3.78-7.55,7.55-11.33,11.32-1.19,1.18-2.74,1.3-3.89.31-1.25-1.07-1.32-2.85-.13-4.08,1.34-1.38,2.72-2.73,4.08-4.09,2.46-2.46,4.93-4.92,7.39-7.39.59-.59,1.27-.97,2.45-.95Z"/>
    </g>
  </g>
</svg>