<?xml version="1.0" encoding="UTF-8"?>
<svg id="Layer_2" xmlns="http://www.w3.org/2000/svg" viewBox="0 0 47.67 33.04">
  <defs>
    <style>
      .cls-1 {
        fill: #f44336;
      }
    </style>
  </defs>
  <g id="Layer_1-2" data-name="Layer_1">
    <g>
      <path d="M9.62,25.58c.76-2.36,2.25-3.89,4.65-4.41,2.97-.64,5.89,1.05,6.88,3.96.12.36.29.46.65.46,2.65-.02,5.31-.01,7.96,0,.25,0,.41-.02.51-.32.88-2.59,3.12-4.23,5.73-4.23,2.64,0,4.87,1.67,5.75,4.28.02.07.05.15.09.24h2.83v-.47c0-2.28,0-4.56-.01-6.84,0-.24-.11-.51-.25-.71-.53-.73-1.11-1.41-1.64-2.14-.21-.29-.44-.37-.78-.37-3.62.01-7.23,0-10.85,0-1.3,0-1.85-.54-1.85-1.83,0-3.2,0-6.39,0-9.59,0-.18,0-.36,0-.6-.25,0-.45,0-.64,0-7.49,0-14.99,0-22.48,0-.28,0-.56-.01-.83-.08-.71-.18-1.13-.83-1.07-1.59.06-.68.59-1.23,1.29-1.31.18-.02.37-.03.56-.03C14.22,0,22.32,0,30.42,0c.38,0,.78.06,1.12.22.53.25.75.76.76,1.34,0,.46,0,.92,0,1.44.21,0,.38,0,.54,0,1.85,0,3.69.02,5.54,0,.89-.02,1.44.36,1.83,1.14,1.33,2.69,2.67,5.39,4.06,8.05.4.77.98,1.46,1.5,2.17.46.63.94,1.23,1.43,1.84.31.39.47.82.47,1.33,0,3.13,0,6.27,0,9.4,0,1.04-.6,1.65-1.65,1.66-1.27.02-2.54.01-3.82,0-.3,0-.42.09-.52.37-.89,2.5-3.13,4.09-5.7,4.07-2.58-.02-4.76-1.58-5.65-4.07-.1-.28-.23-.38-.52-.37-2.7.01-5.4.01-8.1,0-.35,0-.47.13-.57.43-.84,2.37-2.93,3.9-5.46,4.01-2.4.1-4.7-1.26-5.63-3.53-.33-.8-.72-.97-1.48-.92-.9.06-1.8.03-2.7,0-1.02-.03-1.66-.71-1.58-1.66.05-.7.57-1.26,1.33-1.32.74-.06,1.49-.03,2.23-.04.59,0,1.18,0,1.78,0ZM32.34,6.01v5.98h8.37s.03-.06.02-.07c-.95-1.91-1.9-3.82-2.87-5.73-.05-.09-.21-.18-.32-.18-1.72-.01-3.44,0-5.2,0ZM18.46,27.04c0-1.65-1.33-2.98-2.98-2.99-1.65,0-2.99,1.32-3.01,2.96-.01,1.66,1.34,3.02,3.01,3.02,1.64,0,2.98-1.34,2.98-2.99ZM36,24.05c-1.65,0-2.98,1.33-2.99,2.98,0,1.63,1.34,2.99,2.98,3,1.66,0,3.03-1.36,3.02-3.01-.01-1.64-1.36-2.97-3.01-2.97Z"/>
      <path class="cls-1" d="M10.39,6.17c2.09,0,4.18,0,6.28,0,.83,0,1.43.46,1.58,1.17.18.87-.41,1.7-1.3,1.82-.11.01-.22.01-.32.01-4.17,0-8.34,0-12.51,0-1.13,0-1.85-.86-1.6-1.87.16-.66.7-1.11,1.42-1.12,1.07-.02,2.14,0,3.21,0,1.08,0,2.17,0,3.25,0Z"/>
      <path d="M7.92,15.07c-2.03,0-4.06,0-6.09,0-.26,0-.53,0-.78-.08C.43,14.81.01,14.23,0,13.6c-.01-.65.41-1.26,1.03-1.44.25-.07.52-.09.78-.09,4.06,0,8.12,0,12.18,0,.22,0,.44,0,.65.05.74.17,1.23.83,1.18,1.57-.06.74-.63,1.35-1.39,1.37-1.49.04-2.98.02-4.46.02-.68,0-1.36,0-2.05,0Z"/>
      <path class="cls-1" d="M7.4,17.99c1.18,0,2.36-.03,3.53,0,1.03.04,1.69,1.02,1.35,1.97-.23.63-.71,1-1.37,1.01-2.34.02-4.68.03-7.02,0-.84-.01-1.46-.73-1.44-1.53.02-.8.62-1.43,1.46-1.45,1.16-.03,2.32,0,3.49,0,0,0,0,0,0,0Z"/>
    </g>
  </g>
</svg>