<?xml version="1.0" encoding="UTF-8"?>
<svg id="Layer_2" xmlns="http://www.w3.org/2000/svg" viewBox="0 0 51 48.71">
  <defs>
    <style>
      .cls-1 {
        fill: #f44336;
      }
    </style>
  </defs>
  <g id="Layer_1-2" data-name="Layer_1">
    <g>
      <path d="M25.52.05c3.54,0,7.08-.03,10.62.01,1.93.02,3.88.1,5.71.75,4.88,1.75,7.91,5.14,8.79,10.3.24,1.4.32,2.84.33,4.26.04,4.24.04,8.49,0,12.73-.03,3.56-1.29,6.67-3.77,9.23-2.42,2.49-5.36,3.94-8.86,4.08-2.15.09-4.3.1-6.45.11-2.3,0-4.37.66-6.24,2-2.03,1.46-4.05,2.93-6.11,4.35-2.7,1.87-6.31.39-6.86-2.84-.12-.7.03-1.47.19-2.18.2-.9-.06-1.35-.98-1.33-2.14.07-4.23-.17-6.13-1.23C2.17,38.31.12,35.25.05,31.11c-.1-5.48-.03-10.97.03-16.46.02-1.47.17-2.97.47-4.41C1.69,4.87,6.41.73,11.91.28c2.29-.19,4.59-.22,6.88-.26,2.24-.04,4.49,0,6.73,0,0,.01,0,.03,0,.04ZM47.53,20.68c-.09-2.36-.13-5.46-.34-8.54-.31-4.47-4.06-7.49-6.82-8.03-1.54-.3-3.12-.47-4.69-.48-5.77-.06-11.53-.06-17.3-.04-2.07,0-4.15.1-6.22.25-4.49.32-7.89,4.3-8.24,7.73-.11,1.05-.27,2.1-.28,3.15-.04,5.45-.11,10.9-.02,16.35.05,3.03,1.68,5.13,4.43,6.37,1.26.56,2.59.56,3.93.53.83-.02,1.62.15,2.35.57,1.87,1.08,2.66,3.19,2,5.27-.08.24-.14.52-.08.75.17.62.82.74,1.44.3,1.99-1.42,3.98-2.84,5.97-4.26,2.46-1.76,5.2-2.62,8.22-2.62,2.19,0,4.38-.01,6.56-.12,4.45-.21,8.59-4.22,8.87-8.65.17-2.59.14-5.19.22-8.52Z"/>
      <path class="cls-1" d="M25.52,27.3c-3.13,0-6.26,0-9.4,0-1.28,0-2.14-1.1-1.81-2.27.21-.76.9-1.28,1.75-1.28,1.56-.01,3.11,0,4.67,0,4.71,0,9.41,0,14.12,0,1.04,0,1.82.64,1.91,1.56.12,1.13-.67,2-1.85,2-3.13,0-6.26,0-9.4,0Z"/>
      <path class="cls-1" d="M20.85,14.25c1.5,0,3,0,4.5,0,1.15,0,1.94.72,1.95,1.75.01,1.05-.79,1.81-1.96,1.81-3.06,0-6.11,0-9.17,0-.95,0-1.68-.55-1.87-1.35-.19-.81.17-1.67.92-2.01.31-.14.68-.19,1.02-.19,1.54-.02,3.07,0,4.61,0Z"/>
    </g>
  </g>
</svg>