<?xml version="1.0" encoding="UTF-8"?>
<svg id="Layer_2" xmlns="http://www.w3.org/2000/svg" viewBox="0 0 39.97 40.02">
  <defs>
    <style>
      .cls-1 {
        fill: #f44336;
      }
    </style>
  </defs>
  <g id="Layer_1-2" data-name="Layer_1">
    <g>
      <path d="M19.18,3.4c-4.1.08-8.23,1.88-11.52,5.5-4.76,5.22-5.74,12.75-2.35,18.96,2.81,5.14,7.2,8.12,13.06,8.74,4.57.48,8.68-.79,12.2-3.72,3.85-3.22,5.9-7.38,6.06-12.43,0-.18.01-.36.03-.54.13-.97.85-1.57,1.8-1.5.87.06,1.51.79,1.51,1.73,0,1.88-.22,3.75-.81,5.54-2.54,7.72-7.76,12.56-15.77,14.04-10.33,1.91-20.37-4.74-22.82-14.86C-1.82,14.9,3.42,4.8,13.05,1.34c7.86-2.82,14.94-1.16,21.04,4.55.73.68.74,1.69.1,2.38-.65.69-1.67.72-2.4.01-1.28-1.24-2.68-2.3-4.28-3.1-2.38-1.2-4.89-1.79-8.34-1.79Z"/>
      <path class="cls-1" d="M19.16,21.95c.14-.19.21-.32.31-.42,2.22-2.23,4.45-4.45,6.67-6.68.46-.46.98-.72,1.64-.6,1.2.22,1.76,1.63,1.03,2.61-.11.15-.24.28-.37.4-2.64,2.64-5.28,5.28-7.92,7.92-.94.94-1.83.94-2.77,0-1.28-1.28-2.56-2.55-3.83-3.83-.68-.68-.79-1.56-.3-2.26.62-.87,1.79-.95,2.61-.15.87.85,1.73,1.72,2.59,2.59.1.1.18.22.33.42Z"/>
    </g>
  </g>
</svg>