<?xml version="1.0" encoding="UTF-8"?>
<svg id="Layer_2" xmlns="http://www.w3.org/2000/svg" viewBox="0 0 42.07 39.77">
  <defs>
    <style>
      .cls-1 {
        fill: #f44336;
      }
    </style>
  </defs>
  <g id="Layer_1-2" data-name="Layer_1">
    <g>
      <path class="cls-1" d="M4.62,3.12c7.78,0,15.56,0,23.35,0L31.09,0c-3.35,0-6.7,0-10.05,0C15.57,0,10.1,0,4.63,0c-.47,0-.95.04-1.4.16C0,1.03-1.07,4.91,1.23,7.43c3.56,3.92,7.1,7.85,10.69,11.75l2.19-2.2c-3.5-3.85-7-7.71-10.5-11.56-.41-.45-.66-.93-.39-1.54.27-.6.78-.76,1.4-.76Z"/>
      <path d="M42.07,4.56c-.04,1.1-.47,2.04-1.2,2.85-4.62,5.07-9.22,10.14-13.84,15.2-.39.43-.56.84-.55,1.42.03,2.58.01,5.16.02,7.75,0,.63-.22,1.12-.72,1.51-2.51,2.01-5.02,4.02-7.53,6.03-.5.4-1.04.58-1.67.34-.65-.25-1-.81-1-1.62,0-4.32-.05-8.64.03-12.96.02-1.32-.34-2.28-1.25-3.25-.82-.88-1.63-1.76-2.44-2.65l2.19-2.2c1.33,1.46,2.65,2.92,3.98,4.38.41.45.62.95.62,1.57-.02,3.8-.01,7.6-.01,11.4v.59c.11-.07.17-.1.21-.13,1.42-1.14,2.84-2.28,4.24-3.44.14-.11.21-.39.21-.59.02-2.59.02-5.19,0-7.79,0-.66.2-1.18.64-1.67,4.82-5.29,9.63-10.6,14.45-15.9.41-.45.64-.94.36-1.54-.27-.58-.76-.74-1.36-.74-3.16,0-6.32,0-9.48,0L31.09,0c2.19,0,4.38,0,6.56,0,2.56,0,4.52,2.03,4.42,4.55Z"/>
    </g>
  </g>
</svg>