<?xml version="1.0" encoding="UTF-8"?>
<svg id="Layer_2" xmlns="http://www.w3.org/2000/svg" viewBox="0 0 43.25 38.46">
  <defs>
    <style>
      .cls-1 {
        fill: #f44336;
      }
    </style>
  </defs>
  <g id="Layer_1-2" data-name="Layer_1">
    <g>
      <path d="M40.15,18.63c.3-.32.57-.63.86-.91.57-.57,1.37-.59,1.88-.07.51.52.49,1.28-.07,1.85-1.01,1.02-2.02,2.04-3.05,3.05-.61.6-1.33.59-1.94-.02-1.01-1-2.01-2.01-3.02-3.02-.57-.57-.59-1.36-.07-1.88.51-.51,1.28-.48,1.85.07.28.28.54.57.81.86.04-.01.08-.03.12-.04,0-.13,0-.25,0-.38-.31-5.81-2.92-10.33-7.88-13.32C21.73.06,11.61,2.88,7.17,10.97c-.39.71-.87,1-1.47.9-.88-.15-1.31-1.1-.86-1.93,1.12-2.1,2.56-3.94,4.38-5.47C13.1,1.22,17.57-.28,22.62.04c8.53.56,15.57,6.81,17.13,15.21.2,1.07.26,2.17.4,3.38Z"/>
      <path d="M5.72,19.96c.02,2.68.66,5.21,1.98,7.54,2.62,4.62,6.57,7.41,11.81,8.25,6.62,1.06,13.25-2.26,16.52-8.17.07-.12.13-.25.2-.37.37-.6,1.09-.8,1.69-.48.6.32.85,1.04.54,1.67-.3.59-.63,1.16-1,1.71-3.24,4.74-7.7,7.53-13.4,8.22-9.77,1.18-18.73-5.43-20.55-15.11-.19-1-.21-2.04-.31-3.06,0-.08-.01-.16-.02-.24-.04-.03-.09-.06-.13-.1-.26.3-.51.62-.79.91-.57.58-1.36.61-1.88.09-.52-.52-.49-1.29.09-1.88,1-1.01,2.01-2.02,3.02-3.02.61-.6,1.33-.61,1.94,0,1.02,1.01,2.04,2.02,3.04,3.05.55.56.56,1.34.06,1.85-.51.51-1.28.49-1.85-.05-.29-.28-.56-.58-.83-.87-.04.03-.08.05-.11.08Z"/>
      <path class="cls-1" d="M23.96,14.83c-.26-.11-.55-.2-.79-.35-.67-.42-1.39-.52-2.14-.32-.68.18-1.17.89-1.04,1.58.05.26.24.58.45.7.73.41,1.51.74,2.27,1.09.58.27,1.22.46,1.75.82,2.19,1.5,2.43,4.62.48,6.59-.49.49-1.15.83-1.77,1.17-.24.13-.34.23-.32.49.01.17,0,.34-.02.5-.1.66-.64,1.1-1.3,1.08-.63-.02-1.13-.5-1.2-1.14-.07-.66-.09-.61-.71-.83-.67-.24-1.33-.54-1.94-.89-.63-.36-.78-1.13-.42-1.73.36-.6,1.15-.81,1.77-.39.83.56,1.72.71,2.69.65,1.09-.07,1.98-.98,2.01-2.07.02-.72-.34-1.27-1.06-1.57-.82-.34-1.64-.66-2.46-1-.33-.14-.65-.33-.97-.52-1.23-.71-1.86-1.79-1.81-3.21.06-1.53.75-2.71,2.11-3.47.01,0,.02-.02.04-.02.58-.12.77-.46.77-1.06,0-.63.61-1.1,1.23-1.1.61,0,1.13.45,1.24,1.06.02.12.04.25.03.38-.02.25.08.34.32.44.54.21,1.09.46,1.58.78.48.31.61.9.41,1.43-.18.49-.64.81-1.2.88Z"/>
    </g>
  </g>
</svg>