<?xml version="1.0" encoding="UTF-8"?>
<svg id="Layer_2" xmlns="http://www.w3.org/2000/svg" viewBox="0 0 47.61 39.28">
  <defs>
    <style>
      .cls-1 {
        fill: #f44336;
      }
    </style>
  </defs>
  <g id="Layer_1-2" data-name="Layer_1">
    <g>
      <path d="M23.8,19.26c.82.29,1.6.53,2.35.85,5.17,2.18,8.79,5.82,10.49,11.25.46,1.47.61,3,.63,4.54.01.76.02,1.52,0,2.28-.02.61-.33,1-.82,1.09-.49.1-.98-.13-1.15-.57-.09-.25-.11-.54-.11-.82-.02-1.64.05-3.28-.29-4.9-.45-2.14-1.34-4.08-2.68-5.8-2.63-3.37-6.1-5.42-10.27-6.15-5.59-.98-10.65.29-14.95,4.07-2.74,2.41-4.38,5.47-4.79,9.11-.15,1.3-.08,2.63-.11,3.94-.02.61-.3,1.01-.78,1.12-.67.14-1.24-.28-1.27-.99-.16-3.61.19-7.11,2.04-10.32,1.55-2.69,3.64-4.84,6.29-6.44.79-.48,1.62-.9,2.47-1.28.83-.36,1.71-.63,2.61-.96-3.64-2.43-5.53-5.75-5.05-10.19.3-2.74,1.59-5,3.71-6.73,4.42-3.6,10.86-2.98,14.48,1.4,2.01,2.44,2.78,5.27,2.22,8.38-.55,3.11-2.3,5.45-5.02,7.13ZM26.91,10.35c0-4.57-3.7-8.27-8.27-8.27-4.56,0-8.29,3.74-8.27,8.28.03,4.54,3.72,8.24,8.26,8.26,4.54.02,8.27-3.71,8.28-8.27Z"/>
      <path class="cls-1" d="M37.69,19.32c1.7.56,3.22,1.31,4.57,2.37,3.33,2.61,5.18,6,5.33,10.27.02.68.02,1.36,0,2.04-.01.69-.42,1.14-1.01,1.16-.61.02-1.01-.46-1.05-1.17-.06-1.28,0-2.59-.23-3.84-.63-3.36-2.56-5.85-5.45-7.61-1.96-1.2-4.11-1.76-6.39-1.85-.11,0-.22,0-.32-.02-.63-.06-1.05-.47-1.05-1.03,0-.56.42-.99,1.05-1.02,1.2-.06,2.32-.35,3.33-1,2.19-1.4,3.29-4.1,2.68-6.62-.63-2.61-2.8-4.51-5.42-4.76-.22-.02-.43-.03-.65-.06-.59-.07-1-.5-.99-1.03,0-.55.46-1.02,1.06-1.01.6.01,1.21.06,1.79.2,5.37,1.28,8.02,7.1,5.46,11.97-.57,1.08-1.36,1.99-2.36,2.71-.1.07-.19.15-.35.29Z"/>
    </g>
  </g>
</svg>