<?xml version="1.0" encoding="UTF-8"?>
<svg id="Layer_2" xmlns="http://www.w3.org/2000/svg" viewBox="0 0 60.65 60.61">
  <defs>
    <style>
      .cls-1 {
        fill: #f44336;
      }
    </style>
  </defs>
  <g id="Layer_1-2" data-name="Layer_1">
    <g>
      <path d="M30.31,60.61c-5.7,0-11.41,0-17.11,0-6.5,0-11.74-4.34-12.98-10.72-1.38-7.11,3.88-14.31,11.06-15.13.65-.07,1.3-.12,1.95-.12,11.41,0,22.81-.01,34.22,0,6.51,0,11.73,4.33,12.98,10.72,1.39,7.1-3.88,14.32-11.06,15.13-.71.08-1.44.12-2.16.12-5.64,0-11.27,0-16.91,0ZM37.91,38.96c-.22,0-.33,0-.44,0-8.18,0-16.37,0-24.55.01-.6,0-1.22.08-1.81.21-4.27.98-7.2,5.02-6.73,9.25.49,4.49,4.14,7.82,8.63,7.83,8.11.02,16.23,0,24.34,0,.16,0,.33-.03.53-.05-4.01-4.63-4.59-11.78.02-17.25ZM47.62,38.96c-4.75,0-8.63,3.9-8.63,8.66,0,4.75,3.89,8.65,8.64,8.65,4.78,0,8.68-3.9,8.67-8.69-.01-4.75-3.92-8.62-8.68-8.61Z"/>
      <path d="M14.09,16.24C14.09,7.28,21.39-.01,30.35,0c8.93.01,16.2,7.29,16.21,16.23,0,8.96-7.3,16.25-16.26,16.24-8.93-.01-16.21-7.3-16.21-16.23ZM42.23,16.23c0-6.56-5.35-11.91-11.92-11.9-6.53,0-11.87,5.34-11.88,11.87-.01,6.57,5.33,11.93,11.89,11.93,6.56,0,11.92-5.34,11.92-11.9Z"/>
      <path class="cls-1" d="M45.97,47.9c1.37-1.6,2.71-3.18,4.06-4.75.56-.65,1.28-.93,2.12-.76.84.17,1.41.69,1.64,1.53.2.72.08,1.4-.41,1.97-1.85,2.18-3.7,4.36-5.58,6.52-.85.97-2.1,1.04-3.07.2-1.23-1.06-2.43-2.15-3.62-3.25-.9-.83-.95-2.16-.17-3.04.79-.89,2.08-.98,3.03-.19.67.56,1.31,1.16,2,1.77Z"/>
    </g>
  </g>
</svg>