<?xml version="1.0" encoding="UTF-8"?>
<svg id="Layer_2" xmlns="http://www.w3.org/2000/svg" viewBox="0 0 49.95 42.44">
  <defs>
    <style>
      .cls-1 {
        fill: #f44336;
      }
    </style>
  </defs>
  <g id="Layer_1-2" data-name="Layer_1">
    <g>
      <path d="M24.96,15.64c4.32,0,8.36,1.12,12.1,3.25,5.43,3.1,9.62,7.43,12.61,12.92.67,1.23.11,2.57-1.17,2.92-.88.24-1.77-.15-2.24-1.04-1.09-2.05-2.43-3.93-3.99-5.64-3.13-3.43-6.78-6.1-11.25-7.54-4.95-1.59-9.79-1.22-14.48.93-5.6,2.57-9.78,6.68-12.73,12.06-.54.99-1.34,1.44-2.24,1.25-1.29-.27-1.94-1.64-1.33-2.85.92-1.8,2.02-3.49,3.29-5.06,3.35-4.15,7.41-7.36,12.37-9.4,2.84-1.17,6.02-1.81,9.07-1.81Z"/>
      <path class="cls-1" d="M24.99,42.44c-5.29,0-9.58-4.28-9.59-9.58-.01-5.31,4.25-9.6,9.54-9.62,5.32-.02,9.62,4.27,9.62,9.59,0,5.3-4.28,9.59-9.57,9.6ZM24.97,38.53c3.13,0,5.67-2.53,5.68-5.67,0-3.15-2.51-5.69-5.64-5.71-3.16-.01-5.71,2.52-5.71,5.69,0,3.14,2.53,5.68,5.66,5.69Z"/>
      <path d="M6.37,18.15c-.43-.21-.92-.33-1.27-.63-1.48-1.27-2.92-2.59-4.35-3.91-.83-.76-.87-1.95-.13-2.75.72-.79,1.89-.88,2.72-.16,1.49,1.31,2.96,2.64,4.42,3.98.62.57.77,1.39.46,2.14-.3.74-.98,1.2-1.84,1.32Z"/>
      <path d="M43.78,18.04c-1.05-.03-1.65-.4-2.01-1.14-.34-.71-.24-1.58.35-2.12,1.51-1.41,3.04-2.8,4.6-4.15.79-.68,1.94-.53,2.63.24.68.76.7,1.94-.06,2.65-1.49,1.4-3.02,2.76-4.57,4.1-.3.26-.75.34-.94.42Z"/>
      <path class="cls-1" d="M26.93,4.87c0,.94,0,1.89,0,2.83,0,1.18-.84,2.06-1.95,2.06-1.11,0-1.95-.87-1.95-2.05,0-1.89,0-3.77,0-5.66C23.03.86,23.85,0,24.97,0c1.12,0,1.95.86,1.96,2.05,0,.94,0,1.89,0,2.83Z"/>
    </g>
  </g>
</svg>