<?xml version="1.0" encoding="UTF-8"?>
<svg id="Layer_2" xmlns="http://www.w3.org/2000/svg" viewBox="0 0 50.28 50.26">
  <defs>
    <style>
      .cls-1 {
        fill: #f44336;
      }
    </style>
  </defs>
  <g id="Layer_1-2" data-name="Layer_1">
    <g>
      <path d="M42.53,38.65c-2.6,0-5.11,0-7.63,0-4.5-.02-7.98-3.64-7.82-8.12.14-3.87,3.51-7.28,7.39-7.33,4.61-.06,9.22-.02,13.84-.01,1.12,0,1.96.82,1.97,1.94.01,3.87.01,7.73,0,11.6,0,1.09-.84,1.89-1.93,1.92-.62.02-1.24,0-1.93,0,0,.54,0,1.04,0,1.53-.03,1.75.08,3.52-.13,5.24-.34,2.73-2.77,4.76-5.53,4.81-1.65.03-3.3,0-4.95,0-8.66,0-17.32,0-25.98,0-4.75,0-8.67-3.19-9.62-7.83-.13-.63-.18-1.28-.18-1.92C0,30.9,0,21.29,0,11.69.01,6.21,4.3,1.93,9.79,1.91c1.21,0,2.42,0,3.63,0,1.18,0,2.05.82,2.06,1.91.01,1.12-.87,1.93-2.08,1.96-1.57.03-3.16-.07-4.7.13-2.73.36-4.8,2.78-4.8,5.54-.02,9.75-.03,19.5,0,29.24,0,3.21,2.65,5.68,5.98,5.69,9.2,0,18.41,0,27.61,0,1.05,0,2.09.01,3.14,0,.99-.02,1.86-.74,1.89-1.69.06-1.99.02-3.98.02-6.03ZM46.38,27.06c-3.98,0-7.88-.03-11.79.03-.68.01-1.42.33-2,.71-1.42.92-1.96,2.67-1.47,4.25.5,1.6,1.97,2.71,3.67,2.72,3.75.02,7.49,0,11.24,0,.11,0,.23-.03.35-.04v-7.68Z"/>
      <path class="cls-1" d="M25.1,13.52c-5.07,0-10.15,0-15.22,0-1.06,0-1.77-.43-2.08-1.24-.39-1.04.12-2.06,1.31-2.54,1.57-.62,3.15-1.21,4.73-1.82,6.62-2.55,13.24-5.1,19.86-7.65,1.57-.6,2.45-.22,3.08,1.36,1,2.5,2.01,5,3,7.5.14.36.3.52.73.52,3.41.03,5.88,2.53,5.9,5.93,0,.6.02,1.21,0,1.81-.03,1.08-.89,1.91-1.94,1.91-1.05,0-1.89-.85-1.92-1.93-.02-.56,0-1.13,0-1.69,0-1.39-.78-2.18-2.16-2.18-5.09,0-10.19,0-15.28,0ZM20.44,9.52s.01.06.02.09h15.34c-.7-1.76-1.38-3.46-2.07-5.19-4.48,1.72-8.88,3.41-13.28,5.11Z"/>
    </g>
  </g>
</svg>