<svg width="359" height="107" viewBox="0 0 359 107" fill="none" xmlns="http://www.w3.org/2000/svg">
<g clip-path="url(#clip0_58_96)">
<rect width="359" height="107" rx="8" fill="white"/>
<path d="M17.968 18.52V22H16.864V13.408H19.792C20.536 13.408 21.168 13.656 21.688 14.152C22.216 14.648 22.48 15.252 22.48 15.964C22.48 16.692 22.216 17.3 21.688 17.788C21.176 18.276 20.544 18.52 19.792 18.52H17.968ZM17.968 14.464V17.464H19.816C20.256 17.464 20.62 17.316 20.908 17.02C21.204 16.724 21.352 16.372 21.352 15.964C21.352 15.564 21.204 15.216 20.908 14.92C20.62 14.616 20.256 14.464 19.816 14.464H17.968ZM24.5494 22H23.4454V16.12H24.5014V17.08H24.5494C24.6614 16.768 24.8894 16.504 25.2334 16.288C25.5854 16.064 25.9294 15.952 26.2654 15.952C26.5854 15.952 26.8574 16 27.0814 16.096L26.7454 17.164C26.6094 17.108 26.3934 17.08 26.0974 17.08C25.6814 17.08 25.3174 17.248 25.0054 17.584C24.7014 17.92 24.5494 18.312 24.5494 18.76V22ZM29.2328 14.092C29.2328 14.308 29.1568 14.492 29.0048 14.644C28.8528 14.796 28.6688 14.872 28.4528 14.872C28.2368 14.872 28.0528 14.796 27.9008 14.644C27.7488 14.492 27.6728 14.308 27.6728 14.092C27.6728 13.876 27.7488 13.692 27.9008 13.54C28.0528 13.388 28.2368 13.312 28.4528 13.312C28.6688 13.312 28.8528 13.388 29.0048 13.54C29.1568 13.692 29.2328 13.876 29.2328 14.092ZM29.0048 16.12V22H27.9008V16.12H29.0048ZM31.5455 22H30.4415V16.12H31.4975V16.936H31.5455C31.7135 16.648 31.9695 16.408 32.3135 16.216C32.6655 16.024 33.0135 15.928 33.3575 15.928C33.7895 15.928 34.1695 16.028 34.4975 16.228C34.8255 16.428 35.0655 16.704 35.2175 17.056C35.7055 16.304 36.3815 15.928 37.2455 15.928C37.9255 15.928 38.4495 16.136 38.8175 16.552C39.1855 16.968 39.3695 17.56 39.3695 18.328V22H38.2655V18.496C38.2655 17.944 38.1655 17.548 37.9655 17.308C37.7655 17.06 37.4295 16.936 36.9575 16.936C36.5335 16.936 36.1775 17.116 35.8895 17.476C35.6015 17.836 35.4575 18.26 35.4575 18.748V22H34.3535V18.496C34.3535 17.944 34.2535 17.548 34.0535 17.308C33.8535 17.06 33.5175 16.936 33.0455 16.936C32.6215 16.936 32.2655 17.116 31.9775 17.476C31.6895 17.836 31.5455 18.26 31.5455 18.748V22ZM43.3003 22.192C42.4363 22.192 41.7243 21.896 41.1643 21.304C40.6043 20.712 40.3243 19.964 40.3243 19.06C40.3243 18.164 40.5963 17.42 41.1403 16.828C41.6843 16.228 42.3803 15.928 43.2283 15.928C44.1003 15.928 44.7923 16.212 45.3043 16.78C45.8243 17.34 46.0843 18.128 46.0843 19.144L46.0723 19.264H41.4523C41.4683 19.84 41.6603 20.304 42.0283 20.656C42.3963 21.008 42.8363 21.184 43.3483 21.184C44.0523 21.184 44.6043 20.832 45.0043 20.128L45.9883 20.608C45.7243 21.104 45.3563 21.492 44.8843 21.772C44.4203 22.052 43.8923 22.192 43.3003 22.192ZM41.5363 18.352H44.9083C44.8763 17.944 44.7083 17.608 44.4043 17.344C44.1083 17.072 43.7083 16.936 43.2043 16.936C42.7883 16.936 42.4283 17.064 42.1243 17.32C41.8283 17.576 41.6323 17.92 41.5363 18.352Z" fill="black"/>
<rect x="16" y="36.5" width="58" height="57" rx="4" fill="#D0D0D0"/>
<rect x="82" y="43" width="186" height="12" rx="4" fill="#EBEBEB"/>
<rect x="82" y="43" width="186" height="12" rx="4" fill="#EBEBEB"/>
<rect x="82" y="43" width="186" height="12" rx="4" fill="#EBEBEB"/>
<rect x="82" y="59" width="163" height="12" rx="4" fill="#EBEBEB"/>
<rect x="82" y="59" width="163" height="12" rx="4" fill="#EBEBEB"/>
<rect x="82" y="59" width="163" height="12" rx="4" fill="#EBEBEB"/>
<rect x="82" y="75" width="79" height="12" rx="4" fill="#EE0125"/>
<rect x="284" y="36.5" width="58" height="57" rx="4" fill="#D0D0D0"/>
<rect x="350" y="43" width="186" height="12" rx="4" fill="#EBEBEB"/>
<rect x="350" y="43" width="186" height="12" rx="4" fill="#EBEBEB"/>
<rect x="350" y="43" width="186" height="12" rx="4" fill="#EBEBEB"/>
<rect x="350" y="59" width="163" height="12" rx="4" fill="#EBEBEB"/>
<rect x="350" y="59" width="163" height="12" rx="4" fill="#EBEBEB"/>
<rect x="350" y="59" width="163" height="12" rx="4" fill="#EBEBEB"/>
<rect x="350" y="75" width="79" height="12" rx="4" fill="#EE0125"/>
</g>
<rect x="0.5" y="0.5" width="358" height="106" rx="7.5" stroke="#D6D6D6"/>
<defs>
<clipPath id="clip0_58_96">
<rect width="359" height="107" rx="8" fill="white"/>
</clipPath>
</defs>
</svg>
