<svg width="359" height="170" viewBox="0 0 359 170" fill="none" xmlns="http://www.w3.org/2000/svg">
<rect x="0.5" y="0.5" width="358" height="169" rx="7.5" fill="white"/>
<rect x="0.5" y="0.5" width="358" height="169" rx="7.5" stroke="#D6D6D6"/>
<path d="M106.946 74.4302L88.3273 77.8715C87.0473 78.1081 86.2052 79.3468 86.4418 80.6269L89.0112 94.5928C89.2478 95.8728 90.4887 96.7266 91.7687 96.49L110.387 93.0486C111.667 92.812 112.521 91.5711 112.284 90.2911L109.703 76.3273C109.467 75.0473 108.226 74.1936 106.946 74.4302ZM107.806 79.0848L99.5723 86.6237L89.1876 82.5261L88.7575 80.1988L99.1421 84.2964L107.376 76.7575L107.806 79.0848Z" fill="#D0D0D0"/>
<path d="M177.62 22.79C179.06 25.62 181.38 27.93 184.21 29.38L186.41 27.18C186.68 26.91 187.08 26.82 187.43 26.94C188.55 27.31 189.76 27.51 191 27.51C191.55 27.51 192 27.96 192 28.51V32C192 32.55 191.55 33 191 33C181.61 33 174 25.39 174 16C174 15.45 174.45 15 175 15H178.5C179.05 15 179.5 15.45 179.5 16C179.5 17.25 179.7 18.45 180.07 19.57C180.18 19.92 180.1 20.31 179.82 20.59L177.62 22.79Z" fill="#D0D0D0"/>
<path d="M256.256 109C257.667 109 258.821 107.846 258.821 106.436H253.692C253.692 107.846 254.846 109 256.256 109ZM263.949 101.308V94.8974C263.949 90.9615 261.859 87.6667 258.179 86.7949V85.9231C258.179 84.859 257.321 84 256.256 84C255.192 84 254.333 84.859 254.333 85.9231V86.7949C250.667 87.6667 248.564 90.9487 248.564 94.8974V101.308L246 103.872V105.154H266.513V103.872L263.949 101.308ZM261.385 102.59H251.128V94.8974C251.128 91.7179 253.064 89.1282 256.256 89.1282C259.449 89.1282 261.385 91.7179 261.385 94.8974V102.59Z" fill="#D0D0D0"/>
<g clip-path="url(#clip0_59_138)">
<path d="M160.404 106.892C159.771 106.892 159.321 106.916 158.871 106.888C156.52 106.736 154.509 104.796 154.485 102.437C154.427 96.8325 154.427 91.2315 154.489 85.6266C154.516 83.2681 156.52 81.3164 158.894 81.2108C160.717 81.1286 162.544 81.1756 164.367 81.1756C170.298 81.1717 176.233 81.2733 182.16 81.1404C185.865 81.0582 187.931 83.6866 187.724 86.6827C187.622 88.1416 187.708 89.6083 187.708 91.2237C188.095 91.2237 188.439 91.2237 188.78 91.2237C192.301 91.2237 195.818 91.2198 199.339 91.2237C202.547 91.2276 204.538 93.1989 204.542 96.3827C204.55 101.463 204.546 106.548 204.542 111.629C204.542 115.043 202.68 116.929 199.245 117.011C199.085 117.015 198.924 117.03 198.592 117.05C198.592 118.341 198.596 119.627 198.592 120.914C198.588 121.884 198.764 122.968 197.594 123.429C196.436 123.887 195.806 123.007 195.129 122.299C193.623 120.719 192.129 119.127 190.576 117.594C190.251 117.277 189.695 117.034 189.241 117.03C185.071 116.987 180.901 117.007 176.726 117.003C173.225 116.999 171.296 115.063 171.292 111.555C171.292 110.057 171.292 108.562 171.292 106.998C170.052 106.865 168.98 106.708 168.018 107.851C166.574 109.568 164.927 111.113 163.374 112.74C162.822 113.319 162.224 113.714 161.39 113.362C160.569 113.013 160.397 112.317 160.4 111.519C160.408 110.033 160.404 108.539 160.404 106.892ZM195.462 117.766C195.462 117.003 195.431 116.229 195.47 115.458C195.525 114.445 196.076 113.917 197.086 113.882C197.801 113.858 198.517 113.882 199.237 113.874C200.841 113.862 201.405 113.295 201.409 111.684C201.412 106.634 201.412 101.589 201.409 96.5391C201.409 94.9159 200.853 94.3566 199.245 94.3566C191.718 94.3527 184.195 94.3527 176.668 94.3566C174.989 94.3566 174.434 94.9042 174.434 96.5743C174.43 101.557 174.43 106.54 174.434 111.523C174.434 113.33 174.966 113.87 176.75 113.87C181.178 113.874 185.611 113.897 190.04 113.85C191.01 113.843 191.687 114.163 192.344 114.844C193.31 115.853 194.378 116.76 195.462 117.766ZM184.566 91.2198C184.566 89.5848 184.57 88.0907 184.566 86.6005C184.562 84.8365 184.058 84.3163 182.313 84.3163C177 84.3124 171.691 84.3163 166.378 84.3163C164.293 84.3163 162.208 84.3163 160.123 84.3163C158.006 84.3163 157.592 84.7231 157.592 86.8C157.592 87.1911 157.592 87.5823 157.592 87.9734C157.592 92.5652 157.588 97.161 157.595 101.753C157.599 103.196 158.163 103.755 159.602 103.779C159.927 103.783 160.256 103.779 160.58 103.779C163.346 103.779 163.542 103.971 163.546 106.697C163.546 107.053 163.546 107.409 163.546 107.585C164.677 106.564 165.749 105.516 166.914 104.581C167.407 104.186 168.08 103.912 168.71 103.81C169.524 103.681 170.377 103.779 171.218 103.779C171.218 102.926 171.218 102.203 171.218 101.416C168.538 101.416 165.936 101.42 163.335 101.413C162.091 101.409 161.371 100.845 161.351 99.8833C161.332 98.9015 162.102 98.2835 163.382 98.2796C165.436 98.2718 167.489 98.2796 169.539 98.2796C170.111 98.2796 170.682 98.2796 171.245 98.2796C171.245 97.3214 171.245 96.5196 171.245 95.6121C170.029 95.6121 168.863 95.616 167.697 95.6121C166.069 95.6082 164.438 95.6317 162.81 95.5691C161.934 95.5339 161.308 94.8299 161.363 94.0281C161.418 93.1832 161.875 92.6356 162.748 92.5105C163.069 92.4635 163.397 92.4675 163.722 92.4675C166.492 92.4635 169.262 92.4753 172.032 92.4518C172.431 92.4479 172.9 92.3814 173.217 92.1663C174.262 91.4623 175.388 91.1924 176.632 91.208C179.23 91.2393 181.832 91.2198 184.566 91.2198Z" fill="#EE0125"/>
<path d="M206.365 130.125C202.43 125.146 202.434 120.347 206.334 116.835C209.749 113.761 214.976 113.874 218.321 117.066C221.298 119.905 222.554 125.584 218.008 130.114C218.282 130.251 218.536 130.38 218.791 130.505C224.029 133.031 227.069 137.185 227.965 142.915C228.172 144.229 227.519 144.992 226.189 144.996C216.866 145.004 207.543 145.004 198.224 144.996C196.878 144.996 196.248 144.249 196.444 142.931C197.312 137.099 200.45 132.949 205.767 130.43C205.962 130.337 206.158 130.231 206.365 130.125ZM224.483 141.832C223.481 136.387 217.938 132.175 212.05 132.23C205.043 132.292 200.591 137.741 199.914 141.832C208.091 141.832 216.259 141.832 224.483 141.832ZM217.852 123.429C217.863 120.285 215.395 117.773 212.249 117.738C209.096 117.703 206.502 120.265 206.51 123.414C206.518 126.507 209.084 129.073 212.183 129.077C215.297 129.081 217.84 126.543 217.852 123.429Z" fill="#EE0125"/>
<path d="M152.619 130.11C152.858 130.235 153.077 130.36 153.304 130.47C158.62 133.008 161.719 137.185 162.568 143.013C162.744 144.214 162.106 144.992 160.889 144.992C151.504 145.004 142.115 145.004 132.729 144.992C131.442 144.992 130.824 144.179 131.043 142.833C131.978 137.068 135.069 132.918 140.37 130.434C140.518 130.364 140.667 130.305 140.808 130.227C140.859 130.2 140.89 130.129 140.929 130.078C136.192 125.275 137.948 119.479 140.871 116.878C144.349 113.78 149.556 113.858 152.94 117.085C155.733 119.749 157.329 125.369 152.619 130.11ZM134.548 141.804C142.733 141.804 150.909 141.804 159.102 141.804C157.873 135.996 152.279 131.975 145.91 132.265C140.55 132.511 135.092 137.08 134.548 141.804ZM146.778 117.742C143.637 117.758 141.14 120.261 141.14 123.402C141.14 126.523 143.652 129.054 146.778 129.081C149.9 129.105 152.513 126.484 152.486 123.355C152.459 120.234 149.904 117.723 146.778 117.742Z" fill="#D0D0D0"/>
<path d="M185.282 63.5474C189.003 65.1002 191.898 67.5252 193.596 71.1157C194.39 72.7976 194.813 74.6672 195.27 76.4859C195.536 77.5381 194.816 78.2969 193.717 78.3868C193.557 78.3986 193.392 78.3986 193.228 78.3986C184.07 78.3986 174.907 78.4025 165.748 78.3946C164.082 78.3946 163.515 77.7102 163.785 76.0713C164.731 70.3296 167.873 66.2579 173.139 63.8094C173.311 63.7312 173.475 63.6413 173.741 63.5083C171.492 61.3688 170.408 58.8069 170.752 55.7561C171.014 53.4641 172.071 51.5436 173.843 50.0534C177.321 47.1278 182.415 47.3546 185.681 50.5228C188.443 53.2059 189.985 58.8069 185.282 63.5474ZM191.781 75.1952C190.72 69.7624 185.192 65.5461 179.332 65.6165C173.596 65.6869 168.072 70.0323 167.223 75.1952C175.396 75.1952 183.553 75.1952 191.781 75.1952ZM185.169 56.8513C185.188 53.734 182.673 51.1642 179.567 51.1329C176.452 51.1017 173.866 53.6166 173.827 56.7144C173.788 59.8864 176.319 62.464 179.477 62.4718C182.602 62.4796 185.149 59.9607 185.169 56.8513Z" fill="#D0D0D0"/>
<path d="M218.974 99.148C219.526 98.2718 220.07 97.3879 220.637 96.5235C221.267 95.5691 222.159 95.3266 222.957 95.8586C223.716 96.367 223.869 97.2549 223.29 98.1779C221.686 100.748 220.078 103.313 218.438 105.86C217.676 107.045 216.471 107.092 215.641 105.965C214.002 103.732 212.394 101.479 210.802 99.2144C210.207 98.3696 210.332 97.4974 211.04 96.9576C211.756 96.414 212.723 96.5782 213.345 97.4074C214.057 98.354 214.734 99.3279 215.422 100.29C215.528 100.255 215.629 100.224 215.735 100.188C215.493 97.8455 215.375 95.4792 214.984 93.1598C213.004 81.379 207.5 71.5538 198.455 63.7234C197.367 62.7808 197.305 61.5761 198.298 60.9503C199.135 60.4223 199.832 60.7704 200.505 61.3414C204.707 64.9242 208.255 69.0623 211.115 73.7832C215.602 81.1834 218.157 89.1976 218.658 97.8533C218.681 98.2718 218.724 98.6903 218.759 99.1049C218.838 99.1206 218.904 99.1323 218.974 99.148Z" fill="#EE0125"/>
<path d="M153.503 66.7234C152.463 66.9463 151.422 67.1888 150.373 67.3922C149.294 67.6034 148.546 67.1771 148.331 66.2657C148.12 65.3583 148.605 64.6191 149.677 64.3688C152.654 63.6686 155.631 62.9802 158.62 62.3271C159.951 62.0337 160.87 62.9372 160.651 64.2788C160.22 66.9463 159.774 69.606 159.328 72.2696C159.137 73.4077 158.464 73.9788 157.49 73.8458C156.547 73.7206 156.062 72.9775 156.226 71.7924C156.383 70.6425 156.598 69.4965 156.829 68.0767C156.253 68.6829 155.847 69.0936 155.463 69.5199C146.786 79.2708 142.572 90.68 142.756 103.72C142.768 104.663 142.889 105.605 142.917 106.548C142.952 107.616 142.357 108.336 141.45 108.386C140.569 108.437 139.873 107.741 139.791 106.701C138.922 95.8351 141.258 85.6853 146.668 76.2356C148.605 72.868 150.929 69.782 153.503 66.7234Z" fill="#D0D0D0"/>
<path d="M166.12 130.106C168.718 130.501 171.308 131.029 173.921 131.267C181.918 132.003 189.629 130.743 197.046 127.665C198.181 127.196 199.073 127.473 199.445 128.361C199.832 129.281 199.378 130.098 198.169 130.595C188.021 134.768 177.583 135.707 166.86 133.36C166.703 133.325 166.547 133.297 166.089 133.211C166.633 133.806 167.004 134.209 167.376 134.616C167.771 135.05 168.174 135.476 168.561 135.914C169.07 136.489 169.16 137.142 168.776 137.807C168.409 138.445 167.806 138.699 167.11 138.511C166.758 138.417 166.406 138.163 166.147 137.893C164.094 135.707 162.055 133.509 160.033 131.299C159.004 130.172 159.27 129.007 160.698 128.459C163.217 127.489 165.748 126.55 168.284 125.62C169.305 125.244 170.154 125.565 170.494 126.406C170.85 127.294 170.424 128.138 169.375 128.553C168.287 128.979 167.192 129.378 166.097 129.789C166.104 129.891 166.112 130 166.12 130.106Z" fill="#D0D0D0"/>
<path d="M187.939 108.375C190.513 108.375 193.083 108.371 195.658 108.375C196.921 108.379 197.625 108.922 197.649 109.884C197.672 110.862 196.902 111.504 195.63 111.504C190.486 111.512 185.341 111.515 180.196 111.504C178.729 111.5 177.888 110.534 178.319 109.384C178.612 108.598 179.238 108.363 180.028 108.367C182.665 108.382 185.302 108.375 187.939 108.375Z" fill="#D0D0D0"/>
<path d="M187.974 102.551C190.548 102.551 193.119 102.547 195.693 102.551C196.913 102.555 197.645 103.149 197.645 104.111C197.645 105.066 196.894 105.684 195.689 105.684C190.513 105.692 185.333 105.692 180.157 105.684C178.944 105.684 178.209 105.07 178.213 104.107C178.213 103.137 178.937 102.555 180.161 102.551C182.767 102.547 185.372 102.551 187.974 102.551Z" fill="#D0D0D0"/>
<path d="M192.019 99.8481C190.748 99.8481 189.476 99.8598 188.205 99.8442C187.121 99.8285 186.468 99.2223 186.472 98.2875C186.475 97.3566 187.133 96.7308 188.216 96.719C190.759 96.6995 193.298 96.6995 195.841 96.719C196.945 96.7269 197.684 97.427 197.649 98.3461C197.614 99.2496 196.925 99.8324 195.834 99.8442C194.558 99.8598 193.287 99.8481 192.019 99.8481Z" fill="#D0D0D0"/>
<path d="M181.159 99.8402C180.674 99.8402 180.185 99.8676 179.699 99.8324C178.835 99.7698 178.201 99.144 178.213 98.3344C178.225 97.4817 178.678 96.852 179.519 96.7738C180.642 96.6721 181.789 96.6799 182.915 96.7738C183.76 96.8442 184.292 97.6225 184.191 98.4439C184.085 99.3005 183.573 99.7777 182.712 99.8324C182.199 99.8676 181.679 99.8402 181.159 99.8402Z" fill="#D0D0D0"/>
<path d="M174.95 89.8156C173.679 89.8156 172.407 89.8273 171.14 89.8117C169.931 89.8 169.199 89.1742 169.215 88.2081C169.23 87.2654 169.919 86.6866 171.089 86.6827C173.694 86.6709 176.3 86.6709 178.905 86.6827C180.075 86.6866 180.768 87.2654 180.783 88.2081C180.799 89.1742 180.063 89.8 178.858 89.8156C177.56 89.8273 176.253 89.8156 174.95 89.8156Z" fill="#D0D0D0"/>
<path d="M164.09 89.7843C163.636 89.7843 163.174 89.8352 162.728 89.7726C161.883 89.6513 161.304 88.9277 161.351 88.1494C161.398 87.3398 162.008 86.7335 162.889 86.6944C163.73 86.6592 164.575 86.6592 165.42 86.6905C166.32 86.7257 166.918 87.3006 166.977 88.1142C167.04 88.9551 166.453 89.6709 165.549 89.7804C165.068 89.8391 164.579 89.7921 164.09 89.7921C164.09 89.7921 164.09 89.7882 164.09 89.7843Z" fill="#D0D0D0"/>
</g>
<defs>
<clipPath id="clip0_59_138">
<rect width="97" height="97" fill="white" transform="translate(131 48)"/>
</clipPath>
</defs>
</svg>
