<svg width="359" height="212" viewBox="0 0 359 212" fill="none" xmlns="http://www.w3.org/2000/svg">
<g clip-path="url(#clip0_58_49)">
<rect width="359" height="212" rx="8" fill="white"/>
<rect x="20" y="13.5" width="58" height="57" rx="4" fill="#D0D0D0"/>
<rect x="86" y="20" width="244" height="12" rx="4" fill="#EBEBEB"/>
<rect x="86" y="20" width="244" height="12" rx="4" fill="#EBEBEB"/>
<rect x="86" y="20" width="244" height="12" rx="4" fill="#EBEBEB"/>
<rect x="86" y="36" width="207" height="12" rx="4" fill="#EBEBEB"/>
<rect x="86" y="36" width="207" height="12" rx="4" fill="#EBEBEB"/>
<rect x="86" y="36" width="207" height="12" rx="4" fill="#EBEBEB"/>
<rect x="86" y="52" width="79" height="12" rx="4" fill="#EE0125"/>
<rect x="20" y="77.5" width="58" height="57" rx="4" fill="#D0D0D0"/>
<rect x="86" y="84" width="244" height="12" rx="4" fill="#EBEBEB"/>
<rect x="86" y="84" width="244" height="12" rx="4" fill="#EBEBEB"/>
<rect x="86" y="84" width="244" height="12" rx="4" fill="#EBEBEB"/>
<rect x="86" y="100" width="207" height="12" rx="4" fill="#EBEBEB"/>
<rect x="86" y="100" width="207" height="12" rx="4" fill="#EBEBEB"/>
<rect x="86" y="100" width="207" height="12" rx="4" fill="#EBEBEB"/>
<rect x="86" y="116" width="79" height="12" rx="4" fill="#EE0125"/>
<rect x="20" y="141.5" width="58" height="57" rx="4" fill="#D0D0D0"/>
<rect x="86" y="148" width="244" height="12" rx="4" fill="#EBEBEB"/>
<rect x="86" y="148" width="244" height="12" rx="4" fill="#EBEBEB"/>
<rect x="86" y="148" width="244" height="12" rx="4" fill="#EBEBEB"/>
<rect x="86" y="164" width="207" height="12" rx="4" fill="#EBEBEB"/>
<rect x="86" y="164" width="207" height="12" rx="4" fill="#EBEBEB"/>
<rect x="86" y="164" width="207" height="12" rx="4" fill="#EBEBEB"/>
<rect x="86" y="180" width="79" height="12" rx="4" fill="#EE0125"/>
<rect width="365" height="135" transform="translate(-3 77)" fill="black" fill-opacity="0.47"/>
<path d="M342.5 14L344.633 20.5643H351.535L345.951 24.6213L348.084 31.1857L342.5 27.1287L336.916 31.1857L339.049 24.6213L333.465 20.5643H340.367L342.5 14Z" fill="#EE0125"/>
</g>
<rect x="0.5" y="0.5" width="358" height="211" rx="7.5" stroke="#D6D6D6"/>
<defs>
<clipPath id="clip0_58_49">
<rect width="359" height="212" rx="8" fill="white"/>
</clipPath>
</defs>
</svg>
